<?xml version="1.0" encoding="utf-8" standalone="no"?>
<!DOCTYPE svg PUBLIC "-//W3C//DTD SVG 1.1//EN"
  "http://www.w3.org/Graphics/SVG/1.1/DTD/svg11.dtd">
<!-- Created with matplotlib (https://matplotlib.org/) -->
<svg height="345.6pt" version="1.1" viewBox="0 0 460.8 345.6" width="460.8pt" xmlns="http://www.w3.org/2000/svg" xmlns:xlink="http://www.w3.org/1999/xlink">
 <metadata>
  <rdf:RDF xmlns:cc="http://creativecommons.org/ns#" xmlns:dc="http://purl.org/dc/elements/1.1/" xmlns:rdf="http://www.w3.org/1999/02/22-rdf-syntax-ns#">
   <cc:Work>
    <dc:type rdf:resource="http://purl.org/dc/dcmitype/StillImage"/>
    <dc:date>2021-06-21T14:53:20.675249</dc:date>
    <dc:format>image/svg+xml</dc:format>
    <dc:creator>
     <cc:Agent>
      <dc:title>Matplotlib v3.3.1, https://matplotlib.org/</dc:title>
     </cc:Agent>
    </dc:creator>
   </cc:Work>
  </rdf:RDF>
 </metadata>
 <defs>
  <style type="text/css">*{stroke-linecap:butt;stroke-linejoin:round;}</style>
 </defs>
 <g id="figure_1">
  <g id="patch_1">
   <path d="M 0 345.6 
L 460.8 345.6 
L 460.8 0 
L 0 0 
z
" style="fill:#ffffff;"/>
  </g>
  <g id="axes_1">
   <g id="patch_2">
    <path d="M 57.6 307.584 
L 414.72 307.584 
L 414.72 41.472 
L 57.6 41.472 
z
" style="fill:#ffffff;"/>
   </g>
   <g id="matplotlib.axis_1">
    <g id="xtick_1">
     <g id="line2d_1">
      <defs>
       <path d="M 0 0 
L 0 3.5 
" id="m0c68aef25e" style="stroke:#000000;stroke-width:0.8;"/>
      </defs>
      <g>
       <use style="stroke:#000000;stroke-width:0.8;" x="77.899131" xlink:href="#m0c68aef25e" y="307.584"/>
      </g>
     </g>
     <g id="text_1">
      <!-- $\mathdefault{10^{1}}$ -->
      <g transform="translate(69.099131 322.182437)scale(0.1 -0.1)">
       <defs>
        <path d="M 12.40625 8.296875 
L 28.515625 8.296875 
L 28.515625 63.921875 
L 10.984375 60.40625 
L 10.984375 69.390625 
L 28.421875 72.90625 
L 38.28125 72.90625 
L 38.28125 8.296875 
L 54.390625 8.296875 
L 54.390625 0 
L 12.40625 0 
z
" id="DejaVuSans-49"/>
        <path d="M 31.78125 66.40625 
Q 24.171875 66.40625 20.328125 58.90625 
Q 16.5 51.421875 16.5 36.375 
Q 16.5 21.390625 20.328125 13.890625 
Q 24.171875 6.390625 31.78125 6.390625 
Q 39.453125 6.390625 43.28125 13.890625 
Q 47.125 21.390625 47.125 36.375 
Q 47.125 51.421875 43.28125 58.90625 
Q 39.453125 66.40625 31.78125 66.40625 
z
M 31.78125 74.21875 
Q 44.046875 74.21875 50.515625 64.515625 
Q 56.984375 54.828125 56.984375 36.375 
Q 56.984375 17.96875 50.515625 8.265625 
Q 44.046875 -1.421875 31.78125 -1.421875 
Q 19.53125 -1.421875 13.0625 8.265625 
Q 6.59375 17.96875 6.59375 36.375 
Q 6.59375 54.828125 13.0625 64.515625 
Q 19.53125 74.21875 31.78125 74.21875 
z
" id="DejaVuSans-48"/>
       </defs>
       <use transform="translate(0 0.684375)" xlink:href="#DejaVuSans-49"/>
       <use transform="translate(63.623047 0.684375)" xlink:href="#DejaVuSans-48"/>
       <use transform="translate(128.203125 38.965625)scale(0.7)" xlink:href="#DejaVuSans-49"/>
      </g>
     </g>
    </g>
    <g id="xtick_2">
     <g id="line2d_2">
      <g>
       <use style="stroke:#000000;stroke-width:0.8;" x="277.552362" xlink:href="#m0c68aef25e" y="307.584"/>
      </g>
     </g>
     <g id="text_2">
      <!-- $\mathdefault{10^{2}}$ -->
      <g transform="translate(268.752362 322.182437)scale(0.1 -0.1)">
       <defs>
        <path d="M 19.1875 8.296875 
L 53.609375 8.296875 
L 53.609375 0 
L 7.328125 0 
L 7.328125 8.296875 
Q 12.9375 14.109375 22.625 23.890625 
Q 32.328125 33.6875 34.8125 36.53125 
Q 39.546875 41.84375 41.421875 45.53125 
Q 43.3125 49.21875 43.3125 52.78125 
Q 43.3125 58.59375 39.234375 62.25 
Q 35.15625 65.921875 28.609375 65.921875 
Q 23.96875 65.921875 18.8125 64.3125 
Q 13.671875 62.703125 7.8125 59.421875 
L 7.8125 69.390625 
Q 13.765625 71.78125 18.9375 73 
Q 24.125 74.21875 28.421875 74.21875 
Q 39.75 74.21875 46.484375 68.546875 
Q 53.21875 62.890625 53.21875 53.421875 
Q 53.21875 48.921875 51.53125 44.890625 
Q 49.859375 40.875 45.40625 35.40625 
Q 44.1875 33.984375 37.640625 27.21875 
Q 31.109375 20.453125 19.1875 8.296875 
z
" id="DejaVuSans-50"/>
       </defs>
       <use transform="translate(0 0.765625)" xlink:href="#DejaVuSans-49"/>
       <use transform="translate(63.623047 0.765625)" xlink:href="#DejaVuSans-48"/>
       <use transform="translate(128.203125 39.046875)scale(0.7)" xlink:href="#DejaVuSans-50"/>
      </g>
     </g>
    </g>
    <g id="xtick_3">
     <g id="line2d_3">
      <defs>
       <path d="M 0 0 
L 0 2 
" id="m246c6eb181" style="stroke:#000000;stroke-width:0.6;"/>
      </defs>
      <g>
       <use style="stroke:#000000;stroke-width:0.6;" x="58.550734" xlink:href="#m246c6eb181" y="307.584"/>
      </g>
     </g>
    </g>
    <g id="xtick_4">
     <g id="line2d_4">
      <g>
       <use style="stroke:#000000;stroke-width:0.6;" x="68.763501" xlink:href="#m246c6eb181" y="307.584"/>
      </g>
     </g>
    </g>
    <g id="xtick_5">
     <g id="line2d_5">
      <g>
       <use style="stroke:#000000;stroke-width:0.6;" x="138.000743" xlink:href="#m246c6eb181" y="307.584"/>
      </g>
     </g>
    </g>
    <g id="xtick_6">
     <g id="line2d_6">
      <g>
       <use style="stroke:#000000;stroke-width:0.6;" x="173.157931" xlink:href="#m246c6eb181" y="307.584"/>
      </g>
     </g>
    </g>
    <g id="xtick_7">
     <g id="line2d_7">
      <g>
       <use style="stroke:#000000;stroke-width:0.6;" x="198.102354" xlink:href="#m246c6eb181" y="307.584"/>
      </g>
     </g>
    </g>
    <g id="xtick_8">
     <g id="line2d_8">
      <g>
       <use style="stroke:#000000;stroke-width:0.6;" x="217.450751" xlink:href="#m246c6eb181" y="307.584"/>
      </g>
     </g>
    </g>
    <g id="xtick_9">
     <g id="line2d_9">
      <g>
       <use style="stroke:#000000;stroke-width:0.6;" x="233.259543" xlink:href="#m246c6eb181" y="307.584"/>
      </g>
     </g>
    </g>
    <g id="xtick_10">
     <g id="line2d_10">
      <g>
       <use style="stroke:#000000;stroke-width:0.6;" x="246.625686" xlink:href="#m246c6eb181" y="307.584"/>
      </g>
     </g>
    </g>
    <g id="xtick_11">
     <g id="line2d_11">
      <g>
       <use style="stroke:#000000;stroke-width:0.6;" x="258.203965" xlink:href="#m246c6eb181" y="307.584"/>
      </g>
     </g>
    </g>
    <g id="xtick_12">
     <g id="line2d_12">
      <g>
       <use style="stroke:#000000;stroke-width:0.6;" x="268.416732" xlink:href="#m246c6eb181" y="307.584"/>
      </g>
     </g>
    </g>
    <g id="xtick_13">
     <g id="line2d_13">
      <g>
       <use style="stroke:#000000;stroke-width:0.6;" x="337.653974" xlink:href="#m246c6eb181" y="307.584"/>
      </g>
     </g>
    </g>
    <g id="xtick_14">
     <g id="line2d_14">
      <g>
       <use style="stroke:#000000;stroke-width:0.6;" x="372.811162" xlink:href="#m246c6eb181" y="307.584"/>
      </g>
     </g>
    </g>
    <g id="xtick_15">
     <g id="line2d_15">
      <g>
       <use style="stroke:#000000;stroke-width:0.6;" x="397.755585" xlink:href="#m246c6eb181" y="307.584"/>
      </g>
     </g>
    </g>
    <g id="text_3">
     <!-- Execution time (s) -->
     <g transform="translate(190.645156 335.860562)scale(0.1 -0.1)">
      <defs>
       <path d="M 9.8125 72.90625 
L 55.90625 72.90625 
L 55.90625 64.59375 
L 19.671875 64.59375 
L 19.671875 43.015625 
L 54.390625 43.015625 
L 54.390625 34.71875 
L 19.671875 34.71875 
L 19.671875 8.296875 
L 56.78125 8.296875 
L 56.78125 0 
L 9.8125 0 
z
" id="DejaVuSans-69"/>
       <path d="M 54.890625 54.6875 
L 35.109375 28.078125 
L 55.90625 0 
L 45.3125 0 
L 29.390625 21.484375 
L 13.484375 0 
L 2.875 0 
L 24.125 28.609375 
L 4.6875 54.6875 
L 15.28125 54.6875 
L 29.78125 35.203125 
L 44.28125 54.6875 
z
" id="DejaVuSans-120"/>
       <path d="M 56.203125 29.59375 
L 56.203125 25.203125 
L 14.890625 25.203125 
Q 15.484375 15.921875 20.484375 11.0625 
Q 25.484375 6.203125 34.421875 6.203125 
Q 39.59375 6.203125 44.453125 7.46875 
Q 49.3125 8.734375 54.109375 11.28125 
L 54.109375 2.78125 
Q 49.265625 0.734375 44.1875 -0.34375 
Q 39.109375 -1.421875 33.890625 -1.421875 
Q 20.796875 -1.421875 13.15625 6.1875 
Q 5.515625 13.8125 5.515625 26.8125 
Q 5.515625 40.234375 12.765625 48.109375 
Q 20.015625 56 32.328125 56 
Q 43.359375 56 49.78125 48.890625 
Q 56.203125 41.796875 56.203125 29.59375 
z
M 47.21875 32.234375 
Q 47.125 39.59375 43.09375 43.984375 
Q 39.0625 48.390625 32.421875 48.390625 
Q 24.90625 48.390625 20.390625 44.140625 
Q 15.875 39.890625 15.1875 32.171875 
z
" id="DejaVuSans-101"/>
       <path d="M 48.78125 52.59375 
L 48.78125 44.1875 
Q 44.96875 46.296875 41.140625 47.34375 
Q 37.3125 48.390625 33.40625 48.390625 
Q 24.65625 48.390625 19.8125 42.84375 
Q 14.984375 37.3125 14.984375 27.296875 
Q 14.984375 17.28125 19.8125 11.734375 
Q 24.65625 6.203125 33.40625 6.203125 
Q 37.3125 6.203125 41.140625 7.25 
Q 44.96875 8.296875 48.78125 10.40625 
L 48.78125 2.09375 
Q 45.015625 0.34375 40.984375 -0.53125 
Q 36.96875 -1.421875 32.421875 -1.421875 
Q 20.0625 -1.421875 12.78125 6.34375 
Q 5.515625 14.109375 5.515625 27.296875 
Q 5.515625 40.671875 12.859375 48.328125 
Q 20.21875 56 33.015625 56 
Q 37.15625 56 41.109375 55.140625 
Q 45.0625 54.296875 48.78125 52.59375 
z
" id="DejaVuSans-99"/>
       <path d="M 8.5 21.578125 
L 8.5 54.6875 
L 17.484375 54.6875 
L 17.484375 21.921875 
Q 17.484375 14.15625 20.5 10.265625 
Q 23.53125 6.390625 29.59375 6.390625 
Q 36.859375 6.390625 41.078125 11.03125 
Q 45.3125 15.671875 45.3125 23.6875 
L 45.3125 54.6875 
L 54.296875 54.6875 
L 54.296875 0 
L 45.3125 0 
L 45.3125 8.40625 
Q 42.046875 3.421875 37.71875 1 
Q 33.40625 -1.421875 27.6875 -1.421875 
Q 18.265625 -1.421875 13.375 4.4375 
Q 8.5 10.296875 8.5 21.578125 
z
M 31.109375 56 
z
" id="DejaVuSans-117"/>
       <path d="M 18.3125 70.21875 
L 18.3125 54.6875 
L 36.8125 54.6875 
L 36.8125 47.703125 
L 18.3125 47.703125 
L 18.3125 18.015625 
Q 18.3125 11.328125 20.140625 9.421875 
Q 21.96875 7.515625 27.59375 7.515625 
L 36.8125 7.515625 
L 36.8125 0 
L 27.59375 0 
Q 17.1875 0 13.234375 3.875 
Q 9.28125 7.765625 9.28125 18.015625 
L 9.28125 47.703125 
L 2.6875 47.703125 
L 2.6875 54.6875 
L 9.28125 54.6875 
L 9.28125 70.21875 
z
" id="DejaVuSans-116"/>
       <path d="M 9.421875 54.6875 
L 18.40625 54.6875 
L 18.40625 0 
L 9.421875 0 
z
M 9.421875 75.984375 
L 18.40625 75.984375 
L 18.40625 64.59375 
L 9.421875 64.59375 
z
" id="DejaVuSans-105"/>
       <path d="M 30.609375 48.390625 
Q 23.390625 48.390625 19.1875 42.75 
Q 14.984375 37.109375 14.984375 27.296875 
Q 14.984375 17.484375 19.15625 11.84375 
Q 23.34375 6.203125 30.609375 6.203125 
Q 37.796875 6.203125 41.984375 11.859375 
Q 46.1875 17.53125 46.1875 27.296875 
Q 46.1875 37.015625 41.984375 42.703125 
Q 37.796875 48.390625 30.609375 48.390625 
z
M 30.609375 56 
Q 42.328125 56 49.015625 48.375 
Q 55.71875 40.765625 55.71875 27.296875 
Q 55.71875 13.875 49.015625 6.21875 
Q 42.328125 -1.421875 30.609375 -1.421875 
Q 18.84375 -1.421875 12.171875 6.21875 
Q 5.515625 13.875 5.515625 27.296875 
Q 5.515625 40.765625 12.171875 48.375 
Q 18.84375 56 30.609375 56 
z
" id="DejaVuSans-111"/>
       <path d="M 54.890625 33.015625 
L 54.890625 0 
L 45.90625 0 
L 45.90625 32.71875 
Q 45.90625 40.484375 42.875 44.328125 
Q 39.84375 48.1875 33.796875 48.1875 
Q 26.515625 48.1875 22.3125 43.546875 
Q 18.109375 38.921875 18.109375 30.90625 
L 18.109375 0 
L 9.078125 0 
L 9.078125 54.6875 
L 18.109375 54.6875 
L 18.109375 46.1875 
Q 21.34375 51.125 25.703125 53.5625 
Q 30.078125 56 35.796875 56 
Q 45.21875 56 50.046875 50.171875 
Q 54.890625 44.34375 54.890625 33.015625 
z
" id="DejaVuSans-110"/>
       <path id="DejaVuSans-32"/>
       <path d="M 52 44.1875 
Q 55.375 50.25 60.0625 53.125 
Q 64.75 56 71.09375 56 
Q 79.640625 56 84.28125 50.015625 
Q 88.921875 44.046875 88.921875 33.015625 
L 88.921875 0 
L 79.890625 0 
L 79.890625 32.71875 
Q 79.890625 40.578125 77.09375 44.375 
Q 74.3125 48.1875 68.609375 48.1875 
Q 61.625 48.1875 57.5625 43.546875 
Q 53.515625 38.921875 53.515625 30.90625 
L 53.515625 0 
L 44.484375 0 
L 44.484375 32.71875 
Q 44.484375 40.625 41.703125 44.40625 
Q 38.921875 48.1875 33.109375 48.1875 
Q 26.21875 48.1875 22.15625 43.53125 
Q 18.109375 38.875 18.109375 30.90625 
L 18.109375 0 
L 9.078125 0 
L 9.078125 54.6875 
L 18.109375 54.6875 
L 18.109375 46.1875 
Q 21.1875 51.21875 25.484375 53.609375 
Q 29.78125 56 35.6875 56 
Q 41.65625 56 45.828125 52.96875 
Q 50 49.953125 52 44.1875 
z
" id="DejaVuSans-109"/>
       <path d="M 31 75.875 
Q 24.46875 64.65625 21.28125 53.65625 
Q 18.109375 42.671875 18.109375 31.390625 
Q 18.109375 20.125 21.3125 9.0625 
Q 24.515625 -2 31 -13.1875 
L 23.1875 -13.1875 
Q 15.875 -1.703125 12.234375 9.375 
Q 8.59375 20.453125 8.59375 31.390625 
Q 8.59375 42.28125 12.203125 53.3125 
Q 15.828125 64.359375 23.1875 75.875 
z
" id="DejaVuSans-40"/>
       <path d="M 44.28125 53.078125 
L 44.28125 44.578125 
Q 40.484375 46.53125 36.375 47.5 
Q 32.28125 48.484375 27.875 48.484375 
Q 21.1875 48.484375 17.84375 46.4375 
Q 14.5 44.390625 14.5 40.28125 
Q 14.5 37.15625 16.890625 35.375 
Q 19.28125 33.59375 26.515625 31.984375 
L 29.59375 31.296875 
Q 39.15625 29.25 43.1875 25.515625 
Q 47.21875 21.78125 47.21875 15.09375 
Q 47.21875 7.46875 41.1875 3.015625 
Q 35.15625 -1.421875 24.609375 -1.421875 
Q 20.21875 -1.421875 15.453125 -0.5625 
Q 10.6875 0.296875 5.421875 2 
L 5.421875 11.28125 
Q 10.40625 8.6875 15.234375 7.390625 
Q 20.0625 6.109375 24.8125 6.109375 
Q 31.15625 6.109375 34.5625 8.28125 
Q 37.984375 10.453125 37.984375 14.40625 
Q 37.984375 18.0625 35.515625 20.015625 
Q 33.0625 21.96875 24.703125 23.78125 
L 21.578125 24.515625 
Q 13.234375 26.265625 9.515625 29.90625 
Q 5.8125 33.546875 5.8125 39.890625 
Q 5.8125 47.609375 11.28125 51.796875 
Q 16.75 56 26.8125 56 
Q 31.78125 56 36.171875 55.265625 
Q 40.578125 54.546875 44.28125 53.078125 
z
" id="DejaVuSans-115"/>
       <path d="M 8.015625 75.875 
L 15.828125 75.875 
Q 23.140625 64.359375 26.78125 53.3125 
Q 30.421875 42.28125 30.421875 31.390625 
Q 30.421875 20.453125 26.78125 9.375 
Q 23.140625 -1.703125 15.828125 -13.1875 
L 8.015625 -13.1875 
Q 14.5 -2 17.703125 9.0625 
Q 20.90625 20.125 20.90625 31.390625 
Q 20.90625 42.671875 17.703125 53.65625 
Q 14.5 64.65625 8.015625 75.875 
z
" id="DejaVuSans-41"/>
      </defs>
      <use xlink:href="#DejaVuSans-69"/>
      <use x="63.183594" xlink:href="#DejaVuSans-120"/>
      <use x="119.238281" xlink:href="#DejaVuSans-101"/>
      <use x="180.761719" xlink:href="#DejaVuSans-99"/>
      <use x="235.742188" xlink:href="#DejaVuSans-117"/>
      <use x="299.121094" xlink:href="#DejaVuSans-116"/>
      <use x="338.330078" xlink:href="#DejaVuSans-105"/>
      <use x="366.113281" xlink:href="#DejaVuSans-111"/>
      <use x="427.294922" xlink:href="#DejaVuSans-110"/>
      <use x="490.673828" xlink:href="#DejaVuSans-32"/>
      <use x="522.460938" xlink:href="#DejaVuSans-116"/>
      <use x="561.669922" xlink:href="#DejaVuSans-105"/>
      <use x="589.453125" xlink:href="#DejaVuSans-109"/>
      <use x="686.865234" xlink:href="#DejaVuSans-101"/>
      <use x="748.388672" xlink:href="#DejaVuSans-32"/>
      <use x="780.175781" xlink:href="#DejaVuSans-40"/>
      <use x="819.189453" xlink:href="#DejaVuSans-115"/>
      <use x="871.289062" xlink:href="#DejaVuSans-41"/>
     </g>
    </g>
   </g>
   <g id="matplotlib.axis_2">
    <g id="ytick_1">
     <g id="line2d_16">
      <defs>
       <path d="M 0 0 
L -3.5 0 
" id="m4a3e2f72e9" style="stroke:#000000;stroke-width:0.8;"/>
      </defs>
      <g>
       <use style="stroke:#000000;stroke-width:0.8;" x="57.6" xlink:href="#m4a3e2f72e9" y="295.488"/>
      </g>
     </g>
     <g id="text_4">
      <!-- 20 -->
      <g transform="translate(37.875 299.287219)scale(0.1 -0.1)">
       <use xlink:href="#DejaVuSans-50"/>
       <use x="63.623047" xlink:href="#DejaVuSans-48"/>
      </g>
     </g>
    </g>
    <g id="ytick_2">
     <g id="line2d_17">
      <g>
       <use style="stroke:#000000;stroke-width:0.8;" x="57.6" xlink:href="#m4a3e2f72e9" y="259.380537"/>
      </g>
     </g>
     <g id="text_5">
      <!-- 30 -->
      <g transform="translate(37.875 263.179756)scale(0.1 -0.1)">
       <defs>
        <path d="M 40.578125 39.3125 
Q 47.65625 37.796875 51.625 33 
Q 55.609375 28.21875 55.609375 21.1875 
Q 55.609375 10.40625 48.1875 4.484375 
Q 40.765625 -1.421875 27.09375 -1.421875 
Q 22.515625 -1.421875 17.65625 -0.515625 
Q 12.796875 0.390625 7.625 2.203125 
L 7.625 11.71875 
Q 11.71875 9.328125 16.59375 8.109375 
Q 21.484375 6.890625 26.8125 6.890625 
Q 36.078125 6.890625 40.9375 10.546875 
Q 45.796875 14.203125 45.796875 21.1875 
Q 45.796875 27.640625 41.28125 31.265625 
Q 36.765625 34.90625 28.71875 34.90625 
L 20.21875 34.90625 
L 20.21875 43.015625 
L 29.109375 43.015625 
Q 36.375 43.015625 40.234375 45.921875 
Q 44.09375 48.828125 44.09375 54.296875 
Q 44.09375 59.90625 40.109375 62.90625 
Q 36.140625 65.921875 28.71875 65.921875 
Q 24.65625 65.921875 20.015625 65.03125 
Q 15.375 64.15625 9.8125 62.3125 
L 9.8125 71.09375 
Q 15.4375 72.65625 20.34375 73.4375 
Q 25.25 74.21875 29.59375 74.21875 
Q 40.828125 74.21875 47.359375 69.109375 
Q 53.90625 64.015625 53.90625 55.328125 
Q 53.90625 49.265625 50.4375 45.09375 
Q 46.96875 40.921875 40.578125 39.3125 
z
" id="DejaVuSans-51"/>
       </defs>
       <use xlink:href="#DejaVuSans-51"/>
       <use x="63.623047" xlink:href="#DejaVuSans-48"/>
      </g>
     </g>
    </g>
    <g id="ytick_3">
     <g id="line2d_18">
      <g>
       <use style="stroke:#000000;stroke-width:0.8;" x="57.6" xlink:href="#m4a3e2f72e9" y="223.273075"/>
      </g>
     </g>
     <g id="text_6">
      <!-- 40 -->
      <g transform="translate(37.875 227.072293)scale(0.1 -0.1)">
       <defs>
        <path d="M 37.796875 64.3125 
L 12.890625 25.390625 
L 37.796875 25.390625 
z
M 35.203125 72.90625 
L 47.609375 72.90625 
L 47.609375 25.390625 
L 58.015625 25.390625 
L 58.015625 17.1875 
L 47.609375 17.1875 
L 47.609375 0 
L 37.796875 0 
L 37.796875 17.1875 
L 4.890625 17.1875 
L 4.890625 26.703125 
z
" id="DejaVuSans-52"/>
       </defs>
       <use xlink:href="#DejaVuSans-52"/>
       <use x="63.623047" xlink:href="#DejaVuSans-48"/>
      </g>
     </g>
    </g>
    <g id="ytick_4">
     <g id="line2d_19">
      <g>
       <use style="stroke:#000000;stroke-width:0.8;" x="57.6" xlink:href="#m4a3e2f72e9" y="187.165612"/>
      </g>
     </g>
     <g id="text_7">
      <!-- 50 -->
      <g transform="translate(37.875 190.964831)scale(0.1 -0.1)">
       <defs>
        <path d="M 10.796875 72.90625 
L 49.515625 72.90625 
L 49.515625 64.59375 
L 19.828125 64.59375 
L 19.828125 46.734375 
Q 21.96875 47.46875 24.109375 47.828125 
Q 26.265625 48.1875 28.421875 48.1875 
Q 40.625 48.1875 47.75 41.5 
Q 54.890625 34.8125 54.890625 23.390625 
Q 54.890625 11.625 47.5625 5.09375 
Q 40.234375 -1.421875 26.90625 -1.421875 
Q 22.3125 -1.421875 17.546875 -0.640625 
Q 12.796875 0.140625 7.71875 1.703125 
L 7.71875 11.625 
Q 12.109375 9.234375 16.796875 8.0625 
Q 21.484375 6.890625 26.703125 6.890625 
Q 35.15625 6.890625 40.078125 11.328125 
Q 45.015625 15.765625 45.015625 23.390625 
Q 45.015625 31 40.078125 35.4375 
Q 35.15625 39.890625 26.703125 39.890625 
Q 22.75 39.890625 18.8125 39.015625 
Q 14.890625 38.140625 10.796875 36.28125 
z
" id="DejaVuSans-53"/>
       </defs>
       <use xlink:href="#DejaVuSans-53"/>
       <use x="63.623047" xlink:href="#DejaVuSans-48"/>
      </g>
     </g>
    </g>
    <g id="ytick_5">
     <g id="line2d_20">
      <g>
       <use style="stroke:#000000;stroke-width:0.8;" x="57.6" xlink:href="#m4a3e2f72e9" y="151.058149"/>
      </g>
     </g>
     <g id="text_8">
      <!-- 60 -->
      <g transform="translate(37.875 154.857368)scale(0.1 -0.1)">
       <defs>
        <path d="M 33.015625 40.375 
Q 26.375 40.375 22.484375 35.828125 
Q 18.609375 31.296875 18.609375 23.390625 
Q 18.609375 15.53125 22.484375 10.953125 
Q 26.375 6.390625 33.015625 6.390625 
Q 39.65625 6.390625 43.53125 10.953125 
Q 47.40625 15.53125 47.40625 23.390625 
Q 47.40625 31.296875 43.53125 35.828125 
Q 39.65625 40.375 33.015625 40.375 
z
M 52.59375 71.296875 
L 52.59375 62.3125 
Q 48.875 64.0625 45.09375 64.984375 
Q 41.3125 65.921875 37.59375 65.921875 
Q 27.828125 65.921875 22.671875 59.328125 
Q 17.53125 52.734375 16.796875 39.40625 
Q 19.671875 43.65625 24.015625 45.921875 
Q 28.375 48.1875 33.59375 48.1875 
Q 44.578125 48.1875 50.953125 41.515625 
Q 57.328125 34.859375 57.328125 23.390625 
Q 57.328125 12.15625 50.6875 5.359375 
Q 44.046875 -1.421875 33.015625 -1.421875 
Q 20.359375 -1.421875 13.671875 8.265625 
Q 6.984375 17.96875 6.984375 36.375 
Q 6.984375 53.65625 15.1875 63.9375 
Q 23.390625 74.21875 37.203125 74.21875 
Q 40.921875 74.21875 44.703125 73.484375 
Q 48.484375 72.75 52.59375 71.296875 
z
" id="DejaVuSans-54"/>
       </defs>
       <use xlink:href="#DejaVuSans-54"/>
       <use x="63.623047" xlink:href="#DejaVuSans-48"/>
      </g>
     </g>
    </g>
    <g id="ytick_6">
     <g id="line2d_21">
      <g>
       <use style="stroke:#000000;stroke-width:0.8;" x="57.6" xlink:href="#m4a3e2f72e9" y="114.950687"/>
      </g>
     </g>
     <g id="text_9">
      <!-- 70 -->
      <g transform="translate(37.875 118.749905)scale(0.1 -0.1)">
       <defs>
        <path d="M 8.203125 72.90625 
L 55.078125 72.90625 
L 55.078125 68.703125 
L 28.609375 0 
L 18.3125 0 
L 43.21875 64.59375 
L 8.203125 64.59375 
z
" id="DejaVuSans-55"/>
       </defs>
       <use xlink:href="#DejaVuSans-55"/>
       <use x="63.623047" xlink:href="#DejaVuSans-48"/>
      </g>
     </g>
    </g>
    <g id="ytick_7">
     <g id="line2d_22">
      <g>
       <use style="stroke:#000000;stroke-width:0.8;" x="57.6" xlink:href="#m4a3e2f72e9" y="78.843224"/>
      </g>
     </g>
     <g id="text_10">
      <!-- 80 -->
      <g transform="translate(37.875 82.642443)scale(0.1 -0.1)">
       <defs>
        <path d="M 31.78125 34.625 
Q 24.75 34.625 20.71875 30.859375 
Q 16.703125 27.09375 16.703125 20.515625 
Q 16.703125 13.921875 20.71875 10.15625 
Q 24.75 6.390625 31.78125 6.390625 
Q 38.8125 6.390625 42.859375 10.171875 
Q 46.921875 13.96875 46.921875 20.515625 
Q 46.921875 27.09375 42.890625 30.859375 
Q 38.875 34.625 31.78125 34.625 
z
M 21.921875 38.8125 
Q 15.578125 40.375 12.03125 44.71875 
Q 8.5 49.078125 8.5 55.328125 
Q 8.5 64.0625 14.71875 69.140625 
Q 20.953125 74.21875 31.78125 74.21875 
Q 42.671875 74.21875 48.875 69.140625 
Q 55.078125 64.0625 55.078125 55.328125 
Q 55.078125 49.078125 51.53125 44.71875 
Q 48 40.375 41.703125 38.8125 
Q 48.828125 37.15625 52.796875 32.3125 
Q 56.78125 27.484375 56.78125 20.515625 
Q 56.78125 9.90625 50.3125 4.234375 
Q 43.84375 -1.421875 31.78125 -1.421875 
Q 19.734375 -1.421875 13.25 4.234375 
Q 6.78125 9.90625 6.78125 20.515625 
Q 6.78125 27.484375 10.78125 32.3125 
Q 14.796875 37.15625 21.921875 38.8125 
z
M 18.3125 54.390625 
Q 18.3125 48.734375 21.84375 45.5625 
Q 25.390625 42.390625 31.78125 42.390625 
Q 38.140625 42.390625 41.71875 45.5625 
Q 45.3125 48.734375 45.3125 54.390625 
Q 45.3125 60.0625 41.71875 63.234375 
Q 38.140625 66.40625 31.78125 66.40625 
Q 25.390625 66.40625 21.84375 63.234375 
Q 18.3125 60.0625 18.3125 54.390625 
z
" id="DejaVuSans-56"/>
       </defs>
       <use xlink:href="#DejaVuSans-56"/>
       <use x="63.623047" xlink:href="#DejaVuSans-48"/>
      </g>
     </g>
    </g>
    <g id="ytick_8">
     <g id="line2d_23">
      <g>
       <use style="stroke:#000000;stroke-width:0.8;" x="57.6" xlink:href="#m4a3e2f72e9" y="42.735761"/>
      </g>
     </g>
     <g id="text_11">
      <!-- 90 -->
      <g transform="translate(37.875 46.53498)scale(0.1 -0.1)">
       <defs>
        <path d="M 10.984375 1.515625 
L 10.984375 10.5 
Q 14.703125 8.734375 18.5 7.8125 
Q 22.3125 6.890625 25.984375 6.890625 
Q 35.75 6.890625 40.890625 13.453125 
Q 46.046875 20.015625 46.78125 33.40625 
Q 43.953125 29.203125 39.59375 26.953125 
Q 35.25 24.703125 29.984375 24.703125 
Q 19.046875 24.703125 12.671875 31.3125 
Q 6.296875 37.9375 6.296875 49.421875 
Q 6.296875 60.640625 12.9375 67.421875 
Q 19.578125 74.21875 30.609375 74.21875 
Q 43.265625 74.21875 49.921875 64.515625 
Q 56.59375 54.828125 56.59375 36.375 
Q 56.59375 19.140625 48.40625 8.859375 
Q 40.234375 -1.421875 26.421875 -1.421875 
Q 22.703125 -1.421875 18.890625 -0.6875 
Q 15.09375 0.046875 10.984375 1.515625 
z
M 30.609375 32.421875 
Q 37.25 32.421875 41.125 36.953125 
Q 45.015625 41.5 45.015625 49.421875 
Q 45.015625 57.28125 41.125 61.84375 
Q 37.25 66.40625 30.609375 66.40625 
Q 23.96875 66.40625 20.09375 61.84375 
Q 16.21875 57.28125 16.21875 49.421875 
Q 16.21875 41.5 20.09375 36.953125 
Q 23.96875 32.421875 30.609375 32.421875 
z
" id="DejaVuSans-57"/>
       </defs>
       <use xlink:href="#DejaVuSans-57"/>
       <use x="63.623047" xlink:href="#DejaVuSans-48"/>
      </g>
     </g>
    </g>
    <g id="text_12">
     <!-- Number of core species -->
     <g transform="translate(31.795312 233.703781)rotate(-90)scale(0.1 -0.1)">
      <defs>
       <path d="M 9.8125 72.90625 
L 23.09375 72.90625 
L 55.421875 11.921875 
L 55.421875 72.90625 
L 64.984375 72.90625 
L 64.984375 0 
L 51.703125 0 
L 19.390625 60.984375 
L 19.390625 0 
L 9.8125 0 
z
" id="DejaVuSans-78"/>
       <path d="M 48.6875 27.296875 
Q 48.6875 37.203125 44.609375 42.84375 
Q 40.53125 48.484375 33.40625 48.484375 
Q 26.265625 48.484375 22.1875 42.84375 
Q 18.109375 37.203125 18.109375 27.296875 
Q 18.109375 17.390625 22.1875 11.75 
Q 26.265625 6.109375 33.40625 6.109375 
Q 40.53125 6.109375 44.609375 11.75 
Q 48.6875 17.390625 48.6875 27.296875 
z
M 18.109375 46.390625 
Q 20.953125 51.265625 25.265625 53.625 
Q 29.59375 56 35.59375 56 
Q 45.5625 56 51.78125 48.09375 
Q 58.015625 40.1875 58.015625 27.296875 
Q 58.015625 14.40625 51.78125 6.484375 
Q 45.5625 -1.421875 35.59375 -1.421875 
Q 29.59375 -1.421875 25.265625 0.953125 
Q 20.953125 3.328125 18.109375 8.203125 
L 18.109375 0 
L 9.078125 0 
L 9.078125 75.984375 
L 18.109375 75.984375 
z
" id="DejaVuSans-98"/>
       <path d="M 41.109375 46.296875 
Q 39.59375 47.171875 37.8125 47.578125 
Q 36.03125 48 33.890625 48 
Q 26.265625 48 22.1875 43.046875 
Q 18.109375 38.09375 18.109375 28.8125 
L 18.109375 0 
L 9.078125 0 
L 9.078125 54.6875 
L 18.109375 54.6875 
L 18.109375 46.1875 
Q 20.953125 51.171875 25.484375 53.578125 
Q 30.03125 56 36.53125 56 
Q 37.453125 56 38.578125 55.875 
Q 39.703125 55.765625 41.0625 55.515625 
z
" id="DejaVuSans-114"/>
       <path d="M 37.109375 75.984375 
L 37.109375 68.5 
L 28.515625 68.5 
Q 23.6875 68.5 21.796875 66.546875 
Q 19.921875 64.59375 19.921875 59.515625 
L 19.921875 54.6875 
L 34.71875 54.6875 
L 34.71875 47.703125 
L 19.921875 47.703125 
L 19.921875 0 
L 10.890625 0 
L 10.890625 47.703125 
L 2.296875 47.703125 
L 2.296875 54.6875 
L 10.890625 54.6875 
L 10.890625 58.5 
Q 10.890625 67.625 15.140625 71.796875 
Q 19.390625 75.984375 28.609375 75.984375 
z
" id="DejaVuSans-102"/>
       <path d="M 18.109375 8.203125 
L 18.109375 -20.796875 
L 9.078125 -20.796875 
L 9.078125 54.6875 
L 18.109375 54.6875 
L 18.109375 46.390625 
Q 20.953125 51.265625 25.265625 53.625 
Q 29.59375 56 35.59375 56 
Q 45.5625 56 51.78125 48.09375 
Q 58.015625 40.1875 58.015625 27.296875 
Q 58.015625 14.40625 51.78125 6.484375 
Q 45.5625 -1.421875 35.59375 -1.421875 
Q 29.59375 -1.421875 25.265625 0.953125 
Q 20.953125 3.328125 18.109375 8.203125 
z
M 48.6875 27.296875 
Q 48.6875 37.203125 44.609375 42.84375 
Q 40.53125 48.484375 33.40625 48.484375 
Q 26.265625 48.484375 22.1875 42.84375 
Q 18.109375 37.203125 18.109375 27.296875 
Q 18.109375 17.390625 22.1875 11.75 
Q 26.265625 6.109375 33.40625 6.109375 
Q 40.53125 6.109375 44.609375 11.75 
Q 48.6875 17.390625 48.6875 27.296875 
z
" id="DejaVuSans-112"/>
      </defs>
      <use xlink:href="#DejaVuSans-78"/>
      <use x="74.804688" xlink:href="#DejaVuSans-117"/>
      <use x="138.183594" xlink:href="#DejaVuSans-109"/>
      <use x="235.595703" xlink:href="#DejaVuSans-98"/>
      <use x="299.072266" xlink:href="#DejaVuSans-101"/>
      <use x="360.595703" xlink:href="#DejaVuSans-114"/>
      <use x="401.708984" xlink:href="#DejaVuSans-32"/>
      <use x="433.496094" xlink:href="#DejaVuSans-111"/>
      <use x="494.677734" xlink:href="#DejaVuSans-102"/>
      <use x="529.882812" xlink:href="#DejaVuSans-32"/>
      <use x="561.669922" xlink:href="#DejaVuSans-99"/>
      <use x="616.650391" xlink:href="#DejaVuSans-111"/>
      <use x="677.832031" xlink:href="#DejaVuSans-114"/>
      <use x="716.695312" xlink:href="#DejaVuSans-101"/>
      <use x="778.21875" xlink:href="#DejaVuSans-32"/>
      <use x="810.005859" xlink:href="#DejaVuSans-115"/>
      <use x="862.105469" xlink:href="#DejaVuSans-112"/>
      <use x="925.582031" xlink:href="#DejaVuSans-101"/>
      <use x="987.105469" xlink:href="#DejaVuSans-99"/>
      <use x="1042.085938" xlink:href="#DejaVuSans-105"/>
      <use x="1069.869141" xlink:href="#DejaVuSans-101"/>
      <use x="1131.392578" xlink:href="#DejaVuSans-115"/>
     </g>
    </g>
   </g>
   <g id="line2d_24">
    <path clip-path="url(#p9853f8e029)" d="M 73.832727 295.488 
L 89.980328 291.877254 
L 105.198082 288.266507 
L 117.262947 284.655761 
L 129.91719 281.045015 
L 138.683447 277.434269 
L 147.062885 273.823522 
L 154.554756 270.212776 
L 163.151388 266.60203 
L 170.696199 262.991284 
L 175.776588 259.380537 
L 181.547357 255.769791 
L 188.428706 252.159045 
L 193.273452 248.548299 
L 198.82896 244.937552 
L 205.056148 241.326806 
L 209.869643 237.71606 
L 214.521559 234.105313 
L 218.956549 230.494567 
L 223.758831 226.883821 
L 228.731947 223.273075 
L 233.604172 219.662328 
L 238.164183 216.051582 
L 242.683377 212.440836 
L 246.845299 208.83009 
L 251.342663 205.219343 
L 256.650717 201.608597 
L 260.867471 197.997851 
L 264.285076 194.387104 
L 267.418577 190.776358 
L 271.04939 187.165612 
L 275.555223 183.554866 
L 280.076891 179.944119 
L 283.431987 176.333373 
L 286.961417 172.722627 
L 290.986591 169.111881 
L 295.008747 165.501134 
L 299.046937 161.890388 
L 302.155229 158.279642 
L 305.131013 154.668896 
L 308.256226 151.058149 
L 311.164827 147.447403 
L 314.635073 143.836657 
L 317.71842 140.22591 
L 321.54031 136.615164 
L 325.895931 133.004418 
L 328.878839 129.393672 
L 332.20278 125.782925 
L 335.376133 122.172179 
L 338.71635 118.561433 
L 342.924415 114.950687 
L 345.673247 111.33994 
L 348.214203 107.729194 
L 351.37419 104.118448 
L 356.165844 100.507701 
L 359.574747 96.896955 
L 362.485093 93.286209 
L 367.347964 89.675463 
L 371.404978 86.064716 
L 375.006313 82.45397 
L 378.744434 78.843224 
L 381.272556 75.232478 
L 384.377863 71.621731 
L 386.755056 68.010985 
L 389.815279 64.400239 
L 392.768992 60.789493 
L 395.729157 57.178746 
L 398.487273 53.568 
" style="fill:none;stroke:#0000ff;stroke-linecap:square;stroke-width:1.5;"/>
    <defs>
     <path d="M 0 3 
C 0.795609 3 1.55874 2.683901 2.12132 2.12132 
C 2.683901 1.55874 3 0.795609 3 0 
C 3 -0.795609 2.683901 -1.55874 2.12132 -2.12132 
C 1.55874 -2.683901 0.795609 -3 0 -3 
C -0.795609 -3 -1.55874 -2.683901 -2.12132 -2.12132 
C -2.683901 -1.55874 -3 -0.795609 -3 0 
C -3 0.795609 -2.683901 1.55874 -2.12132 2.12132 
C -1.55874 2.683901 -0.795609 3 0 3 
z
" id="mb9f066a0bf" style="stroke:#0000ff;"/>
    </defs>
    <g clip-path="url(#p9853f8e029)">
     <use style="fill:#0000ff;stroke:#0000ff;" x="73.832727" xlink:href="#mb9f066a0bf" y="295.488"/>
     <use style="fill:#0000ff;stroke:#0000ff;" x="89.980328" xlink:href="#mb9f066a0bf" y="291.877254"/>
     <use style="fill:#0000ff;stroke:#0000ff;" x="105.198082" xlink:href="#mb9f066a0bf" y="288.266507"/>
     <use style="fill:#0000ff;stroke:#0000ff;" x="117.262947" xlink:href="#mb9f066a0bf" y="284.655761"/>
     <use style="fill:#0000ff;stroke:#0000ff;" x="129.91719" xlink:href="#mb9f066a0bf" y="281.045015"/>
     <use style="fill:#0000ff;stroke:#0000ff;" x="138.683447" xlink:href="#mb9f066a0bf" y="277.434269"/>
     <use style="fill:#0000ff;stroke:#0000ff;" x="147.062885" xlink:href="#mb9f066a0bf" y="273.823522"/>
     <use style="fill:#0000ff;stroke:#0000ff;" x="154.554756" xlink:href="#mb9f066a0bf" y="270.212776"/>
     <use style="fill:#0000ff;stroke:#0000ff;" x="163.151388" xlink:href="#mb9f066a0bf" y="266.60203"/>
     <use style="fill:#0000ff;stroke:#0000ff;" x="170.696199" xlink:href="#mb9f066a0bf" y="262.991284"/>
     <use style="fill:#0000ff;stroke:#0000ff;" x="175.776588" xlink:href="#mb9f066a0bf" y="259.380537"/>
     <use style="fill:#0000ff;stroke:#0000ff;" x="181.547357" xlink:href="#mb9f066a0bf" y="255.769791"/>
     <use style="fill:#0000ff;stroke:#0000ff;" x="188.428706" xlink:href="#mb9f066a0bf" y="252.159045"/>
     <use style="fill:#0000ff;stroke:#0000ff;" x="193.273452" xlink:href="#mb9f066a0bf" y="248.548299"/>
     <use style="fill:#0000ff;stroke:#0000ff;" x="198.82896" xlink:href="#mb9f066a0bf" y="244.937552"/>
     <use style="fill:#0000ff;stroke:#0000ff;" x="205.056148" xlink:href="#mb9f066a0bf" y="241.326806"/>
     <use style="fill:#0000ff;stroke:#0000ff;" x="209.869643" xlink:href="#mb9f066a0bf" y="237.71606"/>
     <use style="fill:#0000ff;stroke:#0000ff;" x="214.521559" xlink:href="#mb9f066a0bf" y="234.105313"/>
     <use style="fill:#0000ff;stroke:#0000ff;" x="218.956549" xlink:href="#mb9f066a0bf" y="230.494567"/>
     <use style="fill:#0000ff;stroke:#0000ff;" x="223.758831" xlink:href="#mb9f066a0bf" y="226.883821"/>
     <use style="fill:#0000ff;stroke:#0000ff;" x="228.731947" xlink:href="#mb9f066a0bf" y="223.273075"/>
     <use style="fill:#0000ff;stroke:#0000ff;" x="233.604172" xlink:href="#mb9f066a0bf" y="219.662328"/>
     <use style="fill:#0000ff;stroke:#0000ff;" x="238.164183" xlink:href="#mb9f066a0bf" y="216.051582"/>
     <use style="fill:#0000ff;stroke:#0000ff;" x="242.683377" xlink:href="#mb9f066a0bf" y="212.440836"/>
     <use style="fill:#0000ff;stroke:#0000ff;" x="246.845299" xlink:href="#mb9f066a0bf" y="208.83009"/>
     <use style="fill:#0000ff;stroke:#0000ff;" x="251.342663" xlink:href="#mb9f066a0bf" y="205.219343"/>
     <use style="fill:#0000ff;stroke:#0000ff;" x="256.650717" xlink:href="#mb9f066a0bf" y="201.608597"/>
     <use style="fill:#0000ff;stroke:#0000ff;" x="260.867471" xlink:href="#mb9f066a0bf" y="197.997851"/>
     <use style="fill:#0000ff;stroke:#0000ff;" x="264.285076" xlink:href="#mb9f066a0bf" y="194.387104"/>
     <use style="fill:#0000ff;stroke:#0000ff;" x="267.418577" xlink:href="#mb9f066a0bf" y="190.776358"/>
     <use style="fill:#0000ff;stroke:#0000ff;" x="271.04939" xlink:href="#mb9f066a0bf" y="187.165612"/>
     <use style="fill:#0000ff;stroke:#0000ff;" x="275.555223" xlink:href="#mb9f066a0bf" y="183.554866"/>
     <use style="fill:#0000ff;stroke:#0000ff;" x="280.076891" xlink:href="#mb9f066a0bf" y="179.944119"/>
     <use style="fill:#0000ff;stroke:#0000ff;" x="283.431987" xlink:href="#mb9f066a0bf" y="176.333373"/>
     <use style="fill:#0000ff;stroke:#0000ff;" x="286.961417" xlink:href="#mb9f066a0bf" y="172.722627"/>
     <use style="fill:#0000ff;stroke:#0000ff;" x="290.986591" xlink:href="#mb9f066a0bf" y="169.111881"/>
     <use style="fill:#0000ff;stroke:#0000ff;" x="295.008747" xlink:href="#mb9f066a0bf" y="165.501134"/>
     <use style="fill:#0000ff;stroke:#0000ff;" x="299.046937" xlink:href="#mb9f066a0bf" y="161.890388"/>
     <use style="fill:#0000ff;stroke:#0000ff;" x="302.155229" xlink:href="#mb9f066a0bf" y="158.279642"/>
     <use style="fill:#0000ff;stroke:#0000ff;" x="305.131013" xlink:href="#mb9f066a0bf" y="154.668896"/>
     <use style="fill:#0000ff;stroke:#0000ff;" x="308.256226" xlink:href="#mb9f066a0bf" y="151.058149"/>
     <use style="fill:#0000ff;stroke:#0000ff;" x="311.164827" xlink:href="#mb9f066a0bf" y="147.447403"/>
     <use style="fill:#0000ff;stroke:#0000ff;" x="314.635073" xlink:href="#mb9f066a0bf" y="143.836657"/>
     <use style="fill:#0000ff;stroke:#0000ff;" x="317.71842" xlink:href="#mb9f066a0bf" y="140.22591"/>
     <use style="fill:#0000ff;stroke:#0000ff;" x="321.54031" xlink:href="#mb9f066a0bf" y="136.615164"/>
     <use style="fill:#0000ff;stroke:#0000ff;" x="325.895931" xlink:href="#mb9f066a0bf" y="133.004418"/>
     <use style="fill:#0000ff;stroke:#0000ff;" x="328.878839" xlink:href="#mb9f066a0bf" y="129.393672"/>
     <use style="fill:#0000ff;stroke:#0000ff;" x="332.20278" xlink:href="#mb9f066a0bf" y="125.782925"/>
     <use style="fill:#0000ff;stroke:#0000ff;" x="335.376133" xlink:href="#mb9f066a0bf" y="122.172179"/>
     <use style="fill:#0000ff;stroke:#0000ff;" x="338.71635" xlink:href="#mb9f066a0bf" y="118.561433"/>
     <use style="fill:#0000ff;stroke:#0000ff;" x="342.924415" xlink:href="#mb9f066a0bf" y="114.950687"/>
     <use style="fill:#0000ff;stroke:#0000ff;" x="345.673247" xlink:href="#mb9f066a0bf" y="111.33994"/>
     <use style="fill:#0000ff;stroke:#0000ff;" x="348.214203" xlink:href="#mb9f066a0bf" y="107.729194"/>
     <use style="fill:#0000ff;stroke:#0000ff;" x="351.37419" xlink:href="#mb9f066a0bf" y="104.118448"/>
     <use style="fill:#0000ff;stroke:#0000ff;" x="356.165844" xlink:href="#mb9f066a0bf" y="100.507701"/>
     <use style="fill:#0000ff;stroke:#0000ff;" x="359.574747" xlink:href="#mb9f066a0bf" y="96.896955"/>
     <use style="fill:#0000ff;stroke:#0000ff;" x="362.485093" xlink:href="#mb9f066a0bf" y="93.286209"/>
     <use style="fill:#0000ff;stroke:#0000ff;" x="367.347964" xlink:href="#mb9f066a0bf" y="89.675463"/>
     <use style="fill:#0000ff;stroke:#0000ff;" x="371.404978" xlink:href="#mb9f066a0bf" y="86.064716"/>
     <use style="fill:#0000ff;stroke:#0000ff;" x="375.006313" xlink:href="#mb9f066a0bf" y="82.45397"/>
     <use style="fill:#0000ff;stroke:#0000ff;" x="378.744434" xlink:href="#mb9f066a0bf" y="78.843224"/>
     <use style="fill:#0000ff;stroke:#0000ff;" x="381.272556" xlink:href="#mb9f066a0bf" y="75.232478"/>
     <use style="fill:#0000ff;stroke:#0000ff;" x="384.377863" xlink:href="#mb9f066a0bf" y="71.621731"/>
     <use style="fill:#0000ff;stroke:#0000ff;" x="386.755056" xlink:href="#mb9f066a0bf" y="68.010985"/>
     <use style="fill:#0000ff;stroke:#0000ff;" x="389.815279" xlink:href="#mb9f066a0bf" y="64.400239"/>
     <use style="fill:#0000ff;stroke:#0000ff;" x="392.768992" xlink:href="#mb9f066a0bf" y="60.789493"/>
     <use style="fill:#0000ff;stroke:#0000ff;" x="395.729157" xlink:href="#mb9f066a0bf" y="57.178746"/>
     <use style="fill:#0000ff;stroke:#0000ff;" x="398.487273" xlink:href="#mb9f066a0bf" y="53.568"/>
    </g>
   </g>
   <g id="patch_3">
    <path d="M 57.6 307.584 
L 57.6 41.472 
" style="fill:none;stroke:#000000;stroke-linecap:square;stroke-linejoin:miter;stroke-width:0.8;"/>
   </g>
   <g id="patch_4">
    <path d="M 414.72 307.584 
L 414.72 41.472 
" style="fill:none;stroke:#000000;stroke-linecap:square;stroke-linejoin:miter;stroke-width:0.8;"/>
   </g>
   <g id="patch_5">
    <path d="M 57.6 307.584 
L 414.72 307.584 
" style="fill:none;stroke:#000000;stroke-linecap:square;stroke-linejoin:miter;stroke-width:0.8;"/>
   </g>
   <g id="patch_6">
    <path d="M 57.6 41.472 
L 414.72 41.472 
" style="fill:none;stroke:#000000;stroke-linecap:square;stroke-linejoin:miter;stroke-width:0.8;"/>
   </g>
  </g>
  <g id="axes_2">
   <g id="matplotlib.axis_3">
    <g id="ytick_9">
     <g id="line2d_25">
      <defs>
       <path d="M 0 0 
L 3.5 0 
" id="mf455b07982" style="stroke:#000000;stroke-width:0.8;"/>
      </defs>
      <g>
       <use style="stroke:#000000;stroke-width:0.8;" x="414.72" xlink:href="#mf455b07982" y="302.352926"/>
      </g>
     </g>
     <g id="text_13">
      <!-- 0 -->
      <g transform="translate(421.72 306.152145)scale(0.1 -0.1)">
       <use xlink:href="#DejaVuSans-48"/>
      </g>
     </g>
    </g>
    <g id="ytick_10">
     <g id="line2d_26">
      <g>
       <use style="stroke:#000000;stroke-width:0.8;" x="414.72" xlink:href="#mf455b07982" y="247.433516"/>
      </g>
     </g>
     <g id="text_14">
      <!-- 200 -->
      <g transform="translate(421.72 251.232735)scale(0.1 -0.1)">
       <use xlink:href="#DejaVuSans-50"/>
       <use x="63.623047" xlink:href="#DejaVuSans-48"/>
       <use x="127.246094" xlink:href="#DejaVuSans-48"/>
      </g>
     </g>
    </g>
    <g id="ytick_11">
     <g id="line2d_27">
      <g>
       <use style="stroke:#000000;stroke-width:0.8;" x="414.72" xlink:href="#mf455b07982" y="192.514107"/>
      </g>
     </g>
     <g id="text_15">
      <!-- 400 -->
      <g transform="translate(421.72 196.313325)scale(0.1 -0.1)">
       <use xlink:href="#DejaVuSans-52"/>
       <use x="63.623047" xlink:href="#DejaVuSans-48"/>
       <use x="127.246094" xlink:href="#DejaVuSans-48"/>
      </g>
     </g>
    </g>
    <g id="ytick_12">
     <g id="line2d_28">
      <g>
       <use style="stroke:#000000;stroke-width:0.8;" x="414.72" xlink:href="#mf455b07982" y="137.594697"/>
      </g>
     </g>
     <g id="text_16">
      <!-- 600 -->
      <g transform="translate(421.72 141.393916)scale(0.1 -0.1)">
       <use xlink:href="#DejaVuSans-54"/>
       <use x="63.623047" xlink:href="#DejaVuSans-48"/>
       <use x="127.246094" xlink:href="#DejaVuSans-48"/>
      </g>
     </g>
    </g>
    <g id="ytick_13">
     <g id="line2d_29">
      <g>
       <use style="stroke:#000000;stroke-width:0.8;" x="414.72" xlink:href="#mf455b07982" y="82.675287"/>
      </g>
     </g>
     <g id="text_17">
      <!-- 800 -->
      <g transform="translate(421.72 86.474506)scale(0.1 -0.1)">
       <use xlink:href="#DejaVuSans-56"/>
       <use x="63.623047" xlink:href="#DejaVuSans-48"/>
       <use x="127.246094" xlink:href="#DejaVuSans-48"/>
      </g>
     </g>
    </g>
    <g id="text_18">
     <!-- Number of core reactions -->
     <g transform="translate(452.405937 238.043625)rotate(-90)scale(0.1 -0.1)">
      <defs>
       <path d="M 34.28125 27.484375 
Q 23.390625 27.484375 19.1875 25 
Q 14.984375 22.515625 14.984375 16.5 
Q 14.984375 11.71875 18.140625 8.90625 
Q 21.296875 6.109375 26.703125 6.109375 
Q 34.1875 6.109375 38.703125 11.40625 
Q 43.21875 16.703125 43.21875 25.484375 
L 43.21875 27.484375 
z
M 52.203125 31.203125 
L 52.203125 0 
L 43.21875 0 
L 43.21875 8.296875 
Q 40.140625 3.328125 35.546875 0.953125 
Q 30.953125 -1.421875 24.3125 -1.421875 
Q 15.921875 -1.421875 10.953125 3.296875 
Q 6 8.015625 6 15.921875 
Q 6 25.140625 12.171875 29.828125 
Q 18.359375 34.515625 30.609375 34.515625 
L 43.21875 34.515625 
L 43.21875 35.40625 
Q 43.21875 41.609375 39.140625 45 
Q 35.0625 48.390625 27.6875 48.390625 
Q 23 48.390625 18.546875 47.265625 
Q 14.109375 46.140625 10.015625 43.890625 
L 10.015625 52.203125 
Q 14.9375 54.109375 19.578125 55.046875 
Q 24.21875 56 28.609375 56 
Q 40.484375 56 46.34375 49.84375 
Q 52.203125 43.703125 52.203125 31.203125 
z
" id="DejaVuSans-97"/>
      </defs>
      <use xlink:href="#DejaVuSans-78"/>
      <use x="74.804688" xlink:href="#DejaVuSans-117"/>
      <use x="138.183594" xlink:href="#DejaVuSans-109"/>
      <use x="235.595703" xlink:href="#DejaVuSans-98"/>
      <use x="299.072266" xlink:href="#DejaVuSans-101"/>
      <use x="360.595703" xlink:href="#DejaVuSans-114"/>
      <use x="401.708984" xlink:href="#DejaVuSans-32"/>
      <use x="433.496094" xlink:href="#DejaVuSans-111"/>
      <use x="494.677734" xlink:href="#DejaVuSans-102"/>
      <use x="529.882812" xlink:href="#DejaVuSans-32"/>
      <use x="561.669922" xlink:href="#DejaVuSans-99"/>
      <use x="616.650391" xlink:href="#DejaVuSans-111"/>
      <use x="677.832031" xlink:href="#DejaVuSans-114"/>
      <use x="716.695312" xlink:href="#DejaVuSans-101"/>
      <use x="778.21875" xlink:href="#DejaVuSans-32"/>
      <use x="810.005859" xlink:href="#DejaVuSans-114"/>
      <use x="848.869141" xlink:href="#DejaVuSans-101"/>
      <use x="910.392578" xlink:href="#DejaVuSans-97"/>
      <use x="971.671875" xlink:href="#DejaVuSans-99"/>
      <use x="1026.652344" xlink:href="#DejaVuSans-116"/>
      <use x="1065.861328" xlink:href="#DejaVuSans-105"/>
      <use x="1093.644531" xlink:href="#DejaVuSans-111"/>
      <use x="1154.826172" xlink:href="#DejaVuSans-110"/>
      <use x="1218.205078" xlink:href="#DejaVuSans-115"/>
     </g>
    </g>
   </g>
   <g id="line2d_30">
    <path clip-path="url(#p9853f8e029)" d="M 73.832727 295.488 
L 89.980328 294.938806 
L 105.198082 294.389612 
L 117.262947 294.115015 
L 129.91719 292.467432 
L 138.683447 292.192835 
L 147.062885 291.369044 
L 154.554756 289.996059 
L 163.151388 286.975491 
L 170.696199 282.856536 
L 175.776588 281.758148 
L 181.547357 278.188386 
L 188.428706 274.06943 
L 193.273452 273.520236 
L 198.82896 268.577489 
L 205.056148 268.028295 
L 209.869643 262.536354 
L 214.521559 261.98716 
L 218.956549 261.163369 
L 223.758831 259.24119 
L 228.731947 258.966593 
L 233.604172 254.57304 
L 238.164183 251.827069 
L 242.683377 249.355696 
L 246.845299 248.806502 
L 251.342663 245.23674 
L 256.650717 240.019396 
L 260.867471 236.175037 
L 264.285076 235.076649 
L 267.418577 233.429067 
L 271.04939 230.683096 
L 275.555223 223.81817 
L 280.076891 216.953244 
L 283.431987 216.40405 
L 286.961417 215.580259 
L 290.986591 202.674198 
L 295.008747 195.809271 
L 299.046937 189.493539 
L 302.155229 187.022166 
L 305.131013 186.472972 
L 308.256226 178.784254 
L 311.164827 178.23506 
L 314.635073 170.271746 
L 317.71842 169.447955 
L 321.54031 161.48464 
L 325.895931 155.992699 
L 328.878839 155.443505 
L 332.20278 154.345117 
L 335.376133 153.795923 
L 338.71635 141.713653 
L 342.924415 134.848726 
L 345.673247 134.299532 
L 348.214203 133.475741 
L 351.37419 115.352336 
L 356.165844 114.253948 
L 359.574747 103.81926 
L 362.485093 103.270066 
L 367.347964 95.032154 
L 371.404978 94.48296 
L 375.006313 83.224481 
L 378.744434 71.691405 
L 381.272556 71.416808 
L 384.377863 71.142211 
L 386.755056 70.867614 
L 389.815279 70.593017 
L 392.768992 60.158329 
L 395.729157 59.609135 
L 398.487273 53.568 
" style="fill:none;stroke:#ff0000;stroke-linecap:square;stroke-width:1.5;"/>
    <defs>
     <path d="M 0 3 
C 0.795609 3 1.55874 2.683901 2.12132 2.12132 
C 2.683901 1.55874 3 0.795609 3 0 
C 3 -0.795609 2.683901 -1.55874 2.12132 -2.12132 
C 1.55874 -2.683901 0.795609 -3 0 -3 
C -0.795609 -3 -1.55874 -2.683901 -2.12132 -2.12132 
C -2.683901 -1.55874 -3 -0.795609 -3 0 
C -3 0.795609 -2.683901 1.55874 -2.12132 2.12132 
C -1.55874 2.683901 -0.795609 3 0 3 
z
" id="m7e699ac3b9" style="stroke:#ff0000;"/>
    </defs>
    <g clip-path="url(#p9853f8e029)">
     <use style="fill:#ff0000;stroke:#ff0000;" x="73.832727" xlink:href="#m7e699ac3b9" y="295.488"/>
     <use style="fill:#ff0000;stroke:#ff0000;" x="89.980328" xlink:href="#m7e699ac3b9" y="294.938806"/>
     <use style="fill:#ff0000;stroke:#ff0000;" x="105.198082" xlink:href="#m7e699ac3b9" y="294.389612"/>
     <use style="fill:#ff0000;stroke:#ff0000;" x="117.262947" xlink:href="#m7e699ac3b9" y="294.115015"/>
     <use style="fill:#ff0000;stroke:#ff0000;" x="129.91719" xlink:href="#m7e699ac3b9" y="292.467432"/>
     <use style="fill:#ff0000;stroke:#ff0000;" x="138.683447" xlink:href="#m7e699ac3b9" y="292.192835"/>
     <use style="fill:#ff0000;stroke:#ff0000;" x="147.062885" xlink:href="#m7e699ac3b9" y="291.369044"/>
     <use style="fill:#ff0000;stroke:#ff0000;" x="154.554756" xlink:href="#m7e699ac3b9" y="289.996059"/>
     <use style="fill:#ff0000;stroke:#ff0000;" x="163.151388" xlink:href="#m7e699ac3b9" y="286.975491"/>
     <use style="fill:#ff0000;stroke:#ff0000;" x="170.696199" xlink:href="#m7e699ac3b9" y="282.856536"/>
     <use style="fill:#ff0000;stroke:#ff0000;" x="175.776588" xlink:href="#m7e699ac3b9" y="281.758148"/>
     <use style="fill:#ff0000;stroke:#ff0000;" x="181.547357" xlink:href="#m7e699ac3b9" y="278.188386"/>
     <use style="fill:#ff0000;stroke:#ff0000;" x="188.428706" xlink:href="#m7e699ac3b9" y="274.06943"/>
     <use style="fill:#ff0000;stroke:#ff0000;" x="193.273452" xlink:href="#m7e699ac3b9" y="273.520236"/>
     <use style="fill:#ff0000;stroke:#ff0000;" x="198.82896" xlink:href="#m7e699ac3b9" y="268.577489"/>
     <use style="fill:#ff0000;stroke:#ff0000;" x="205.056148" xlink:href="#m7e699ac3b9" y="268.028295"/>
     <use style="fill:#ff0000;stroke:#ff0000;" x="209.869643" xlink:href="#m7e699ac3b9" y="262.536354"/>
     <use style="fill:#ff0000;stroke:#ff0000;" x="214.521559" xlink:href="#m7e699ac3b9" y="261.98716"/>
     <use style="fill:#ff0000;stroke:#ff0000;" x="218.956549" xlink:href="#m7e699ac3b9" y="261.163369"/>
     <use style="fill:#ff0000;stroke:#ff0000;" x="223.758831" xlink:href="#m7e699ac3b9" y="259.24119"/>
     <use style="fill:#ff0000;stroke:#ff0000;" x="228.731947" xlink:href="#m7e699ac3b9" y="258.966593"/>
     <use style="fill:#ff0000;stroke:#ff0000;" x="233.604172" xlink:href="#m7e699ac3b9" y="254.57304"/>
     <use style="fill:#ff0000;stroke:#ff0000;" x="238.164183" xlink:href="#m7e699ac3b9" y="251.827069"/>
     <use style="fill:#ff0000;stroke:#ff0000;" x="242.683377" xlink:href="#m7e699ac3b9" y="249.355696"/>
     <use style="fill:#ff0000;stroke:#ff0000;" x="246.845299" xlink:href="#m7e699ac3b9" y="248.806502"/>
     <use style="fill:#ff0000;stroke:#ff0000;" x="251.342663" xlink:href="#m7e699ac3b9" y="245.23674"/>
     <use style="fill:#ff0000;stroke:#ff0000;" x="256.650717" xlink:href="#m7e699ac3b9" y="240.019396"/>
     <use style="fill:#ff0000;stroke:#ff0000;" x="260.867471" xlink:href="#m7e699ac3b9" y="236.175037"/>
     <use style="fill:#ff0000;stroke:#ff0000;" x="264.285076" xlink:href="#m7e699ac3b9" y="235.076649"/>
     <use style="fill:#ff0000;stroke:#ff0000;" x="267.418577" xlink:href="#m7e699ac3b9" y="233.429067"/>
     <use style="fill:#ff0000;stroke:#ff0000;" x="271.04939" xlink:href="#m7e699ac3b9" y="230.683096"/>
     <use style="fill:#ff0000;stroke:#ff0000;" x="275.555223" xlink:href="#m7e699ac3b9" y="223.81817"/>
     <use style="fill:#ff0000;stroke:#ff0000;" x="280.076891" xlink:href="#m7e699ac3b9" y="216.953244"/>
     <use style="fill:#ff0000;stroke:#ff0000;" x="283.431987" xlink:href="#m7e699ac3b9" y="216.40405"/>
     <use style="fill:#ff0000;stroke:#ff0000;" x="286.961417" xlink:href="#m7e699ac3b9" y="215.580259"/>
     <use style="fill:#ff0000;stroke:#ff0000;" x="290.986591" xlink:href="#m7e699ac3b9" y="202.674198"/>
     <use style="fill:#ff0000;stroke:#ff0000;" x="295.008747" xlink:href="#m7e699ac3b9" y="195.809271"/>
     <use style="fill:#ff0000;stroke:#ff0000;" x="299.046937" xlink:href="#m7e699ac3b9" y="189.493539"/>
     <use style="fill:#ff0000;stroke:#ff0000;" x="302.155229" xlink:href="#m7e699ac3b9" y="187.022166"/>
     <use style="fill:#ff0000;stroke:#ff0000;" x="305.131013" xlink:href="#m7e699ac3b9" y="186.472972"/>
     <use style="fill:#ff0000;stroke:#ff0000;" x="308.256226" xlink:href="#m7e699ac3b9" y="178.784254"/>
     <use style="fill:#ff0000;stroke:#ff0000;" x="311.164827" xlink:href="#m7e699ac3b9" y="178.23506"/>
     <use style="fill:#ff0000;stroke:#ff0000;" x="314.635073" xlink:href="#m7e699ac3b9" y="170.271746"/>
     <use style="fill:#ff0000;stroke:#ff0000;" x="317.71842" xlink:href="#m7e699ac3b9" y="169.447955"/>
     <use style="fill:#ff0000;stroke:#ff0000;" x="321.54031" xlink:href="#m7e699ac3b9" y="161.48464"/>
     <use style="fill:#ff0000;stroke:#ff0000;" x="325.895931" xlink:href="#m7e699ac3b9" y="155.992699"/>
     <use style="fill:#ff0000;stroke:#ff0000;" x="328.878839" xlink:href="#m7e699ac3b9" y="155.443505"/>
     <use style="fill:#ff0000;stroke:#ff0000;" x="332.20278" xlink:href="#m7e699ac3b9" y="154.345117"/>
     <use style="fill:#ff0000;stroke:#ff0000;" x="335.376133" xlink:href="#m7e699ac3b9" y="153.795923"/>
     <use style="fill:#ff0000;stroke:#ff0000;" x="338.71635" xlink:href="#m7e699ac3b9" y="141.713653"/>
     <use style="fill:#ff0000;stroke:#ff0000;" x="342.924415" xlink:href="#m7e699ac3b9" y="134.848726"/>
     <use style="fill:#ff0000;stroke:#ff0000;" x="345.673247" xlink:href="#m7e699ac3b9" y="134.299532"/>
     <use style="fill:#ff0000;stroke:#ff0000;" x="348.214203" xlink:href="#m7e699ac3b9" y="133.475741"/>
     <use style="fill:#ff0000;stroke:#ff0000;" x="351.37419" xlink:href="#m7e699ac3b9" y="115.352336"/>
     <use style="fill:#ff0000;stroke:#ff0000;" x="356.165844" xlink:href="#m7e699ac3b9" y="114.253948"/>
     <use style="fill:#ff0000;stroke:#ff0000;" x="359.574747" xlink:href="#m7e699ac3b9" y="103.81926"/>
     <use style="fill:#ff0000;stroke:#ff0000;" x="362.485093" xlink:href="#m7e699ac3b9" y="103.270066"/>
     <use style="fill:#ff0000;stroke:#ff0000;" x="367.347964" xlink:href="#m7e699ac3b9" y="95.032154"/>
     <use style="fill:#ff0000;stroke:#ff0000;" x="371.404978" xlink:href="#m7e699ac3b9" y="94.48296"/>
     <use style="fill:#ff0000;stroke:#ff0000;" x="375.006313" xlink:href="#m7e699ac3b9" y="83.224481"/>
     <use style="fill:#ff0000;stroke:#ff0000;" x="378.744434" xlink:href="#m7e699ac3b9" y="71.691405"/>
     <use style="fill:#ff0000;stroke:#ff0000;" x="381.272556" xlink:href="#m7e699ac3b9" y="71.416808"/>
     <use style="fill:#ff0000;stroke:#ff0000;" x="384.377863" xlink:href="#m7e699ac3b9" y="71.142211"/>
     <use style="fill:#ff0000;stroke:#ff0000;" x="386.755056" xlink:href="#m7e699ac3b9" y="70.867614"/>
     <use style="fill:#ff0000;stroke:#ff0000;" x="389.815279" xlink:href="#m7e699ac3b9" y="70.593017"/>
     <use style="fill:#ff0000;stroke:#ff0000;" x="392.768992" xlink:href="#m7e699ac3b9" y="60.158329"/>
     <use style="fill:#ff0000;stroke:#ff0000;" x="395.729157" xlink:href="#m7e699ac3b9" y="59.609135"/>
     <use style="fill:#ff0000;stroke:#ff0000;" x="398.487273" xlink:href="#m7e699ac3b9" y="53.568"/>
    </g>
   </g>
   <g id="patch_7">
    <path d="M 57.6 307.584 
L 57.6 41.472 
" style="fill:none;stroke:#000000;stroke-linecap:square;stroke-linejoin:miter;stroke-width:0.8;"/>
   </g>
   <g id="patch_8">
    <path d="M 414.72 307.584 
L 414.72 41.472 
" style="fill:none;stroke:#000000;stroke-linecap:square;stroke-linejoin:miter;stroke-width:0.8;"/>
   </g>
   <g id="patch_9">
    <path d="M 57.6 307.584 
L 414.72 307.584 
" style="fill:none;stroke:#000000;stroke-linecap:square;stroke-linejoin:miter;stroke-width:0.8;"/>
   </g>
   <g id="patch_10">
    <path d="M 57.6 41.472 
L 414.72 41.472 
" style="fill:none;stroke:#000000;stroke-linecap:square;stroke-linejoin:miter;stroke-width:0.8;"/>
   </g>
  </g>
 </g>
 <defs>
  <clipPath id="p9853f8e029">
   <rect height="266.112" width="357.12" x="57.6" y="41.472"/>
  </clipPath>
 </defs>
</svg>
