<?xml version="1.0" encoding="utf-8" standalone="no"?>
<!DOCTYPE svg PUBLIC "-//W3C//DTD SVG 1.1//EN"
  "http://www.w3.org/Graphics/SVG/1.1/DTD/svg11.dtd">
<!-- Created with matplotlib (https://matplotlib.org/) -->
<svg height="345.6pt" version="1.1" viewBox="0 0 460.8 345.6" width="460.8pt" xmlns="http://www.w3.org/2000/svg" xmlns:xlink="http://www.w3.org/1999/xlink">
 <metadata>
  <rdf:RDF xmlns:cc="http://creativecommons.org/ns#" xmlns:dc="http://purl.org/dc/elements/1.1/" xmlns:rdf="http://www.w3.org/1999/02/22-rdf-syntax-ns#">
   <cc:Work>
    <dc:type rdf:resource="http://purl.org/dc/dcmitype/StillImage"/>
    <dc:date>2021-06-26T12:35:50.013469</dc:date>
    <dc:format>image/svg+xml</dc:format>
    <dc:creator>
     <cc:Agent>
      <dc:title>Matplotlib v3.3.1, https://matplotlib.org/</dc:title>
     </cc:Agent>
    </dc:creator>
   </cc:Work>
  </rdf:RDF>
 </metadata>
 <defs>
  <style type="text/css">*{stroke-linecap:butt;stroke-linejoin:round;}</style>
 </defs>
 <g id="figure_1">
  <g id="patch_1">
   <path d="M 0 345.6 
L 460.8 345.6 
L 460.8 0 
L 0 0 
z
" style="fill:#ffffff;"/>
  </g>
  <g id="axes_1">
   <g id="patch_2">
    <path d="M 57.6 307.584 
L 414.72 307.584 
L 414.72 41.472 
L 57.6 41.472 
z
" style="fill:#ffffff;"/>
   </g>
   <g id="matplotlib.axis_1">
    <g id="xtick_1">
     <g id="line2d_1">
      <defs>
       <path d="M 0 0 
L 0 3.5 
" id="m4e91c654a6" style="stroke:#000000;stroke-width:0.8;"/>
      </defs>
      <g>
       <use style="stroke:#000000;stroke-width:0.8;" x="65.134033" xlink:href="#m4e91c654a6" y="307.584"/>
      </g>
     </g>
     <g id="text_1">
      <!-- $\mathdefault{10^{1}}$ -->
      <g transform="translate(56.334033 322.182437)scale(0.1 -0.1)">
       <defs>
        <path d="M 12.40625 8.296875 
L 28.515625 8.296875 
L 28.515625 63.921875 
L 10.984375 60.40625 
L 10.984375 69.390625 
L 28.421875 72.90625 
L 38.28125 72.90625 
L 38.28125 8.296875 
L 54.390625 8.296875 
L 54.390625 0 
L 12.40625 0 
z
" id="DejaVuSans-49"/>
        <path d="M 31.78125 66.40625 
Q 24.171875 66.40625 20.328125 58.90625 
Q 16.5 51.421875 16.5 36.375 
Q 16.5 21.390625 20.328125 13.890625 
Q 24.171875 6.390625 31.78125 6.390625 
Q 39.453125 6.390625 43.28125 13.890625 
Q 47.125 21.390625 47.125 36.375 
Q 47.125 51.421875 43.28125 58.90625 
Q 39.453125 66.40625 31.78125 66.40625 
z
M 31.78125 74.21875 
Q 44.046875 74.21875 50.515625 64.515625 
Q 56.984375 54.828125 56.984375 36.375 
Q 56.984375 17.96875 50.515625 8.265625 
Q 44.046875 -1.421875 31.78125 -1.421875 
Q 19.53125 -1.421875 13.0625 8.265625 
Q 6.59375 17.96875 6.59375 36.375 
Q 6.59375 54.828125 13.0625 64.515625 
Q 19.53125 74.21875 31.78125 74.21875 
z
" id="DejaVuSans-48"/>
       </defs>
       <use transform="translate(0 0.684375)" xlink:href="#DejaVuSans-49"/>
       <use transform="translate(63.623047 0.684375)" xlink:href="#DejaVuSans-48"/>
       <use transform="translate(128.203125 38.965625)scale(0.7)" xlink:href="#DejaVuSans-49"/>
      </g>
     </g>
    </g>
    <g id="xtick_2">
     <g id="line2d_2">
      <g>
       <use style="stroke:#000000;stroke-width:0.8;" x="209.412498" xlink:href="#m4e91c654a6" y="307.584"/>
      </g>
     </g>
     <g id="text_2">
      <!-- $\mathdefault{10^{2}}$ -->
      <g transform="translate(200.612498 322.182437)scale(0.1 -0.1)">
       <defs>
        <path d="M 19.1875 8.296875 
L 53.609375 8.296875 
L 53.609375 0 
L 7.328125 0 
L 7.328125 8.296875 
Q 12.9375 14.109375 22.625 23.890625 
Q 32.328125 33.6875 34.8125 36.53125 
Q 39.546875 41.84375 41.421875 45.53125 
Q 43.3125 49.21875 43.3125 52.78125 
Q 43.3125 58.59375 39.234375 62.25 
Q 35.15625 65.921875 28.609375 65.921875 
Q 23.96875 65.921875 18.8125 64.3125 
Q 13.671875 62.703125 7.8125 59.421875 
L 7.8125 69.390625 
Q 13.765625 71.78125 18.9375 73 
Q 24.125 74.21875 28.421875 74.21875 
Q 39.75 74.21875 46.484375 68.546875 
Q 53.21875 62.890625 53.21875 53.421875 
Q 53.21875 48.921875 51.53125 44.890625 
Q 49.859375 40.875 45.40625 35.40625 
Q 44.1875 33.984375 37.640625 27.21875 
Q 31.109375 20.453125 19.1875 8.296875 
z
" id="DejaVuSans-50"/>
       </defs>
       <use transform="translate(0 0.765625)" xlink:href="#DejaVuSans-49"/>
       <use transform="translate(63.623047 0.765625)" xlink:href="#DejaVuSans-48"/>
       <use transform="translate(128.203125 39.046875)scale(0.7)" xlink:href="#DejaVuSans-50"/>
      </g>
     </g>
    </g>
    <g id="xtick_3">
     <g id="line2d_3">
      <g>
       <use style="stroke:#000000;stroke-width:0.8;" x="353.690962" xlink:href="#m4e91c654a6" y="307.584"/>
      </g>
     </g>
     <g id="text_3">
      <!-- $\mathdefault{10^{3}}$ -->
      <g transform="translate(344.890962 322.182437)scale(0.1 -0.1)">
       <defs>
        <path d="M 40.578125 39.3125 
Q 47.65625 37.796875 51.625 33 
Q 55.609375 28.21875 55.609375 21.1875 
Q 55.609375 10.40625 48.1875 4.484375 
Q 40.765625 -1.421875 27.09375 -1.421875 
Q 22.515625 -1.421875 17.65625 -0.515625 
Q 12.796875 0.390625 7.625 2.203125 
L 7.625 11.71875 
Q 11.71875 9.328125 16.59375 8.109375 
Q 21.484375 6.890625 26.8125 6.890625 
Q 36.078125 6.890625 40.9375 10.546875 
Q 45.796875 14.203125 45.796875 21.1875 
Q 45.796875 27.640625 41.28125 31.265625 
Q 36.765625 34.90625 28.71875 34.90625 
L 20.21875 34.90625 
L 20.21875 43.015625 
L 29.109375 43.015625 
Q 36.375 43.015625 40.234375 45.921875 
Q 44.09375 48.828125 44.09375 54.296875 
Q 44.09375 59.90625 40.109375 62.90625 
Q 36.140625 65.921875 28.71875 65.921875 
Q 24.65625 65.921875 20.015625 65.03125 
Q 15.375 64.15625 9.8125 62.3125 
L 9.8125 71.09375 
Q 15.4375 72.65625 20.34375 73.4375 
Q 25.25 74.21875 29.59375 74.21875 
Q 40.828125 74.21875 47.359375 69.109375 
Q 53.90625 64.015625 53.90625 55.328125 
Q 53.90625 49.265625 50.4375 45.09375 
Q 46.96875 40.921875 40.578125 39.3125 
z
" id="DejaVuSans-51"/>
       </defs>
       <use transform="translate(0 0.765625)" xlink:href="#DejaVuSans-49"/>
       <use transform="translate(63.623047 0.765625)" xlink:href="#DejaVuSans-48"/>
       <use transform="translate(128.203125 39.046875)scale(0.7)" xlink:href="#DejaVuSans-51"/>
      </g>
     </g>
    </g>
    <g id="xtick_4">
     <g id="line2d_4">
      <defs>
       <path d="M 0 0 
L 0 2 
" id="maccb7ef616" style="stroke:#000000;stroke-width:0.6;"/>
      </defs>
      <g>
       <use style="stroke:#000000;stroke-width:0.6;" x="58.532212" xlink:href="#maccb7ef616" y="307.584"/>
      </g>
     </g>
    </g>
    <g id="xtick_5">
     <g id="line2d_5">
      <g>
       <use style="stroke:#000000;stroke-width:0.6;" x="108.566178" xlink:href="#maccb7ef616" y="307.584"/>
      </g>
     </g>
    </g>
    <g id="xtick_6">
     <g id="line2d_6">
      <g>
       <use style="stroke:#000000;stroke-width:0.6;" x="133.972355" xlink:href="#maccb7ef616" y="307.584"/>
      </g>
     </g>
    </g>
    <g id="xtick_7">
     <g id="line2d_7">
      <g>
       <use style="stroke:#000000;stroke-width:0.6;" x="151.998324" xlink:href="#maccb7ef616" y="307.584"/>
      </g>
     </g>
    </g>
    <g id="xtick_8">
     <g id="line2d_8">
      <g>
       <use style="stroke:#000000;stroke-width:0.6;" x="165.980352" xlink:href="#maccb7ef616" y="307.584"/>
      </g>
     </g>
    </g>
    <g id="xtick_9">
     <g id="line2d_9">
      <g>
       <use style="stroke:#000000;stroke-width:0.6;" x="177.404501" xlink:href="#maccb7ef616" y="307.584"/>
      </g>
     </g>
    </g>
    <g id="xtick_10">
     <g id="line2d_10">
      <g>
       <use style="stroke:#000000;stroke-width:0.6;" x="187.063481" xlink:href="#maccb7ef616" y="307.584"/>
      </g>
     </g>
    </g>
    <g id="xtick_11">
     <g id="line2d_11">
      <g>
       <use style="stroke:#000000;stroke-width:0.6;" x="195.43047" xlink:href="#maccb7ef616" y="307.584"/>
      </g>
     </g>
    </g>
    <g id="xtick_12">
     <g id="line2d_12">
      <g>
       <use style="stroke:#000000;stroke-width:0.6;" x="202.810677" xlink:href="#maccb7ef616" y="307.584"/>
      </g>
     </g>
    </g>
    <g id="xtick_13">
     <g id="line2d_13">
      <g>
       <use style="stroke:#000000;stroke-width:0.6;" x="252.844643" xlink:href="#maccb7ef616" y="307.584"/>
      </g>
     </g>
    </g>
    <g id="xtick_14">
     <g id="line2d_14">
      <g>
       <use style="stroke:#000000;stroke-width:0.6;" x="278.25082" xlink:href="#maccb7ef616" y="307.584"/>
      </g>
     </g>
    </g>
    <g id="xtick_15">
     <g id="line2d_15">
      <g>
       <use style="stroke:#000000;stroke-width:0.6;" x="296.276789" xlink:href="#maccb7ef616" y="307.584"/>
      </g>
     </g>
    </g>
    <g id="xtick_16">
     <g id="line2d_16">
      <g>
       <use style="stroke:#000000;stroke-width:0.6;" x="310.258817" xlink:href="#maccb7ef616" y="307.584"/>
      </g>
     </g>
    </g>
    <g id="xtick_17">
     <g id="line2d_17">
      <g>
       <use style="stroke:#000000;stroke-width:0.6;" x="321.682965" xlink:href="#maccb7ef616" y="307.584"/>
      </g>
     </g>
    </g>
    <g id="xtick_18">
     <g id="line2d_18">
      <g>
       <use style="stroke:#000000;stroke-width:0.6;" x="331.341945" xlink:href="#maccb7ef616" y="307.584"/>
      </g>
     </g>
    </g>
    <g id="xtick_19">
     <g id="line2d_19">
      <g>
       <use style="stroke:#000000;stroke-width:0.6;" x="339.708934" xlink:href="#maccb7ef616" y="307.584"/>
      </g>
     </g>
    </g>
    <g id="xtick_20">
     <g id="line2d_20">
      <g>
       <use style="stroke:#000000;stroke-width:0.6;" x="347.089142" xlink:href="#maccb7ef616" y="307.584"/>
      </g>
     </g>
    </g>
    <g id="xtick_21">
     <g id="line2d_21">
      <g>
       <use style="stroke:#000000;stroke-width:0.6;" x="397.123108" xlink:href="#maccb7ef616" y="307.584"/>
      </g>
     </g>
    </g>
    <g id="text_4">
     <!-- Execution time (s) -->
     <g transform="translate(190.645156 335.860562)scale(0.1 -0.1)">
      <defs>
       <path d="M 9.8125 72.90625 
L 55.90625 72.90625 
L 55.90625 64.59375 
L 19.671875 64.59375 
L 19.671875 43.015625 
L 54.390625 43.015625 
L 54.390625 34.71875 
L 19.671875 34.71875 
L 19.671875 8.296875 
L 56.78125 8.296875 
L 56.78125 0 
L 9.8125 0 
z
" id="DejaVuSans-69"/>
       <path d="M 54.890625 54.6875 
L 35.109375 28.078125 
L 55.90625 0 
L 45.3125 0 
L 29.390625 21.484375 
L 13.484375 0 
L 2.875 0 
L 24.125 28.609375 
L 4.6875 54.6875 
L 15.28125 54.6875 
L 29.78125 35.203125 
L 44.28125 54.6875 
z
" id="DejaVuSans-120"/>
       <path d="M 56.203125 29.59375 
L 56.203125 25.203125 
L 14.890625 25.203125 
Q 15.484375 15.921875 20.484375 11.0625 
Q 25.484375 6.203125 34.421875 6.203125 
Q 39.59375 6.203125 44.453125 7.46875 
Q 49.3125 8.734375 54.109375 11.28125 
L 54.109375 2.78125 
Q 49.265625 0.734375 44.1875 -0.34375 
Q 39.109375 -1.421875 33.890625 -1.421875 
Q 20.796875 -1.421875 13.15625 6.1875 
Q 5.515625 13.8125 5.515625 26.8125 
Q 5.515625 40.234375 12.765625 48.109375 
Q 20.015625 56 32.328125 56 
Q 43.359375 56 49.78125 48.890625 
Q 56.203125 41.796875 56.203125 29.59375 
z
M 47.21875 32.234375 
Q 47.125 39.59375 43.09375 43.984375 
Q 39.0625 48.390625 32.421875 48.390625 
Q 24.90625 48.390625 20.390625 44.140625 
Q 15.875 39.890625 15.1875 32.171875 
z
" id="DejaVuSans-101"/>
       <path d="M 48.78125 52.59375 
L 48.78125 44.1875 
Q 44.96875 46.296875 41.140625 47.34375 
Q 37.3125 48.390625 33.40625 48.390625 
Q 24.65625 48.390625 19.8125 42.84375 
Q 14.984375 37.3125 14.984375 27.296875 
Q 14.984375 17.28125 19.8125 11.734375 
Q 24.65625 6.203125 33.40625 6.203125 
Q 37.3125 6.203125 41.140625 7.25 
Q 44.96875 8.296875 48.78125 10.40625 
L 48.78125 2.09375 
Q 45.015625 0.34375 40.984375 -0.53125 
Q 36.96875 -1.421875 32.421875 -1.421875 
Q 20.0625 -1.421875 12.78125 6.34375 
Q 5.515625 14.109375 5.515625 27.296875 
Q 5.515625 40.671875 12.859375 48.328125 
Q 20.21875 56 33.015625 56 
Q 37.15625 56 41.109375 55.140625 
Q 45.0625 54.296875 48.78125 52.59375 
z
" id="DejaVuSans-99"/>
       <path d="M 8.5 21.578125 
L 8.5 54.6875 
L 17.484375 54.6875 
L 17.484375 21.921875 
Q 17.484375 14.15625 20.5 10.265625 
Q 23.53125 6.390625 29.59375 6.390625 
Q 36.859375 6.390625 41.078125 11.03125 
Q 45.3125 15.671875 45.3125 23.6875 
L 45.3125 54.6875 
L 54.296875 54.6875 
L 54.296875 0 
L 45.3125 0 
L 45.3125 8.40625 
Q 42.046875 3.421875 37.71875 1 
Q 33.40625 -1.421875 27.6875 -1.421875 
Q 18.265625 -1.421875 13.375 4.4375 
Q 8.5 10.296875 8.5 21.578125 
z
M 31.109375 56 
z
" id="DejaVuSans-117"/>
       <path d="M 18.3125 70.21875 
L 18.3125 54.6875 
L 36.8125 54.6875 
L 36.8125 47.703125 
L 18.3125 47.703125 
L 18.3125 18.015625 
Q 18.3125 11.328125 20.140625 9.421875 
Q 21.96875 7.515625 27.59375 7.515625 
L 36.8125 7.515625 
L 36.8125 0 
L 27.59375 0 
Q 17.1875 0 13.234375 3.875 
Q 9.28125 7.765625 9.28125 18.015625 
L 9.28125 47.703125 
L 2.6875 47.703125 
L 2.6875 54.6875 
L 9.28125 54.6875 
L 9.28125 70.21875 
z
" id="DejaVuSans-116"/>
       <path d="M 9.421875 54.6875 
L 18.40625 54.6875 
L 18.40625 0 
L 9.421875 0 
z
M 9.421875 75.984375 
L 18.40625 75.984375 
L 18.40625 64.59375 
L 9.421875 64.59375 
z
" id="DejaVuSans-105"/>
       <path d="M 30.609375 48.390625 
Q 23.390625 48.390625 19.1875 42.75 
Q 14.984375 37.109375 14.984375 27.296875 
Q 14.984375 17.484375 19.15625 11.84375 
Q 23.34375 6.203125 30.609375 6.203125 
Q 37.796875 6.203125 41.984375 11.859375 
Q 46.1875 17.53125 46.1875 27.296875 
Q 46.1875 37.015625 41.984375 42.703125 
Q 37.796875 48.390625 30.609375 48.390625 
z
M 30.609375 56 
Q 42.328125 56 49.015625 48.375 
Q 55.71875 40.765625 55.71875 27.296875 
Q 55.71875 13.875 49.015625 6.21875 
Q 42.328125 -1.421875 30.609375 -1.421875 
Q 18.84375 -1.421875 12.171875 6.21875 
Q 5.515625 13.875 5.515625 27.296875 
Q 5.515625 40.765625 12.171875 48.375 
Q 18.84375 56 30.609375 56 
z
" id="DejaVuSans-111"/>
       <path d="M 54.890625 33.015625 
L 54.890625 0 
L 45.90625 0 
L 45.90625 32.71875 
Q 45.90625 40.484375 42.875 44.328125 
Q 39.84375 48.1875 33.796875 48.1875 
Q 26.515625 48.1875 22.3125 43.546875 
Q 18.109375 38.921875 18.109375 30.90625 
L 18.109375 0 
L 9.078125 0 
L 9.078125 54.6875 
L 18.109375 54.6875 
L 18.109375 46.1875 
Q 21.34375 51.125 25.703125 53.5625 
Q 30.078125 56 35.796875 56 
Q 45.21875 56 50.046875 50.171875 
Q 54.890625 44.34375 54.890625 33.015625 
z
" id="DejaVuSans-110"/>
       <path id="DejaVuSans-32"/>
       <path d="M 52 44.1875 
Q 55.375 50.25 60.0625 53.125 
Q 64.75 56 71.09375 56 
Q 79.640625 56 84.28125 50.015625 
Q 88.921875 44.046875 88.921875 33.015625 
L 88.921875 0 
L 79.890625 0 
L 79.890625 32.71875 
Q 79.890625 40.578125 77.09375 44.375 
Q 74.3125 48.1875 68.609375 48.1875 
Q 61.625 48.1875 57.5625 43.546875 
Q 53.515625 38.921875 53.515625 30.90625 
L 53.515625 0 
L 44.484375 0 
L 44.484375 32.71875 
Q 44.484375 40.625 41.703125 44.40625 
Q 38.921875 48.1875 33.109375 48.1875 
Q 26.21875 48.1875 22.15625 43.53125 
Q 18.109375 38.875 18.109375 30.90625 
L 18.109375 0 
L 9.078125 0 
L 9.078125 54.6875 
L 18.109375 54.6875 
L 18.109375 46.1875 
Q 21.1875 51.21875 25.484375 53.609375 
Q 29.78125 56 35.6875 56 
Q 41.65625 56 45.828125 52.96875 
Q 50 49.953125 52 44.1875 
z
" id="DejaVuSans-109"/>
       <path d="M 31 75.875 
Q 24.46875 64.65625 21.28125 53.65625 
Q 18.109375 42.671875 18.109375 31.390625 
Q 18.109375 20.125 21.3125 9.0625 
Q 24.515625 -2 31 -13.1875 
L 23.1875 -13.1875 
Q 15.875 -1.703125 12.234375 9.375 
Q 8.59375 20.453125 8.59375 31.390625 
Q 8.59375 42.28125 12.203125 53.3125 
Q 15.828125 64.359375 23.1875 75.875 
z
" id="DejaVuSans-40"/>
       <path d="M 44.28125 53.078125 
L 44.28125 44.578125 
Q 40.484375 46.53125 36.375 47.5 
Q 32.28125 48.484375 27.875 48.484375 
Q 21.1875 48.484375 17.84375 46.4375 
Q 14.5 44.390625 14.5 40.28125 
Q 14.5 37.15625 16.890625 35.375 
Q 19.28125 33.59375 26.515625 31.984375 
L 29.59375 31.296875 
Q 39.15625 29.25 43.1875 25.515625 
Q 47.21875 21.78125 47.21875 15.09375 
Q 47.21875 7.46875 41.1875 3.015625 
Q 35.15625 -1.421875 24.609375 -1.421875 
Q 20.21875 -1.421875 15.453125 -0.5625 
Q 10.6875 0.296875 5.421875 2 
L 5.421875 11.28125 
Q 10.40625 8.6875 15.234375 7.390625 
Q 20.0625 6.109375 24.8125 6.109375 
Q 31.15625 6.109375 34.5625 8.28125 
Q 37.984375 10.453125 37.984375 14.40625 
Q 37.984375 18.0625 35.515625 20.015625 
Q 33.0625 21.96875 24.703125 23.78125 
L 21.578125 24.515625 
Q 13.234375 26.265625 9.515625 29.90625 
Q 5.8125 33.546875 5.8125 39.890625 
Q 5.8125 47.609375 11.28125 51.796875 
Q 16.75 56 26.8125 56 
Q 31.78125 56 36.171875 55.265625 
Q 40.578125 54.546875 44.28125 53.078125 
z
" id="DejaVuSans-115"/>
       <path d="M 8.015625 75.875 
L 15.828125 75.875 
Q 23.140625 64.359375 26.78125 53.3125 
Q 30.421875 42.28125 30.421875 31.390625 
Q 30.421875 20.453125 26.78125 9.375 
Q 23.140625 -1.703125 15.828125 -13.1875 
L 8.015625 -13.1875 
Q 14.5 -2 17.703125 9.0625 
Q 20.90625 20.125 20.90625 31.390625 
Q 20.90625 42.671875 17.703125 53.65625 
Q 14.5 64.65625 8.015625 75.875 
z
" id="DejaVuSans-41"/>
      </defs>
      <use xlink:href="#DejaVuSans-69"/>
      <use x="63.183594" xlink:href="#DejaVuSans-120"/>
      <use x="119.238281" xlink:href="#DejaVuSans-101"/>
      <use x="180.761719" xlink:href="#DejaVuSans-99"/>
      <use x="235.742188" xlink:href="#DejaVuSans-117"/>
      <use x="299.121094" xlink:href="#DejaVuSans-116"/>
      <use x="338.330078" xlink:href="#DejaVuSans-105"/>
      <use x="366.113281" xlink:href="#DejaVuSans-111"/>
      <use x="427.294922" xlink:href="#DejaVuSans-110"/>
      <use x="490.673828" xlink:href="#DejaVuSans-32"/>
      <use x="522.460938" xlink:href="#DejaVuSans-116"/>
      <use x="561.669922" xlink:href="#DejaVuSans-105"/>
      <use x="589.453125" xlink:href="#DejaVuSans-109"/>
      <use x="686.865234" xlink:href="#DejaVuSans-101"/>
      <use x="748.388672" xlink:href="#DejaVuSans-32"/>
      <use x="780.175781" xlink:href="#DejaVuSans-40"/>
      <use x="819.189453" xlink:href="#DejaVuSans-115"/>
      <use x="871.289062" xlink:href="#DejaVuSans-41"/>
     </g>
    </g>
   </g>
   <g id="matplotlib.axis_2">
    <g id="ytick_1">
     <g id="line2d_22">
      <defs>
       <path d="M 0 0 
L -3.5 0 
" id="md092438515" style="stroke:#000000;stroke-width:0.8;"/>
      </defs>
      <g>
       <use style="stroke:#000000;stroke-width:0.8;" x="57.6" xlink:href="#md092438515" y="299.695304"/>
      </g>
     </g>
     <g id="text_5">
      <!-- 20 -->
      <g transform="translate(37.875 303.494523)scale(0.1 -0.1)">
       <use xlink:href="#DejaVuSans-50"/>
       <use x="63.623047" xlink:href="#DejaVuSans-48"/>
      </g>
     </g>
    </g>
    <g id="ytick_2">
     <g id="line2d_23">
      <g>
       <use style="stroke:#000000;stroke-width:0.8;" x="57.6" xlink:href="#md092438515" y="257.622261"/>
      </g>
     </g>
     <g id="text_6">
      <!-- 40 -->
      <g transform="translate(37.875 261.42148)scale(0.1 -0.1)">
       <defs>
        <path d="M 37.796875 64.3125 
L 12.890625 25.390625 
L 37.796875 25.390625 
z
M 35.203125 72.90625 
L 47.609375 72.90625 
L 47.609375 25.390625 
L 58.015625 25.390625 
L 58.015625 17.1875 
L 47.609375 17.1875 
L 47.609375 0 
L 37.796875 0 
L 37.796875 17.1875 
L 4.890625 17.1875 
L 4.890625 26.703125 
z
" id="DejaVuSans-52"/>
       </defs>
       <use xlink:href="#DejaVuSans-52"/>
       <use x="63.623047" xlink:href="#DejaVuSans-48"/>
      </g>
     </g>
    </g>
    <g id="ytick_3">
     <g id="line2d_24">
      <g>
       <use style="stroke:#000000;stroke-width:0.8;" x="57.6" xlink:href="#md092438515" y="215.549217"/>
      </g>
     </g>
     <g id="text_7">
      <!-- 60 -->
      <g transform="translate(37.875 219.348436)scale(0.1 -0.1)">
       <defs>
        <path d="M 33.015625 40.375 
Q 26.375 40.375 22.484375 35.828125 
Q 18.609375 31.296875 18.609375 23.390625 
Q 18.609375 15.53125 22.484375 10.953125 
Q 26.375 6.390625 33.015625 6.390625 
Q 39.65625 6.390625 43.53125 10.953125 
Q 47.40625 15.53125 47.40625 23.390625 
Q 47.40625 31.296875 43.53125 35.828125 
Q 39.65625 40.375 33.015625 40.375 
z
M 52.59375 71.296875 
L 52.59375 62.3125 
Q 48.875 64.0625 45.09375 64.984375 
Q 41.3125 65.921875 37.59375 65.921875 
Q 27.828125 65.921875 22.671875 59.328125 
Q 17.53125 52.734375 16.796875 39.40625 
Q 19.671875 43.65625 24.015625 45.921875 
Q 28.375 48.1875 33.59375 48.1875 
Q 44.578125 48.1875 50.953125 41.515625 
Q 57.328125 34.859375 57.328125 23.390625 
Q 57.328125 12.15625 50.6875 5.359375 
Q 44.046875 -1.421875 33.015625 -1.421875 
Q 20.359375 -1.421875 13.671875 8.265625 
Q 6.984375 17.96875 6.984375 36.375 
Q 6.984375 53.65625 15.1875 63.9375 
Q 23.390625 74.21875 37.203125 74.21875 
Q 40.921875 74.21875 44.703125 73.484375 
Q 48.484375 72.75 52.59375 71.296875 
z
" id="DejaVuSans-54"/>
       </defs>
       <use xlink:href="#DejaVuSans-54"/>
       <use x="63.623047" xlink:href="#DejaVuSans-48"/>
      </g>
     </g>
    </g>
    <g id="ytick_4">
     <g id="line2d_25">
      <g>
       <use style="stroke:#000000;stroke-width:0.8;" x="57.6" xlink:href="#md092438515" y="173.476174"/>
      </g>
     </g>
     <g id="text_8">
      <!-- 80 -->
      <g transform="translate(37.875 177.275393)scale(0.1 -0.1)">
       <defs>
        <path d="M 31.78125 34.625 
Q 24.75 34.625 20.71875 30.859375 
Q 16.703125 27.09375 16.703125 20.515625 
Q 16.703125 13.921875 20.71875 10.15625 
Q 24.75 6.390625 31.78125 6.390625 
Q 38.8125 6.390625 42.859375 10.171875 
Q 46.921875 13.96875 46.921875 20.515625 
Q 46.921875 27.09375 42.890625 30.859375 
Q 38.875 34.625 31.78125 34.625 
z
M 21.921875 38.8125 
Q 15.578125 40.375 12.03125 44.71875 
Q 8.5 49.078125 8.5 55.328125 
Q 8.5 64.0625 14.71875 69.140625 
Q 20.953125 74.21875 31.78125 74.21875 
Q 42.671875 74.21875 48.875 69.140625 
Q 55.078125 64.0625 55.078125 55.328125 
Q 55.078125 49.078125 51.53125 44.71875 
Q 48 40.375 41.703125 38.8125 
Q 48.828125 37.15625 52.796875 32.3125 
Q 56.78125 27.484375 56.78125 20.515625 
Q 56.78125 9.90625 50.3125 4.234375 
Q 43.84375 -1.421875 31.78125 -1.421875 
Q 19.734375 -1.421875 13.25 4.234375 
Q 6.78125 9.90625 6.78125 20.515625 
Q 6.78125 27.484375 10.78125 32.3125 
Q 14.796875 37.15625 21.921875 38.8125 
z
M 18.3125 54.390625 
Q 18.3125 48.734375 21.84375 45.5625 
Q 25.390625 42.390625 31.78125 42.390625 
Q 38.140625 42.390625 41.71875 45.5625 
Q 45.3125 48.734375 45.3125 54.390625 
Q 45.3125 60.0625 41.71875 63.234375 
Q 38.140625 66.40625 31.78125 66.40625 
Q 25.390625 66.40625 21.84375 63.234375 
Q 18.3125 60.0625 18.3125 54.390625 
z
" id="DejaVuSans-56"/>
       </defs>
       <use xlink:href="#DejaVuSans-56"/>
       <use x="63.623047" xlink:href="#DejaVuSans-48"/>
      </g>
     </g>
    </g>
    <g id="ytick_5">
     <g id="line2d_26">
      <g>
       <use style="stroke:#000000;stroke-width:0.8;" x="57.6" xlink:href="#md092438515" y="131.40313"/>
      </g>
     </g>
     <g id="text_9">
      <!-- 100 -->
      <g transform="translate(31.5125 135.202349)scale(0.1 -0.1)">
       <use xlink:href="#DejaVuSans-49"/>
       <use x="63.623047" xlink:href="#DejaVuSans-48"/>
       <use x="127.246094" xlink:href="#DejaVuSans-48"/>
      </g>
     </g>
    </g>
    <g id="ytick_6">
     <g id="line2d_27">
      <g>
       <use style="stroke:#000000;stroke-width:0.8;" x="57.6" xlink:href="#md092438515" y="89.330087"/>
      </g>
     </g>
     <g id="text_10">
      <!-- 120 -->
      <g transform="translate(31.5125 93.129306)scale(0.1 -0.1)">
       <use xlink:href="#DejaVuSans-49"/>
       <use x="63.623047" xlink:href="#DejaVuSans-50"/>
       <use x="127.246094" xlink:href="#DejaVuSans-48"/>
      </g>
     </g>
    </g>
    <g id="ytick_7">
     <g id="line2d_28">
      <g>
       <use style="stroke:#000000;stroke-width:0.8;" x="57.6" xlink:href="#md092438515" y="47.257043"/>
      </g>
     </g>
     <g id="text_11">
      <!-- 140 -->
      <g transform="translate(31.5125 51.056262)scale(0.1 -0.1)">
       <use xlink:href="#DejaVuSans-49"/>
       <use x="63.623047" xlink:href="#DejaVuSans-52"/>
       <use x="127.246094" xlink:href="#DejaVuSans-48"/>
      </g>
     </g>
    </g>
    <g id="text_12">
     <!-- Number of core species -->
     <g transform="translate(25.432812 233.703781)rotate(-90)scale(0.1 -0.1)">
      <defs>
       <path d="M 9.8125 72.90625 
L 23.09375 72.90625 
L 55.421875 11.921875 
L 55.421875 72.90625 
L 64.984375 72.90625 
L 64.984375 0 
L 51.703125 0 
L 19.390625 60.984375 
L 19.390625 0 
L 9.8125 0 
z
" id="DejaVuSans-78"/>
       <path d="M 48.6875 27.296875 
Q 48.6875 37.203125 44.609375 42.84375 
Q 40.53125 48.484375 33.40625 48.484375 
Q 26.265625 48.484375 22.1875 42.84375 
Q 18.109375 37.203125 18.109375 27.296875 
Q 18.109375 17.390625 22.1875 11.75 
Q 26.265625 6.109375 33.40625 6.109375 
Q 40.53125 6.109375 44.609375 11.75 
Q 48.6875 17.390625 48.6875 27.296875 
z
M 18.109375 46.390625 
Q 20.953125 51.265625 25.265625 53.625 
Q 29.59375 56 35.59375 56 
Q 45.5625 56 51.78125 48.09375 
Q 58.015625 40.1875 58.015625 27.296875 
Q 58.015625 14.40625 51.78125 6.484375 
Q 45.5625 -1.421875 35.59375 -1.421875 
Q 29.59375 -1.421875 25.265625 0.953125 
Q 20.953125 3.328125 18.109375 8.203125 
L 18.109375 0 
L 9.078125 0 
L 9.078125 75.984375 
L 18.109375 75.984375 
z
" id="DejaVuSans-98"/>
       <path d="M 41.109375 46.296875 
Q 39.59375 47.171875 37.8125 47.578125 
Q 36.03125 48 33.890625 48 
Q 26.265625 48 22.1875 43.046875 
Q 18.109375 38.09375 18.109375 28.8125 
L 18.109375 0 
L 9.078125 0 
L 9.078125 54.6875 
L 18.109375 54.6875 
L 18.109375 46.1875 
Q 20.953125 51.171875 25.484375 53.578125 
Q 30.03125 56 36.53125 56 
Q 37.453125 56 38.578125 55.875 
Q 39.703125 55.765625 41.0625 55.515625 
z
" id="DejaVuSans-114"/>
       <path d="M 37.109375 75.984375 
L 37.109375 68.5 
L 28.515625 68.5 
Q 23.6875 68.5 21.796875 66.546875 
Q 19.921875 64.59375 19.921875 59.515625 
L 19.921875 54.6875 
L 34.71875 54.6875 
L 34.71875 47.703125 
L 19.921875 47.703125 
L 19.921875 0 
L 10.890625 0 
L 10.890625 47.703125 
L 2.296875 47.703125 
L 2.296875 54.6875 
L 10.890625 54.6875 
L 10.890625 58.5 
Q 10.890625 67.625 15.140625 71.796875 
Q 19.390625 75.984375 28.609375 75.984375 
z
" id="DejaVuSans-102"/>
       <path d="M 18.109375 8.203125 
L 18.109375 -20.796875 
L 9.078125 -20.796875 
L 9.078125 54.6875 
L 18.109375 54.6875 
L 18.109375 46.390625 
Q 20.953125 51.265625 25.265625 53.625 
Q 29.59375 56 35.59375 56 
Q 45.5625 56 51.78125 48.09375 
Q 58.015625 40.1875 58.015625 27.296875 
Q 58.015625 14.40625 51.78125 6.484375 
Q 45.5625 -1.421875 35.59375 -1.421875 
Q 29.59375 -1.421875 25.265625 0.953125 
Q 20.953125 3.328125 18.109375 8.203125 
z
M 48.6875 27.296875 
Q 48.6875 37.203125 44.609375 42.84375 
Q 40.53125 48.484375 33.40625 48.484375 
Q 26.265625 48.484375 22.1875 42.84375 
Q 18.109375 37.203125 18.109375 27.296875 
Q 18.109375 17.390625 22.1875 11.75 
Q 26.265625 6.109375 33.40625 6.109375 
Q 40.53125 6.109375 44.609375 11.75 
Q 48.6875 17.390625 48.6875 27.296875 
z
" id="DejaVuSans-112"/>
      </defs>
      <use xlink:href="#DejaVuSans-78"/>
      <use x="74.804688" xlink:href="#DejaVuSans-117"/>
      <use x="138.183594" xlink:href="#DejaVuSans-109"/>
      <use x="235.595703" xlink:href="#DejaVuSans-98"/>
      <use x="299.072266" xlink:href="#DejaVuSans-101"/>
      <use x="360.595703" xlink:href="#DejaVuSans-114"/>
      <use x="401.708984" xlink:href="#DejaVuSans-32"/>
      <use x="433.496094" xlink:href="#DejaVuSans-111"/>
      <use x="494.677734" xlink:href="#DejaVuSans-102"/>
      <use x="529.882812" xlink:href="#DejaVuSans-32"/>
      <use x="561.669922" xlink:href="#DejaVuSans-99"/>
      <use x="616.650391" xlink:href="#DejaVuSans-111"/>
      <use x="677.832031" xlink:href="#DejaVuSans-114"/>
      <use x="716.695312" xlink:href="#DejaVuSans-101"/>
      <use x="778.21875" xlink:href="#DejaVuSans-32"/>
      <use x="810.005859" xlink:href="#DejaVuSans-115"/>
      <use x="862.105469" xlink:href="#DejaVuSans-112"/>
      <use x="925.582031" xlink:href="#DejaVuSans-101"/>
      <use x="987.105469" xlink:href="#DejaVuSans-99"/>
      <use x="1042.085938" xlink:href="#DejaVuSans-105"/>
      <use x="1069.869141" xlink:href="#DejaVuSans-101"/>
      <use x="1131.392578" xlink:href="#DejaVuSans-115"/>
     </g>
    </g>
   </g>
   <g id="line2d_29">
    <path clip-path="url(#pf81506bea6)" d="M 73.832727 295.488 
L 84.685836 293.384348 
L 94.174508 291.280696 
L 101.373678 289.177043 
L 108.629177 287.073391 
L 115.362992 284.969739 
L 121.385761 282.866087 
L 127.936654 280.762435 
L 134.55633 278.658783 
L 138.88074 276.55513 
L 142.82957 274.451478 
L 146.175314 272.347826 
L 149.614208 270.244174 
L 153.835574 268.140522 
L 157.62365 266.03687 
L 161.398814 263.933217 
L 165.140285 261.829565 
L 167.882308 259.725913 
L 170.797479 257.622261 
L 173.811916 255.518609 
L 176.935898 253.414957 
L 180.820136 251.311304 
L 183.420627 249.207652 
L 186.368972 247.104 
L 189.145188 245.000348 
L 192.099871 242.896696 
L 195.323644 240.793043 
L 198.277814 238.689391 
L 201.185667 236.585739 
L 204.199309 234.482087 
L 206.840884 232.378435 
L 209.159738 230.274783 
L 211.867187 228.17113 
L 214.855386 226.067478 
L 217.218019 223.963826 
L 219.814047 221.860174 
L 222.331914 219.756522 
L 224.991727 217.65287 
L 227.388172 215.549217 
L 230.375812 213.445565 
L 232.764937 211.341913 
L 234.962499 209.238261 
L 237.330763 207.134609 
L 240.128732 205.030957 
L 242.063923 202.927304 
L 244.475395 200.823652 
L 246.891168 198.72 
L 249.136277 196.616348 
L 251.299858 194.512696 
L 253.599926 192.409043 
L 255.591137 190.305391 
L 257.425094 188.201739 
L 259.28995 186.098087 
L 262.258049 183.994435 
L 264.720846 181.890783 
L 267.487441 179.78713 
L 269.617387 177.683478 
L 271.680074 175.579826 
L 273.615135 173.476174 
L 275.342545 171.372522 
L 276.872066 169.26887 
L 278.367761 167.165217 
L 279.797785 165.061565 
L 281.692726 162.957913 
L 283.503435 160.854261 
L 285.275547 158.750609 
L 287.303755 156.646957 
L 289.012612 154.543304 
L 290.660942 152.439652 
L 292.292191 150.336 
L 293.921128 148.232348 
L 295.558948 146.128696 
L 297.032275 144.025043 
L 298.744123 141.921391 
L 300.361688 139.817739 
L 302.423663 137.714087 
L 303.919514 135.610435 
L 305.375209 133.506783 
L 307.22145 131.40313 
L 308.686098 129.299478 
L 310.212548 127.195826 
L 311.750712 125.092174 
L 313.261059 122.988522 
L 314.657851 120.88487 
L 316.164304 118.781217 
L 317.865302 116.677565 
L 319.307726 114.573913 
L 321.857807 112.470261 
L 323.10291 110.366609 
L 324.411879 108.262957 
L 325.550692 106.159304 
L 328.058787 104.055652 
L 329.390459 101.952 
L 330.50501 99.848348 
L 331.876171 97.744696 
L 334.061612 95.641043 
L 335.461356 93.537391 
L 337.543584 91.433739 
L 338.952933 89.330087 
L 340.214081 87.226435 
L 341.622947 85.122783 
L 343.002093 83.01913 
L 344.840021 80.915478 
L 346.510915 78.811826 
L 348.241897 76.708174 
L 349.261851 74.604522 
L 390.562545 72.50087 
L 391.236193 70.397217 
L 391.923895 68.293565 
L 393.114403 66.189913 
L 393.789617 64.086261 
L 394.417839 61.982609 
L 395.28953 59.878957 
L 396.116668 57.775304 
L 396.928817 55.671652 
L 398.487273 53.568 
" style="fill:none;stroke:#0000ff;stroke-linecap:square;stroke-width:1.5;"/>
    <defs>
     <path d="M 0 3 
C 0.795609 3 1.55874 2.683901 2.12132 2.12132 
C 2.683901 1.55874 3 0.795609 3 0 
C 3 -0.795609 2.683901 -1.55874 2.12132 -2.12132 
C 1.55874 -2.683901 0.795609 -3 0 -3 
C -0.795609 -3 -1.55874 -2.683901 -2.12132 -2.12132 
C -2.683901 -1.55874 -3 -0.795609 -3 0 
C -3 0.795609 -2.683901 1.55874 -2.12132 2.12132 
C -1.55874 2.683901 -0.795609 3 0 3 
z
" id="m5df8a9fe15" style="stroke:#0000ff;"/>
    </defs>
    <g clip-path="url(#pf81506bea6)">
     <use style="fill:#0000ff;stroke:#0000ff;" x="73.832727" xlink:href="#m5df8a9fe15" y="295.488"/>
     <use style="fill:#0000ff;stroke:#0000ff;" x="84.685836" xlink:href="#m5df8a9fe15" y="293.384348"/>
     <use style="fill:#0000ff;stroke:#0000ff;" x="94.174508" xlink:href="#m5df8a9fe15" y="291.280696"/>
     <use style="fill:#0000ff;stroke:#0000ff;" x="101.373678" xlink:href="#m5df8a9fe15" y="289.177043"/>
     <use style="fill:#0000ff;stroke:#0000ff;" x="108.629177" xlink:href="#m5df8a9fe15" y="287.073391"/>
     <use style="fill:#0000ff;stroke:#0000ff;" x="115.362992" xlink:href="#m5df8a9fe15" y="284.969739"/>
     <use style="fill:#0000ff;stroke:#0000ff;" x="121.385761" xlink:href="#m5df8a9fe15" y="282.866087"/>
     <use style="fill:#0000ff;stroke:#0000ff;" x="127.936654" xlink:href="#m5df8a9fe15" y="280.762435"/>
     <use style="fill:#0000ff;stroke:#0000ff;" x="134.55633" xlink:href="#m5df8a9fe15" y="278.658783"/>
     <use style="fill:#0000ff;stroke:#0000ff;" x="138.88074" xlink:href="#m5df8a9fe15" y="276.55513"/>
     <use style="fill:#0000ff;stroke:#0000ff;" x="142.82957" xlink:href="#m5df8a9fe15" y="274.451478"/>
     <use style="fill:#0000ff;stroke:#0000ff;" x="146.175314" xlink:href="#m5df8a9fe15" y="272.347826"/>
     <use style="fill:#0000ff;stroke:#0000ff;" x="149.614208" xlink:href="#m5df8a9fe15" y="270.244174"/>
     <use style="fill:#0000ff;stroke:#0000ff;" x="153.835574" xlink:href="#m5df8a9fe15" y="268.140522"/>
     <use style="fill:#0000ff;stroke:#0000ff;" x="157.62365" xlink:href="#m5df8a9fe15" y="266.03687"/>
     <use style="fill:#0000ff;stroke:#0000ff;" x="161.398814" xlink:href="#m5df8a9fe15" y="263.933217"/>
     <use style="fill:#0000ff;stroke:#0000ff;" x="165.140285" xlink:href="#m5df8a9fe15" y="261.829565"/>
     <use style="fill:#0000ff;stroke:#0000ff;" x="167.882308" xlink:href="#m5df8a9fe15" y="259.725913"/>
     <use style="fill:#0000ff;stroke:#0000ff;" x="170.797479" xlink:href="#m5df8a9fe15" y="257.622261"/>
     <use style="fill:#0000ff;stroke:#0000ff;" x="173.811916" xlink:href="#m5df8a9fe15" y="255.518609"/>
     <use style="fill:#0000ff;stroke:#0000ff;" x="176.935898" xlink:href="#m5df8a9fe15" y="253.414957"/>
     <use style="fill:#0000ff;stroke:#0000ff;" x="180.820136" xlink:href="#m5df8a9fe15" y="251.311304"/>
     <use style="fill:#0000ff;stroke:#0000ff;" x="183.420627" xlink:href="#m5df8a9fe15" y="249.207652"/>
     <use style="fill:#0000ff;stroke:#0000ff;" x="186.368972" xlink:href="#m5df8a9fe15" y="247.104"/>
     <use style="fill:#0000ff;stroke:#0000ff;" x="189.145188" xlink:href="#m5df8a9fe15" y="245.000348"/>
     <use style="fill:#0000ff;stroke:#0000ff;" x="192.099871" xlink:href="#m5df8a9fe15" y="242.896696"/>
     <use style="fill:#0000ff;stroke:#0000ff;" x="195.323644" xlink:href="#m5df8a9fe15" y="240.793043"/>
     <use style="fill:#0000ff;stroke:#0000ff;" x="198.277814" xlink:href="#m5df8a9fe15" y="238.689391"/>
     <use style="fill:#0000ff;stroke:#0000ff;" x="201.185667" xlink:href="#m5df8a9fe15" y="236.585739"/>
     <use style="fill:#0000ff;stroke:#0000ff;" x="204.199309" xlink:href="#m5df8a9fe15" y="234.482087"/>
     <use style="fill:#0000ff;stroke:#0000ff;" x="206.840884" xlink:href="#m5df8a9fe15" y="232.378435"/>
     <use style="fill:#0000ff;stroke:#0000ff;" x="209.159738" xlink:href="#m5df8a9fe15" y="230.274783"/>
     <use style="fill:#0000ff;stroke:#0000ff;" x="211.867187" xlink:href="#m5df8a9fe15" y="228.17113"/>
     <use style="fill:#0000ff;stroke:#0000ff;" x="214.855386" xlink:href="#m5df8a9fe15" y="226.067478"/>
     <use style="fill:#0000ff;stroke:#0000ff;" x="217.218019" xlink:href="#m5df8a9fe15" y="223.963826"/>
     <use style="fill:#0000ff;stroke:#0000ff;" x="219.814047" xlink:href="#m5df8a9fe15" y="221.860174"/>
     <use style="fill:#0000ff;stroke:#0000ff;" x="222.331914" xlink:href="#m5df8a9fe15" y="219.756522"/>
     <use style="fill:#0000ff;stroke:#0000ff;" x="224.991727" xlink:href="#m5df8a9fe15" y="217.65287"/>
     <use style="fill:#0000ff;stroke:#0000ff;" x="227.388172" xlink:href="#m5df8a9fe15" y="215.549217"/>
     <use style="fill:#0000ff;stroke:#0000ff;" x="230.375812" xlink:href="#m5df8a9fe15" y="213.445565"/>
     <use style="fill:#0000ff;stroke:#0000ff;" x="232.764937" xlink:href="#m5df8a9fe15" y="211.341913"/>
     <use style="fill:#0000ff;stroke:#0000ff;" x="234.962499" xlink:href="#m5df8a9fe15" y="209.238261"/>
     <use style="fill:#0000ff;stroke:#0000ff;" x="237.330763" xlink:href="#m5df8a9fe15" y="207.134609"/>
     <use style="fill:#0000ff;stroke:#0000ff;" x="240.128732" xlink:href="#m5df8a9fe15" y="205.030957"/>
     <use style="fill:#0000ff;stroke:#0000ff;" x="242.063923" xlink:href="#m5df8a9fe15" y="202.927304"/>
     <use style="fill:#0000ff;stroke:#0000ff;" x="244.475395" xlink:href="#m5df8a9fe15" y="200.823652"/>
     <use style="fill:#0000ff;stroke:#0000ff;" x="246.891168" xlink:href="#m5df8a9fe15" y="198.72"/>
     <use style="fill:#0000ff;stroke:#0000ff;" x="249.136277" xlink:href="#m5df8a9fe15" y="196.616348"/>
     <use style="fill:#0000ff;stroke:#0000ff;" x="251.299858" xlink:href="#m5df8a9fe15" y="194.512696"/>
     <use style="fill:#0000ff;stroke:#0000ff;" x="253.599926" xlink:href="#m5df8a9fe15" y="192.409043"/>
     <use style="fill:#0000ff;stroke:#0000ff;" x="255.591137" xlink:href="#m5df8a9fe15" y="190.305391"/>
     <use style="fill:#0000ff;stroke:#0000ff;" x="257.425094" xlink:href="#m5df8a9fe15" y="188.201739"/>
     <use style="fill:#0000ff;stroke:#0000ff;" x="259.28995" xlink:href="#m5df8a9fe15" y="186.098087"/>
     <use style="fill:#0000ff;stroke:#0000ff;" x="262.258049" xlink:href="#m5df8a9fe15" y="183.994435"/>
     <use style="fill:#0000ff;stroke:#0000ff;" x="264.720846" xlink:href="#m5df8a9fe15" y="181.890783"/>
     <use style="fill:#0000ff;stroke:#0000ff;" x="267.487441" xlink:href="#m5df8a9fe15" y="179.78713"/>
     <use style="fill:#0000ff;stroke:#0000ff;" x="269.617387" xlink:href="#m5df8a9fe15" y="177.683478"/>
     <use style="fill:#0000ff;stroke:#0000ff;" x="271.680074" xlink:href="#m5df8a9fe15" y="175.579826"/>
     <use style="fill:#0000ff;stroke:#0000ff;" x="273.615135" xlink:href="#m5df8a9fe15" y="173.476174"/>
     <use style="fill:#0000ff;stroke:#0000ff;" x="275.342545" xlink:href="#m5df8a9fe15" y="171.372522"/>
     <use style="fill:#0000ff;stroke:#0000ff;" x="276.872066" xlink:href="#m5df8a9fe15" y="169.26887"/>
     <use style="fill:#0000ff;stroke:#0000ff;" x="278.367761" xlink:href="#m5df8a9fe15" y="167.165217"/>
     <use style="fill:#0000ff;stroke:#0000ff;" x="279.797785" xlink:href="#m5df8a9fe15" y="165.061565"/>
     <use style="fill:#0000ff;stroke:#0000ff;" x="281.692726" xlink:href="#m5df8a9fe15" y="162.957913"/>
     <use style="fill:#0000ff;stroke:#0000ff;" x="283.503435" xlink:href="#m5df8a9fe15" y="160.854261"/>
     <use style="fill:#0000ff;stroke:#0000ff;" x="285.275547" xlink:href="#m5df8a9fe15" y="158.750609"/>
     <use style="fill:#0000ff;stroke:#0000ff;" x="287.303755" xlink:href="#m5df8a9fe15" y="156.646957"/>
     <use style="fill:#0000ff;stroke:#0000ff;" x="289.012612" xlink:href="#m5df8a9fe15" y="154.543304"/>
     <use style="fill:#0000ff;stroke:#0000ff;" x="290.660942" xlink:href="#m5df8a9fe15" y="152.439652"/>
     <use style="fill:#0000ff;stroke:#0000ff;" x="292.292191" xlink:href="#m5df8a9fe15" y="150.336"/>
     <use style="fill:#0000ff;stroke:#0000ff;" x="293.921128" xlink:href="#m5df8a9fe15" y="148.232348"/>
     <use style="fill:#0000ff;stroke:#0000ff;" x="295.558948" xlink:href="#m5df8a9fe15" y="146.128696"/>
     <use style="fill:#0000ff;stroke:#0000ff;" x="297.032275" xlink:href="#m5df8a9fe15" y="144.025043"/>
     <use style="fill:#0000ff;stroke:#0000ff;" x="298.744123" xlink:href="#m5df8a9fe15" y="141.921391"/>
     <use style="fill:#0000ff;stroke:#0000ff;" x="300.361688" xlink:href="#m5df8a9fe15" y="139.817739"/>
     <use style="fill:#0000ff;stroke:#0000ff;" x="302.423663" xlink:href="#m5df8a9fe15" y="137.714087"/>
     <use style="fill:#0000ff;stroke:#0000ff;" x="303.919514" xlink:href="#m5df8a9fe15" y="135.610435"/>
     <use style="fill:#0000ff;stroke:#0000ff;" x="305.375209" xlink:href="#m5df8a9fe15" y="133.506783"/>
     <use style="fill:#0000ff;stroke:#0000ff;" x="307.22145" xlink:href="#m5df8a9fe15" y="131.40313"/>
     <use style="fill:#0000ff;stroke:#0000ff;" x="308.686098" xlink:href="#m5df8a9fe15" y="129.299478"/>
     <use style="fill:#0000ff;stroke:#0000ff;" x="310.212548" xlink:href="#m5df8a9fe15" y="127.195826"/>
     <use style="fill:#0000ff;stroke:#0000ff;" x="311.750712" xlink:href="#m5df8a9fe15" y="125.092174"/>
     <use style="fill:#0000ff;stroke:#0000ff;" x="313.261059" xlink:href="#m5df8a9fe15" y="122.988522"/>
     <use style="fill:#0000ff;stroke:#0000ff;" x="314.657851" xlink:href="#m5df8a9fe15" y="120.88487"/>
     <use style="fill:#0000ff;stroke:#0000ff;" x="316.164304" xlink:href="#m5df8a9fe15" y="118.781217"/>
     <use style="fill:#0000ff;stroke:#0000ff;" x="317.865302" xlink:href="#m5df8a9fe15" y="116.677565"/>
     <use style="fill:#0000ff;stroke:#0000ff;" x="319.307726" xlink:href="#m5df8a9fe15" y="114.573913"/>
     <use style="fill:#0000ff;stroke:#0000ff;" x="321.857807" xlink:href="#m5df8a9fe15" y="112.470261"/>
     <use style="fill:#0000ff;stroke:#0000ff;" x="323.10291" xlink:href="#m5df8a9fe15" y="110.366609"/>
     <use style="fill:#0000ff;stroke:#0000ff;" x="324.411879" xlink:href="#m5df8a9fe15" y="108.262957"/>
     <use style="fill:#0000ff;stroke:#0000ff;" x="325.550692" xlink:href="#m5df8a9fe15" y="106.159304"/>
     <use style="fill:#0000ff;stroke:#0000ff;" x="328.058787" xlink:href="#m5df8a9fe15" y="104.055652"/>
     <use style="fill:#0000ff;stroke:#0000ff;" x="329.390459" xlink:href="#m5df8a9fe15" y="101.952"/>
     <use style="fill:#0000ff;stroke:#0000ff;" x="330.50501" xlink:href="#m5df8a9fe15" y="99.848348"/>
     <use style="fill:#0000ff;stroke:#0000ff;" x="331.876171" xlink:href="#m5df8a9fe15" y="97.744696"/>
     <use style="fill:#0000ff;stroke:#0000ff;" x="334.061612" xlink:href="#m5df8a9fe15" y="95.641043"/>
     <use style="fill:#0000ff;stroke:#0000ff;" x="335.461356" xlink:href="#m5df8a9fe15" y="93.537391"/>
     <use style="fill:#0000ff;stroke:#0000ff;" x="337.543584" xlink:href="#m5df8a9fe15" y="91.433739"/>
     <use style="fill:#0000ff;stroke:#0000ff;" x="338.952933" xlink:href="#m5df8a9fe15" y="89.330087"/>
     <use style="fill:#0000ff;stroke:#0000ff;" x="340.214081" xlink:href="#m5df8a9fe15" y="87.226435"/>
     <use style="fill:#0000ff;stroke:#0000ff;" x="341.622947" xlink:href="#m5df8a9fe15" y="85.122783"/>
     <use style="fill:#0000ff;stroke:#0000ff;" x="343.002093" xlink:href="#m5df8a9fe15" y="83.01913"/>
     <use style="fill:#0000ff;stroke:#0000ff;" x="344.840021" xlink:href="#m5df8a9fe15" y="80.915478"/>
     <use style="fill:#0000ff;stroke:#0000ff;" x="346.510915" xlink:href="#m5df8a9fe15" y="78.811826"/>
     <use style="fill:#0000ff;stroke:#0000ff;" x="348.241897" xlink:href="#m5df8a9fe15" y="76.708174"/>
     <use style="fill:#0000ff;stroke:#0000ff;" x="349.261851" xlink:href="#m5df8a9fe15" y="74.604522"/>
     <use style="fill:#0000ff;stroke:#0000ff;" x="390.562545" xlink:href="#m5df8a9fe15" y="72.50087"/>
     <use style="fill:#0000ff;stroke:#0000ff;" x="391.236193" xlink:href="#m5df8a9fe15" y="70.397217"/>
     <use style="fill:#0000ff;stroke:#0000ff;" x="391.923895" xlink:href="#m5df8a9fe15" y="68.293565"/>
     <use style="fill:#0000ff;stroke:#0000ff;" x="393.114403" xlink:href="#m5df8a9fe15" y="66.189913"/>
     <use style="fill:#0000ff;stroke:#0000ff;" x="393.789617" xlink:href="#m5df8a9fe15" y="64.086261"/>
     <use style="fill:#0000ff;stroke:#0000ff;" x="394.417839" xlink:href="#m5df8a9fe15" y="61.982609"/>
     <use style="fill:#0000ff;stroke:#0000ff;" x="395.28953" xlink:href="#m5df8a9fe15" y="59.878957"/>
     <use style="fill:#0000ff;stroke:#0000ff;" x="396.116668" xlink:href="#m5df8a9fe15" y="57.775304"/>
     <use style="fill:#0000ff;stroke:#0000ff;" x="396.928817" xlink:href="#m5df8a9fe15" y="55.671652"/>
     <use style="fill:#0000ff;stroke:#0000ff;" x="398.487273" xlink:href="#m5df8a9fe15" y="53.568"/>
    </g>
   </g>
   <g id="patch_3">
    <path d="M 57.6 307.584 
L 57.6 41.472 
" style="fill:none;stroke:#000000;stroke-linecap:square;stroke-linejoin:miter;stroke-width:0.8;"/>
   </g>
   <g id="patch_4">
    <path d="M 414.72 307.584 
L 414.72 41.472 
" style="fill:none;stroke:#000000;stroke-linecap:square;stroke-linejoin:miter;stroke-width:0.8;"/>
   </g>
   <g id="patch_5">
    <path d="M 57.6 307.584 
L 414.72 307.584 
" style="fill:none;stroke:#000000;stroke-linecap:square;stroke-linejoin:miter;stroke-width:0.8;"/>
   </g>
   <g id="patch_6">
    <path d="M 57.6 41.472 
L 414.72 41.472 
" style="fill:none;stroke:#000000;stroke-linecap:square;stroke-linejoin:miter;stroke-width:0.8;"/>
   </g>
  </g>
  <g id="axes_2">
   <g id="matplotlib.axis_3">
    <g id="ytick_8">
     <g id="line2d_30">
      <defs>
       <path d="M 0 0 
L 3.5 0 
" id="m21d83af674" style="stroke:#000000;stroke-width:0.8;"/>
      </defs>
      <g>
       <use style="stroke:#000000;stroke-width:0.8;" x="414.72" xlink:href="#m21d83af674" y="298.427835"/>
      </g>
     </g>
     <g id="text_13">
      <!-- 0 -->
      <g transform="translate(421.72 302.227054)scale(0.1 -0.1)">
       <use xlink:href="#DejaVuSans-48"/>
      </g>
     </g>
    </g>
    <g id="ytick_9">
     <g id="line2d_31">
      <g>
       <use style="stroke:#000000;stroke-width:0.8;" x="414.72" xlink:href="#m21d83af674" y="251.011136"/>
      </g>
     </g>
     <g id="text_14">
      <!-- 500 -->
      <g transform="translate(421.72 254.810355)scale(0.1 -0.1)">
       <defs>
        <path d="M 10.796875 72.90625 
L 49.515625 72.90625 
L 49.515625 64.59375 
L 19.828125 64.59375 
L 19.828125 46.734375 
Q 21.96875 47.46875 24.109375 47.828125 
Q 26.265625 48.1875 28.421875 48.1875 
Q 40.625 48.1875 47.75 41.5 
Q 54.890625 34.8125 54.890625 23.390625 
Q 54.890625 11.625 47.5625 5.09375 
Q 40.234375 -1.421875 26.90625 -1.421875 
Q 22.3125 -1.421875 17.546875 -0.640625 
Q 12.796875 0.140625 7.71875 1.703125 
L 7.71875 11.625 
Q 12.109375 9.234375 16.796875 8.0625 
Q 21.484375 6.890625 26.703125 6.890625 
Q 35.15625 6.890625 40.078125 11.328125 
Q 45.015625 15.765625 45.015625 23.390625 
Q 45.015625 31 40.078125 35.4375 
Q 35.15625 39.890625 26.703125 39.890625 
Q 22.75 39.890625 18.8125 39.015625 
Q 14.890625 38.140625 10.796875 36.28125 
z
" id="DejaVuSans-53"/>
       </defs>
       <use xlink:href="#DejaVuSans-53"/>
       <use x="63.623047" xlink:href="#DejaVuSans-48"/>
       <use x="127.246094" xlink:href="#DejaVuSans-48"/>
      </g>
     </g>
    </g>
    <g id="ytick_10">
     <g id="line2d_32">
      <g>
       <use style="stroke:#000000;stroke-width:0.8;" x="414.72" xlink:href="#m21d83af674" y="203.594437"/>
      </g>
     </g>
     <g id="text_15">
      <!-- 1000 -->
      <g transform="translate(421.72 207.393655)scale(0.1 -0.1)">
       <use xlink:href="#DejaVuSans-49"/>
       <use x="63.623047" xlink:href="#DejaVuSans-48"/>
       <use x="127.246094" xlink:href="#DejaVuSans-48"/>
       <use x="190.869141" xlink:href="#DejaVuSans-48"/>
      </g>
     </g>
    </g>
    <g id="ytick_11">
     <g id="line2d_33">
      <g>
       <use style="stroke:#000000;stroke-width:0.8;" x="414.72" xlink:href="#m21d83af674" y="156.177737"/>
      </g>
     </g>
     <g id="text_16">
      <!-- 1500 -->
      <g transform="translate(421.72 159.976956)scale(0.1 -0.1)">
       <use xlink:href="#DejaVuSans-49"/>
       <use x="63.623047" xlink:href="#DejaVuSans-53"/>
       <use x="127.246094" xlink:href="#DejaVuSans-48"/>
       <use x="190.869141" xlink:href="#DejaVuSans-48"/>
      </g>
     </g>
    </g>
    <g id="ytick_12">
     <g id="line2d_34">
      <g>
       <use style="stroke:#000000;stroke-width:0.8;" x="414.72" xlink:href="#m21d83af674" y="108.761038"/>
      </g>
     </g>
     <g id="text_17">
      <!-- 2000 -->
      <g transform="translate(421.72 112.560257)scale(0.1 -0.1)">
       <use xlink:href="#DejaVuSans-50"/>
       <use x="63.623047" xlink:href="#DejaVuSans-48"/>
       <use x="127.246094" xlink:href="#DejaVuSans-48"/>
       <use x="190.869141" xlink:href="#DejaVuSans-48"/>
      </g>
     </g>
    </g>
    <g id="ytick_13">
     <g id="line2d_35">
      <g>
       <use style="stroke:#000000;stroke-width:0.8;" x="414.72" xlink:href="#m21d83af674" y="61.344339"/>
      </g>
     </g>
     <g id="text_18">
      <!-- 2500 -->
      <g transform="translate(421.72 65.143557)scale(0.1 -0.1)">
       <use xlink:href="#DejaVuSans-50"/>
       <use x="63.623047" xlink:href="#DejaVuSans-53"/>
       <use x="127.246094" xlink:href="#DejaVuSans-48"/>
       <use x="190.869141" xlink:href="#DejaVuSans-48"/>
      </g>
     </g>
    </g>
    <g id="text_19">
     <!-- Number of core reactions -->
     <g transform="translate(458.768438 238.043625)rotate(-90)scale(0.1 -0.1)">
      <defs>
       <path d="M 34.28125 27.484375 
Q 23.390625 27.484375 19.1875 25 
Q 14.984375 22.515625 14.984375 16.5 
Q 14.984375 11.71875 18.140625 8.90625 
Q 21.296875 6.109375 26.703125 6.109375 
Q 34.1875 6.109375 38.703125 11.40625 
Q 43.21875 16.703125 43.21875 25.484375 
L 43.21875 27.484375 
z
M 52.203125 31.203125 
L 52.203125 0 
L 43.21875 0 
L 43.21875 8.296875 
Q 40.140625 3.328125 35.546875 0.953125 
Q 30.953125 -1.421875 24.3125 -1.421875 
Q 15.921875 -1.421875 10.953125 3.296875 
Q 6 8.015625 6 15.921875 
Q 6 25.140625 12.171875 29.828125 
Q 18.359375 34.515625 30.609375 34.515625 
L 43.21875 34.515625 
L 43.21875 35.40625 
Q 43.21875 41.609375 39.140625 45 
Q 35.0625 48.390625 27.6875 48.390625 
Q 23 48.390625 18.546875 47.265625 
Q 14.109375 46.140625 10.015625 43.890625 
L 10.015625 52.203125 
Q 14.9375 54.109375 19.578125 55.046875 
Q 24.21875 56 28.609375 56 
Q 40.484375 56 46.34375 49.84375 
Q 52.203125 43.703125 52.203125 31.203125 
z
" id="DejaVuSans-97"/>
      </defs>
      <use xlink:href="#DejaVuSans-78"/>
      <use x="74.804688" xlink:href="#DejaVuSans-117"/>
      <use x="138.183594" xlink:href="#DejaVuSans-109"/>
      <use x="235.595703" xlink:href="#DejaVuSans-98"/>
      <use x="299.072266" xlink:href="#DejaVuSans-101"/>
      <use x="360.595703" xlink:href="#DejaVuSans-114"/>
      <use x="401.708984" xlink:href="#DejaVuSans-32"/>
      <use x="433.496094" xlink:href="#DejaVuSans-111"/>
      <use x="494.677734" xlink:href="#DejaVuSans-102"/>
      <use x="529.882812" xlink:href="#DejaVuSans-32"/>
      <use x="561.669922" xlink:href="#DejaVuSans-99"/>
      <use x="616.650391" xlink:href="#DejaVuSans-111"/>
      <use x="677.832031" xlink:href="#DejaVuSans-114"/>
      <use x="716.695312" xlink:href="#DejaVuSans-101"/>
      <use x="778.21875" xlink:href="#DejaVuSans-32"/>
      <use x="810.005859" xlink:href="#DejaVuSans-114"/>
      <use x="848.869141" xlink:href="#DejaVuSans-101"/>
      <use x="910.392578" xlink:href="#DejaVuSans-97"/>
      <use x="971.671875" xlink:href="#DejaVuSans-99"/>
      <use x="1026.652344" xlink:href="#DejaVuSans-116"/>
      <use x="1065.861328" xlink:href="#DejaVuSans-105"/>
      <use x="1093.644531" xlink:href="#DejaVuSans-111"/>
      <use x="1154.826172" xlink:href="#DejaVuSans-110"/>
      <use x="1218.205078" xlink:href="#DejaVuSans-115"/>
     </g>
    </g>
   </g>
   <g id="line2d_36">
    <path clip-path="url(#pf81506bea6)" d="M 73.832727 295.488 
L 84.685836 295.298333 
L 94.174508 295.108666 
L 101.373678 294.919 
L 108.629177 294.824166 
L 115.362992 294.255166 
L 121.385761 294.065499 
L 127.936654 293.780999 
L 134.55633 292.453331 
L 138.88074 292.168831 
L 142.82957 291.979164 
L 146.175314 291.694664 
L 149.614208 290.366996 
L 153.835574 290.082496 
L 157.62365 288.470328 
L 161.398814 286.478827 
L 165.140285 284.676993 
L 167.882308 284.487326 
L 170.797479 284.297659 
L 173.811916 283.728659 
L 176.935898 281.54749 
L 180.820136 279.271489 
L 183.420627 279.081822 
L 186.368972 278.892155 
L 189.145188 278.702488 
L 192.099871 278.038655 
L 195.323644 277.469654 
L 198.277814 277.279987 
L 201.185667 276.710987 
L 204.199309 273.296985 
L 206.840884 270.64165 
L 209.159738 270.451983 
L 211.867187 269.693316 
L 214.855386 265.710313 
L 217.218019 265.615479 
L 219.814047 264.382645 
L 222.331914 264.192978 
L 224.991727 262.485977 
L 227.388172 262.106644 
L 230.375812 257.839141 
L 232.764937 255.563139 
L 234.962499 255.278639 
L 237.330763 252.338804 
L 240.128732 246.743633 
L 242.063923 246.079799 
L 244.475395 242.855464 
L 246.891168 238.587961 
L 249.136277 238.398294 
L 251.299858 238.208627 
L 253.599926 234.889458 
L 255.591137 234.699791 
L 257.425094 234.510125 
L 259.28995 234.320458 
L 262.258049 231.665123 
L 264.720846 231.380623 
L 267.487441 228.630454 
L 269.617387 221.707616 
L 271.680074 217.345279 
L 273.615135 212.88811 
L 275.342545 208.525773 
L 276.872066 208.336107 
L 278.367761 208.241273 
L 279.797785 208.14644 
L 281.692726 207.577439 
L 283.503435 206.344605 
L 285.275547 206.249772 
L 287.303755 206.154938 
L 289.012612 205.585938 
L 290.660942 199.611434 
L 292.292191 199.2321 
L 293.921128 192.024762 
L 295.558948 186.239925 
L 297.032275 185.860591 
L 298.744123 178.558419 
L 300.361688 170.307914 
L 302.423663 166.324911 
L 303.919514 165.376577 
L 305.375209 164.90241 
L 307.22145 164.523076 
L 308.686098 164.33341 
L 310.212548 161.772908 
L 311.750712 157.410572 
L 313.261059 152.194735 
L 314.657851 151.720568 
L 316.164304 151.056734 
L 317.865302 150.9619 
L 319.307726 150.6774 
L 321.857807 147.547898 
L 323.10291 146.978898 
L 324.411879 137.211058 
L 325.550692 137.021391 
L 328.058787 132.848721 
L 329.390459 131.805554 
L 330.50501 131.615887 
L 331.876171 129.908886 
L 334.061612 129.624386 
L 335.461356 120.899713 
L 337.543584 115.304543 
L 338.952933 110.183539 
L 340.214081 109.709372 
L 341.622947 101.648533 
L 343.002093 96.52753 
L 344.840021 96.243029 
L 346.510915 91.122026 
L 348.241897 90.932359 
L 349.261851 90.742692 
L 390.562545 90.647859 
L 391.236193 90.553025 
L 391.923895 84.483688 
L 393.114403 78.793684 
L 393.789617 78.41435 
L 394.417839 69.310344 
L 395.28953 62.861673 
L 396.116668 58.973504 
L 396.928817 58.783837 
L 398.487273 53.568 
" style="fill:none;stroke:#ff0000;stroke-linecap:square;stroke-width:1.5;"/>
    <defs>
     <path d="M 0 3 
C 0.795609 3 1.55874 2.683901 2.12132 2.12132 
C 2.683901 1.55874 3 0.795609 3 0 
C 3 -0.795609 2.683901 -1.55874 2.12132 -2.12132 
C 1.55874 -2.683901 0.795609 -3 0 -3 
C -0.795609 -3 -1.55874 -2.683901 -2.12132 -2.12132 
C -2.683901 -1.55874 -3 -0.795609 -3 0 
C -3 0.795609 -2.683901 1.55874 -2.12132 2.12132 
C -1.55874 2.683901 -0.795609 3 0 3 
z
" id="m43354ac7d8" style="stroke:#ff0000;"/>
    </defs>
    <g clip-path="url(#pf81506bea6)">
     <use style="fill:#ff0000;stroke:#ff0000;" x="73.832727" xlink:href="#m43354ac7d8" y="295.488"/>
     <use style="fill:#ff0000;stroke:#ff0000;" x="84.685836" xlink:href="#m43354ac7d8" y="295.298333"/>
     <use style="fill:#ff0000;stroke:#ff0000;" x="94.174508" xlink:href="#m43354ac7d8" y="295.108666"/>
     <use style="fill:#ff0000;stroke:#ff0000;" x="101.373678" xlink:href="#m43354ac7d8" y="294.919"/>
     <use style="fill:#ff0000;stroke:#ff0000;" x="108.629177" xlink:href="#m43354ac7d8" y="294.824166"/>
     <use style="fill:#ff0000;stroke:#ff0000;" x="115.362992" xlink:href="#m43354ac7d8" y="294.255166"/>
     <use style="fill:#ff0000;stroke:#ff0000;" x="121.385761" xlink:href="#m43354ac7d8" y="294.065499"/>
     <use style="fill:#ff0000;stroke:#ff0000;" x="127.936654" xlink:href="#m43354ac7d8" y="293.780999"/>
     <use style="fill:#ff0000;stroke:#ff0000;" x="134.55633" xlink:href="#m43354ac7d8" y="292.453331"/>
     <use style="fill:#ff0000;stroke:#ff0000;" x="138.88074" xlink:href="#m43354ac7d8" y="292.168831"/>
     <use style="fill:#ff0000;stroke:#ff0000;" x="142.82957" xlink:href="#m43354ac7d8" y="291.979164"/>
     <use style="fill:#ff0000;stroke:#ff0000;" x="146.175314" xlink:href="#m43354ac7d8" y="291.694664"/>
     <use style="fill:#ff0000;stroke:#ff0000;" x="149.614208" xlink:href="#m43354ac7d8" y="290.366996"/>
     <use style="fill:#ff0000;stroke:#ff0000;" x="153.835574" xlink:href="#m43354ac7d8" y="290.082496"/>
     <use style="fill:#ff0000;stroke:#ff0000;" x="157.62365" xlink:href="#m43354ac7d8" y="288.470328"/>
     <use style="fill:#ff0000;stroke:#ff0000;" x="161.398814" xlink:href="#m43354ac7d8" y="286.478827"/>
     <use style="fill:#ff0000;stroke:#ff0000;" x="165.140285" xlink:href="#m43354ac7d8" y="284.676993"/>
     <use style="fill:#ff0000;stroke:#ff0000;" x="167.882308" xlink:href="#m43354ac7d8" y="284.487326"/>
     <use style="fill:#ff0000;stroke:#ff0000;" x="170.797479" xlink:href="#m43354ac7d8" y="284.297659"/>
     <use style="fill:#ff0000;stroke:#ff0000;" x="173.811916" xlink:href="#m43354ac7d8" y="283.728659"/>
     <use style="fill:#ff0000;stroke:#ff0000;" x="176.935898" xlink:href="#m43354ac7d8" y="281.54749"/>
     <use style="fill:#ff0000;stroke:#ff0000;" x="180.820136" xlink:href="#m43354ac7d8" y="279.271489"/>
     <use style="fill:#ff0000;stroke:#ff0000;" x="183.420627" xlink:href="#m43354ac7d8" y="279.081822"/>
     <use style="fill:#ff0000;stroke:#ff0000;" x="186.368972" xlink:href="#m43354ac7d8" y="278.892155"/>
     <use style="fill:#ff0000;stroke:#ff0000;" x="189.145188" xlink:href="#m43354ac7d8" y="278.702488"/>
     <use style="fill:#ff0000;stroke:#ff0000;" x="192.099871" xlink:href="#m43354ac7d8" y="278.038655"/>
     <use style="fill:#ff0000;stroke:#ff0000;" x="195.323644" xlink:href="#m43354ac7d8" y="277.469654"/>
     <use style="fill:#ff0000;stroke:#ff0000;" x="198.277814" xlink:href="#m43354ac7d8" y="277.279987"/>
     <use style="fill:#ff0000;stroke:#ff0000;" x="201.185667" xlink:href="#m43354ac7d8" y="276.710987"/>
     <use style="fill:#ff0000;stroke:#ff0000;" x="204.199309" xlink:href="#m43354ac7d8" y="273.296985"/>
     <use style="fill:#ff0000;stroke:#ff0000;" x="206.840884" xlink:href="#m43354ac7d8" y="270.64165"/>
     <use style="fill:#ff0000;stroke:#ff0000;" x="209.159738" xlink:href="#m43354ac7d8" y="270.451983"/>
     <use style="fill:#ff0000;stroke:#ff0000;" x="211.867187" xlink:href="#m43354ac7d8" y="269.693316"/>
     <use style="fill:#ff0000;stroke:#ff0000;" x="214.855386" xlink:href="#m43354ac7d8" y="265.710313"/>
     <use style="fill:#ff0000;stroke:#ff0000;" x="217.218019" xlink:href="#m43354ac7d8" y="265.615479"/>
     <use style="fill:#ff0000;stroke:#ff0000;" x="219.814047" xlink:href="#m43354ac7d8" y="264.382645"/>
     <use style="fill:#ff0000;stroke:#ff0000;" x="222.331914" xlink:href="#m43354ac7d8" y="264.192978"/>
     <use style="fill:#ff0000;stroke:#ff0000;" x="224.991727" xlink:href="#m43354ac7d8" y="262.485977"/>
     <use style="fill:#ff0000;stroke:#ff0000;" x="227.388172" xlink:href="#m43354ac7d8" y="262.106644"/>
     <use style="fill:#ff0000;stroke:#ff0000;" x="230.375812" xlink:href="#m43354ac7d8" y="257.839141"/>
     <use style="fill:#ff0000;stroke:#ff0000;" x="232.764937" xlink:href="#m43354ac7d8" y="255.563139"/>
     <use style="fill:#ff0000;stroke:#ff0000;" x="234.962499" xlink:href="#m43354ac7d8" y="255.278639"/>
     <use style="fill:#ff0000;stroke:#ff0000;" x="237.330763" xlink:href="#m43354ac7d8" y="252.338804"/>
     <use style="fill:#ff0000;stroke:#ff0000;" x="240.128732" xlink:href="#m43354ac7d8" y="246.743633"/>
     <use style="fill:#ff0000;stroke:#ff0000;" x="242.063923" xlink:href="#m43354ac7d8" y="246.079799"/>
     <use style="fill:#ff0000;stroke:#ff0000;" x="244.475395" xlink:href="#m43354ac7d8" y="242.855464"/>
     <use style="fill:#ff0000;stroke:#ff0000;" x="246.891168" xlink:href="#m43354ac7d8" y="238.587961"/>
     <use style="fill:#ff0000;stroke:#ff0000;" x="249.136277" xlink:href="#m43354ac7d8" y="238.398294"/>
     <use style="fill:#ff0000;stroke:#ff0000;" x="251.299858" xlink:href="#m43354ac7d8" y="238.208627"/>
     <use style="fill:#ff0000;stroke:#ff0000;" x="253.599926" xlink:href="#m43354ac7d8" y="234.889458"/>
     <use style="fill:#ff0000;stroke:#ff0000;" x="255.591137" xlink:href="#m43354ac7d8" y="234.699791"/>
     <use style="fill:#ff0000;stroke:#ff0000;" x="257.425094" xlink:href="#m43354ac7d8" y="234.510125"/>
     <use style="fill:#ff0000;stroke:#ff0000;" x="259.28995" xlink:href="#m43354ac7d8" y="234.320458"/>
     <use style="fill:#ff0000;stroke:#ff0000;" x="262.258049" xlink:href="#m43354ac7d8" y="231.665123"/>
     <use style="fill:#ff0000;stroke:#ff0000;" x="264.720846" xlink:href="#m43354ac7d8" y="231.380623"/>
     <use style="fill:#ff0000;stroke:#ff0000;" x="267.487441" xlink:href="#m43354ac7d8" y="228.630454"/>
     <use style="fill:#ff0000;stroke:#ff0000;" x="269.617387" xlink:href="#m43354ac7d8" y="221.707616"/>
     <use style="fill:#ff0000;stroke:#ff0000;" x="271.680074" xlink:href="#m43354ac7d8" y="217.345279"/>
     <use style="fill:#ff0000;stroke:#ff0000;" x="273.615135" xlink:href="#m43354ac7d8" y="212.88811"/>
     <use style="fill:#ff0000;stroke:#ff0000;" x="275.342545" xlink:href="#m43354ac7d8" y="208.525773"/>
     <use style="fill:#ff0000;stroke:#ff0000;" x="276.872066" xlink:href="#m43354ac7d8" y="208.336107"/>
     <use style="fill:#ff0000;stroke:#ff0000;" x="278.367761" xlink:href="#m43354ac7d8" y="208.241273"/>
     <use style="fill:#ff0000;stroke:#ff0000;" x="279.797785" xlink:href="#m43354ac7d8" y="208.14644"/>
     <use style="fill:#ff0000;stroke:#ff0000;" x="281.692726" xlink:href="#m43354ac7d8" y="207.577439"/>
     <use style="fill:#ff0000;stroke:#ff0000;" x="283.503435" xlink:href="#m43354ac7d8" y="206.344605"/>
     <use style="fill:#ff0000;stroke:#ff0000;" x="285.275547" xlink:href="#m43354ac7d8" y="206.249772"/>
     <use style="fill:#ff0000;stroke:#ff0000;" x="287.303755" xlink:href="#m43354ac7d8" y="206.154938"/>
     <use style="fill:#ff0000;stroke:#ff0000;" x="289.012612" xlink:href="#m43354ac7d8" y="205.585938"/>
     <use style="fill:#ff0000;stroke:#ff0000;" x="290.660942" xlink:href="#m43354ac7d8" y="199.611434"/>
     <use style="fill:#ff0000;stroke:#ff0000;" x="292.292191" xlink:href="#m43354ac7d8" y="199.2321"/>
     <use style="fill:#ff0000;stroke:#ff0000;" x="293.921128" xlink:href="#m43354ac7d8" y="192.024762"/>
     <use style="fill:#ff0000;stroke:#ff0000;" x="295.558948" xlink:href="#m43354ac7d8" y="186.239925"/>
     <use style="fill:#ff0000;stroke:#ff0000;" x="297.032275" xlink:href="#m43354ac7d8" y="185.860591"/>
     <use style="fill:#ff0000;stroke:#ff0000;" x="298.744123" xlink:href="#m43354ac7d8" y="178.558419"/>
     <use style="fill:#ff0000;stroke:#ff0000;" x="300.361688" xlink:href="#m43354ac7d8" y="170.307914"/>
     <use style="fill:#ff0000;stroke:#ff0000;" x="302.423663" xlink:href="#m43354ac7d8" y="166.324911"/>
     <use style="fill:#ff0000;stroke:#ff0000;" x="303.919514" xlink:href="#m43354ac7d8" y="165.376577"/>
     <use style="fill:#ff0000;stroke:#ff0000;" x="305.375209" xlink:href="#m43354ac7d8" y="164.90241"/>
     <use style="fill:#ff0000;stroke:#ff0000;" x="307.22145" xlink:href="#m43354ac7d8" y="164.523076"/>
     <use style="fill:#ff0000;stroke:#ff0000;" x="308.686098" xlink:href="#m43354ac7d8" y="164.33341"/>
     <use style="fill:#ff0000;stroke:#ff0000;" x="310.212548" xlink:href="#m43354ac7d8" y="161.772908"/>
     <use style="fill:#ff0000;stroke:#ff0000;" x="311.750712" xlink:href="#m43354ac7d8" y="157.410572"/>
     <use style="fill:#ff0000;stroke:#ff0000;" x="313.261059" xlink:href="#m43354ac7d8" y="152.194735"/>
     <use style="fill:#ff0000;stroke:#ff0000;" x="314.657851" xlink:href="#m43354ac7d8" y="151.720568"/>
     <use style="fill:#ff0000;stroke:#ff0000;" x="316.164304" xlink:href="#m43354ac7d8" y="151.056734"/>
     <use style="fill:#ff0000;stroke:#ff0000;" x="317.865302" xlink:href="#m43354ac7d8" y="150.9619"/>
     <use style="fill:#ff0000;stroke:#ff0000;" x="319.307726" xlink:href="#m43354ac7d8" y="150.6774"/>
     <use style="fill:#ff0000;stroke:#ff0000;" x="321.857807" xlink:href="#m43354ac7d8" y="147.547898"/>
     <use style="fill:#ff0000;stroke:#ff0000;" x="323.10291" xlink:href="#m43354ac7d8" y="146.978898"/>
     <use style="fill:#ff0000;stroke:#ff0000;" x="324.411879" xlink:href="#m43354ac7d8" y="137.211058"/>
     <use style="fill:#ff0000;stroke:#ff0000;" x="325.550692" xlink:href="#m43354ac7d8" y="137.021391"/>
     <use style="fill:#ff0000;stroke:#ff0000;" x="328.058787" xlink:href="#m43354ac7d8" y="132.848721"/>
     <use style="fill:#ff0000;stroke:#ff0000;" x="329.390459" xlink:href="#m43354ac7d8" y="131.805554"/>
     <use style="fill:#ff0000;stroke:#ff0000;" x="330.50501" xlink:href="#m43354ac7d8" y="131.615887"/>
     <use style="fill:#ff0000;stroke:#ff0000;" x="331.876171" xlink:href="#m43354ac7d8" y="129.908886"/>
     <use style="fill:#ff0000;stroke:#ff0000;" x="334.061612" xlink:href="#m43354ac7d8" y="129.624386"/>
     <use style="fill:#ff0000;stroke:#ff0000;" x="335.461356" xlink:href="#m43354ac7d8" y="120.899713"/>
     <use style="fill:#ff0000;stroke:#ff0000;" x="337.543584" xlink:href="#m43354ac7d8" y="115.304543"/>
     <use style="fill:#ff0000;stroke:#ff0000;" x="338.952933" xlink:href="#m43354ac7d8" y="110.183539"/>
     <use style="fill:#ff0000;stroke:#ff0000;" x="340.214081" xlink:href="#m43354ac7d8" y="109.709372"/>
     <use style="fill:#ff0000;stroke:#ff0000;" x="341.622947" xlink:href="#m43354ac7d8" y="101.648533"/>
     <use style="fill:#ff0000;stroke:#ff0000;" x="343.002093" xlink:href="#m43354ac7d8" y="96.52753"/>
     <use style="fill:#ff0000;stroke:#ff0000;" x="344.840021" xlink:href="#m43354ac7d8" y="96.243029"/>
     <use style="fill:#ff0000;stroke:#ff0000;" x="346.510915" xlink:href="#m43354ac7d8" y="91.122026"/>
     <use style="fill:#ff0000;stroke:#ff0000;" x="348.241897" xlink:href="#m43354ac7d8" y="90.932359"/>
     <use style="fill:#ff0000;stroke:#ff0000;" x="349.261851" xlink:href="#m43354ac7d8" y="90.742692"/>
     <use style="fill:#ff0000;stroke:#ff0000;" x="390.562545" xlink:href="#m43354ac7d8" y="90.647859"/>
     <use style="fill:#ff0000;stroke:#ff0000;" x="391.236193" xlink:href="#m43354ac7d8" y="90.553025"/>
     <use style="fill:#ff0000;stroke:#ff0000;" x="391.923895" xlink:href="#m43354ac7d8" y="84.483688"/>
     <use style="fill:#ff0000;stroke:#ff0000;" x="393.114403" xlink:href="#m43354ac7d8" y="78.793684"/>
     <use style="fill:#ff0000;stroke:#ff0000;" x="393.789617" xlink:href="#m43354ac7d8" y="78.41435"/>
     <use style="fill:#ff0000;stroke:#ff0000;" x="394.417839" xlink:href="#m43354ac7d8" y="69.310344"/>
     <use style="fill:#ff0000;stroke:#ff0000;" x="395.28953" xlink:href="#m43354ac7d8" y="62.861673"/>
     <use style="fill:#ff0000;stroke:#ff0000;" x="396.116668" xlink:href="#m43354ac7d8" y="58.973504"/>
     <use style="fill:#ff0000;stroke:#ff0000;" x="396.928817" xlink:href="#m43354ac7d8" y="58.783837"/>
     <use style="fill:#ff0000;stroke:#ff0000;" x="398.487273" xlink:href="#m43354ac7d8" y="53.568"/>
    </g>
   </g>
   <g id="patch_7">
    <path d="M 57.6 307.584 
L 57.6 41.472 
" style="fill:none;stroke:#000000;stroke-linecap:square;stroke-linejoin:miter;stroke-width:0.8;"/>
   </g>
   <g id="patch_8">
    <path d="M 414.72 307.584 
L 414.72 41.472 
" style="fill:none;stroke:#000000;stroke-linecap:square;stroke-linejoin:miter;stroke-width:0.8;"/>
   </g>
   <g id="patch_9">
    <path d="M 57.6 307.584 
L 414.72 307.584 
" style="fill:none;stroke:#000000;stroke-linecap:square;stroke-linejoin:miter;stroke-width:0.8;"/>
   </g>
   <g id="patch_10">
    <path d="M 57.6 41.472 
L 414.72 41.472 
" style="fill:none;stroke:#000000;stroke-linecap:square;stroke-linejoin:miter;stroke-width:0.8;"/>
   </g>
  </g>
 </g>
 <defs>
  <clipPath id="pf81506bea6">
   <rect height="266.112" width="357.12" x="57.6" y="41.472"/>
  </clipPath>
 </defs>
</svg>
