<?xml version="1.0" encoding="utf-8" standalone="no"?>
<!DOCTYPE svg PUBLIC "-//W3C//DTD SVG 1.1//EN"
  "http://www.w3.org/Graphics/SVG/1.1/DTD/svg11.dtd">
<!-- Created with matplotlib (https://matplotlib.org/) -->
<svg height="345.6pt" version="1.1" viewBox="0 0 460.8 345.6" width="460.8pt" xmlns="http://www.w3.org/2000/svg" xmlns:xlink="http://www.w3.org/1999/xlink">
 <metadata>
  <rdf:RDF xmlns:cc="http://creativecommons.org/ns#" xmlns:dc="http://purl.org/dc/elements/1.1/" xmlns:rdf="http://www.w3.org/1999/02/22-rdf-syntax-ns#">
   <cc:Work>
    <dc:type rdf:resource="http://purl.org/dc/dcmitype/StillImage"/>
    <dc:date>2021-06-21T14:53:21.083767</dc:date>
    <dc:format>image/svg+xml</dc:format>
    <dc:creator>
     <cc:Agent>
      <dc:title>Matplotlib v3.3.1, https://matplotlib.org/</dc:title>
     </cc:Agent>
    </dc:creator>
   </cc:Work>
  </rdf:RDF>
 </metadata>
 <defs>
  <style type="text/css">*{stroke-linecap:butt;stroke-linejoin:round;}</style>
 </defs>
 <g id="figure_1">
  <g id="patch_1">
   <path d="M 0 345.6 
L 460.8 345.6 
L 460.8 0 
L 0 0 
z
" style="fill:#ffffff;"/>
  </g>
  <g id="axes_1">
   <g id="patch_2">
    <path d="M 57.6 307.584 
L 414.72 307.584 
L 414.72 41.472 
L 57.6 41.472 
z
" style="fill:#ffffff;"/>
   </g>
   <g id="matplotlib.axis_1">
    <g id="xtick_1">
     <g id="line2d_1">
      <defs>
       <path d="M 0 0 
L 0 3.5 
" id="m26fd335cca" style="stroke:#000000;stroke-width:0.8;"/>
      </defs>
      <g>
       <use style="stroke:#000000;stroke-width:0.8;" x="77.899131" xlink:href="#m26fd335cca" y="307.584"/>
      </g>
     </g>
     <g id="text_1">
      <!-- $\mathdefault{10^{1}}$ -->
      <g transform="translate(69.099131 322.182437)scale(0.1 -0.1)">
       <defs>
        <path d="M 12.40625 8.296875 
L 28.515625 8.296875 
L 28.515625 63.921875 
L 10.984375 60.40625 
L 10.984375 69.390625 
L 28.421875 72.90625 
L 38.28125 72.90625 
L 38.28125 8.296875 
L 54.390625 8.296875 
L 54.390625 0 
L 12.40625 0 
z
" id="DejaVuSans-49"/>
        <path d="M 31.78125 66.40625 
Q 24.171875 66.40625 20.328125 58.90625 
Q 16.5 51.421875 16.5 36.375 
Q 16.5 21.390625 20.328125 13.890625 
Q 24.171875 6.390625 31.78125 6.390625 
Q 39.453125 6.390625 43.28125 13.890625 
Q 47.125 21.390625 47.125 36.375 
Q 47.125 51.421875 43.28125 58.90625 
Q 39.453125 66.40625 31.78125 66.40625 
z
M 31.78125 74.21875 
Q 44.046875 74.21875 50.515625 64.515625 
Q 56.984375 54.828125 56.984375 36.375 
Q 56.984375 17.96875 50.515625 8.265625 
Q 44.046875 -1.421875 31.78125 -1.421875 
Q 19.53125 -1.421875 13.0625 8.265625 
Q 6.59375 17.96875 6.59375 36.375 
Q 6.59375 54.828125 13.0625 64.515625 
Q 19.53125 74.21875 31.78125 74.21875 
z
" id="DejaVuSans-48"/>
       </defs>
       <use transform="translate(0 0.684375)" xlink:href="#DejaVuSans-49"/>
       <use transform="translate(63.623047 0.684375)" xlink:href="#DejaVuSans-48"/>
       <use transform="translate(128.203125 38.965625)scale(0.7)" xlink:href="#DejaVuSans-49"/>
      </g>
     </g>
    </g>
    <g id="xtick_2">
     <g id="line2d_2">
      <g>
       <use style="stroke:#000000;stroke-width:0.8;" x="277.552362" xlink:href="#m26fd335cca" y="307.584"/>
      </g>
     </g>
     <g id="text_2">
      <!-- $\mathdefault{10^{2}}$ -->
      <g transform="translate(268.752362 322.182437)scale(0.1 -0.1)">
       <defs>
        <path d="M 19.1875 8.296875 
L 53.609375 8.296875 
L 53.609375 0 
L 7.328125 0 
L 7.328125 8.296875 
Q 12.9375 14.109375 22.625 23.890625 
Q 32.328125 33.6875 34.8125 36.53125 
Q 39.546875 41.84375 41.421875 45.53125 
Q 43.3125 49.21875 43.3125 52.78125 
Q 43.3125 58.59375 39.234375 62.25 
Q 35.15625 65.921875 28.609375 65.921875 
Q 23.96875 65.921875 18.8125 64.3125 
Q 13.671875 62.703125 7.8125 59.421875 
L 7.8125 69.390625 
Q 13.765625 71.78125 18.9375 73 
Q 24.125 74.21875 28.421875 74.21875 
Q 39.75 74.21875 46.484375 68.546875 
Q 53.21875 62.890625 53.21875 53.421875 
Q 53.21875 48.921875 51.53125 44.890625 
Q 49.859375 40.875 45.40625 35.40625 
Q 44.1875 33.984375 37.640625 27.21875 
Q 31.109375 20.453125 19.1875 8.296875 
z
" id="DejaVuSans-50"/>
       </defs>
       <use transform="translate(0 0.765625)" xlink:href="#DejaVuSans-49"/>
       <use transform="translate(63.623047 0.765625)" xlink:href="#DejaVuSans-48"/>
       <use transform="translate(128.203125 39.046875)scale(0.7)" xlink:href="#DejaVuSans-50"/>
      </g>
     </g>
    </g>
    <g id="xtick_3">
     <g id="line2d_3">
      <defs>
       <path d="M 0 0 
L 0 2 
" id="m2748c001bb" style="stroke:#000000;stroke-width:0.6;"/>
      </defs>
      <g>
       <use style="stroke:#000000;stroke-width:0.6;" x="58.550734" xlink:href="#m2748c001bb" y="307.584"/>
      </g>
     </g>
    </g>
    <g id="xtick_4">
     <g id="line2d_4">
      <g>
       <use style="stroke:#000000;stroke-width:0.6;" x="68.763501" xlink:href="#m2748c001bb" y="307.584"/>
      </g>
     </g>
    </g>
    <g id="xtick_5">
     <g id="line2d_5">
      <g>
       <use style="stroke:#000000;stroke-width:0.6;" x="138.000743" xlink:href="#m2748c001bb" y="307.584"/>
      </g>
     </g>
    </g>
    <g id="xtick_6">
     <g id="line2d_6">
      <g>
       <use style="stroke:#000000;stroke-width:0.6;" x="173.157931" xlink:href="#m2748c001bb" y="307.584"/>
      </g>
     </g>
    </g>
    <g id="xtick_7">
     <g id="line2d_7">
      <g>
       <use style="stroke:#000000;stroke-width:0.6;" x="198.102354" xlink:href="#m2748c001bb" y="307.584"/>
      </g>
     </g>
    </g>
    <g id="xtick_8">
     <g id="line2d_8">
      <g>
       <use style="stroke:#000000;stroke-width:0.6;" x="217.450751" xlink:href="#m2748c001bb" y="307.584"/>
      </g>
     </g>
    </g>
    <g id="xtick_9">
     <g id="line2d_9">
      <g>
       <use style="stroke:#000000;stroke-width:0.6;" x="233.259543" xlink:href="#m2748c001bb" y="307.584"/>
      </g>
     </g>
    </g>
    <g id="xtick_10">
     <g id="line2d_10">
      <g>
       <use style="stroke:#000000;stroke-width:0.6;" x="246.625686" xlink:href="#m2748c001bb" y="307.584"/>
      </g>
     </g>
    </g>
    <g id="xtick_11">
     <g id="line2d_11">
      <g>
       <use style="stroke:#000000;stroke-width:0.6;" x="258.203965" xlink:href="#m2748c001bb" y="307.584"/>
      </g>
     </g>
    </g>
    <g id="xtick_12">
     <g id="line2d_12">
      <g>
       <use style="stroke:#000000;stroke-width:0.6;" x="268.416732" xlink:href="#m2748c001bb" y="307.584"/>
      </g>
     </g>
    </g>
    <g id="xtick_13">
     <g id="line2d_13">
      <g>
       <use style="stroke:#000000;stroke-width:0.6;" x="337.653974" xlink:href="#m2748c001bb" y="307.584"/>
      </g>
     </g>
    </g>
    <g id="xtick_14">
     <g id="line2d_14">
      <g>
       <use style="stroke:#000000;stroke-width:0.6;" x="372.811162" xlink:href="#m2748c001bb" y="307.584"/>
      </g>
     </g>
    </g>
    <g id="xtick_15">
     <g id="line2d_15">
      <g>
       <use style="stroke:#000000;stroke-width:0.6;" x="397.755585" xlink:href="#m2748c001bb" y="307.584"/>
      </g>
     </g>
    </g>
    <g id="text_3">
     <!-- Execution time (s) -->
     <g transform="translate(190.645156 335.860562)scale(0.1 -0.1)">
      <defs>
       <path d="M 9.8125 72.90625 
L 55.90625 72.90625 
L 55.90625 64.59375 
L 19.671875 64.59375 
L 19.671875 43.015625 
L 54.390625 43.015625 
L 54.390625 34.71875 
L 19.671875 34.71875 
L 19.671875 8.296875 
L 56.78125 8.296875 
L 56.78125 0 
L 9.8125 0 
z
" id="DejaVuSans-69"/>
       <path d="M 54.890625 54.6875 
L 35.109375 28.078125 
L 55.90625 0 
L 45.3125 0 
L 29.390625 21.484375 
L 13.484375 0 
L 2.875 0 
L 24.125 28.609375 
L 4.6875 54.6875 
L 15.28125 54.6875 
L 29.78125 35.203125 
L 44.28125 54.6875 
z
" id="DejaVuSans-120"/>
       <path d="M 56.203125 29.59375 
L 56.203125 25.203125 
L 14.890625 25.203125 
Q 15.484375 15.921875 20.484375 11.0625 
Q 25.484375 6.203125 34.421875 6.203125 
Q 39.59375 6.203125 44.453125 7.46875 
Q 49.3125 8.734375 54.109375 11.28125 
L 54.109375 2.78125 
Q 49.265625 0.734375 44.1875 -0.34375 
Q 39.109375 -1.421875 33.890625 -1.421875 
Q 20.796875 -1.421875 13.15625 6.1875 
Q 5.515625 13.8125 5.515625 26.8125 
Q 5.515625 40.234375 12.765625 48.109375 
Q 20.015625 56 32.328125 56 
Q 43.359375 56 49.78125 48.890625 
Q 56.203125 41.796875 56.203125 29.59375 
z
M 47.21875 32.234375 
Q 47.125 39.59375 43.09375 43.984375 
Q 39.0625 48.390625 32.421875 48.390625 
Q 24.90625 48.390625 20.390625 44.140625 
Q 15.875 39.890625 15.1875 32.171875 
z
" id="DejaVuSans-101"/>
       <path d="M 48.78125 52.59375 
L 48.78125 44.1875 
Q 44.96875 46.296875 41.140625 47.34375 
Q 37.3125 48.390625 33.40625 48.390625 
Q 24.65625 48.390625 19.8125 42.84375 
Q 14.984375 37.3125 14.984375 27.296875 
Q 14.984375 17.28125 19.8125 11.734375 
Q 24.65625 6.203125 33.40625 6.203125 
Q 37.3125 6.203125 41.140625 7.25 
Q 44.96875 8.296875 48.78125 10.40625 
L 48.78125 2.09375 
Q 45.015625 0.34375 40.984375 -0.53125 
Q 36.96875 -1.421875 32.421875 -1.421875 
Q 20.0625 -1.421875 12.78125 6.34375 
Q 5.515625 14.109375 5.515625 27.296875 
Q 5.515625 40.671875 12.859375 48.328125 
Q 20.21875 56 33.015625 56 
Q 37.15625 56 41.109375 55.140625 
Q 45.0625 54.296875 48.78125 52.59375 
z
" id="DejaVuSans-99"/>
       <path d="M 8.5 21.578125 
L 8.5 54.6875 
L 17.484375 54.6875 
L 17.484375 21.921875 
Q 17.484375 14.15625 20.5 10.265625 
Q 23.53125 6.390625 29.59375 6.390625 
Q 36.859375 6.390625 41.078125 11.03125 
Q 45.3125 15.671875 45.3125 23.6875 
L 45.3125 54.6875 
L 54.296875 54.6875 
L 54.296875 0 
L 45.3125 0 
L 45.3125 8.40625 
Q 42.046875 3.421875 37.71875 1 
Q 33.40625 -1.421875 27.6875 -1.421875 
Q 18.265625 -1.421875 13.375 4.4375 
Q 8.5 10.296875 8.5 21.578125 
z
M 31.109375 56 
z
" id="DejaVuSans-117"/>
       <path d="M 18.3125 70.21875 
L 18.3125 54.6875 
L 36.8125 54.6875 
L 36.8125 47.703125 
L 18.3125 47.703125 
L 18.3125 18.015625 
Q 18.3125 11.328125 20.140625 9.421875 
Q 21.96875 7.515625 27.59375 7.515625 
L 36.8125 7.515625 
L 36.8125 0 
L 27.59375 0 
Q 17.1875 0 13.234375 3.875 
Q 9.28125 7.765625 9.28125 18.015625 
L 9.28125 47.703125 
L 2.6875 47.703125 
L 2.6875 54.6875 
L 9.28125 54.6875 
L 9.28125 70.21875 
z
" id="DejaVuSans-116"/>
       <path d="M 9.421875 54.6875 
L 18.40625 54.6875 
L 18.40625 0 
L 9.421875 0 
z
M 9.421875 75.984375 
L 18.40625 75.984375 
L 18.40625 64.59375 
L 9.421875 64.59375 
z
" id="DejaVuSans-105"/>
       <path d="M 30.609375 48.390625 
Q 23.390625 48.390625 19.1875 42.75 
Q 14.984375 37.109375 14.984375 27.296875 
Q 14.984375 17.484375 19.15625 11.84375 
Q 23.34375 6.203125 30.609375 6.203125 
Q 37.796875 6.203125 41.984375 11.859375 
Q 46.1875 17.53125 46.1875 27.296875 
Q 46.1875 37.015625 41.984375 42.703125 
Q 37.796875 48.390625 30.609375 48.390625 
z
M 30.609375 56 
Q 42.328125 56 49.015625 48.375 
Q 55.71875 40.765625 55.71875 27.296875 
Q 55.71875 13.875 49.015625 6.21875 
Q 42.328125 -1.421875 30.609375 -1.421875 
Q 18.84375 -1.421875 12.171875 6.21875 
Q 5.515625 13.875 5.515625 27.296875 
Q 5.515625 40.765625 12.171875 48.375 
Q 18.84375 56 30.609375 56 
z
" id="DejaVuSans-111"/>
       <path d="M 54.890625 33.015625 
L 54.890625 0 
L 45.90625 0 
L 45.90625 32.71875 
Q 45.90625 40.484375 42.875 44.328125 
Q 39.84375 48.1875 33.796875 48.1875 
Q 26.515625 48.1875 22.3125 43.546875 
Q 18.109375 38.921875 18.109375 30.90625 
L 18.109375 0 
L 9.078125 0 
L 9.078125 54.6875 
L 18.109375 54.6875 
L 18.109375 46.1875 
Q 21.34375 51.125 25.703125 53.5625 
Q 30.078125 56 35.796875 56 
Q 45.21875 56 50.046875 50.171875 
Q 54.890625 44.34375 54.890625 33.015625 
z
" id="DejaVuSans-110"/>
       <path id="DejaVuSans-32"/>
       <path d="M 52 44.1875 
Q 55.375 50.25 60.0625 53.125 
Q 64.75 56 71.09375 56 
Q 79.640625 56 84.28125 50.015625 
Q 88.921875 44.046875 88.921875 33.015625 
L 88.921875 0 
L 79.890625 0 
L 79.890625 32.71875 
Q 79.890625 40.578125 77.09375 44.375 
Q 74.3125 48.1875 68.609375 48.1875 
Q 61.625 48.1875 57.5625 43.546875 
Q 53.515625 38.921875 53.515625 30.90625 
L 53.515625 0 
L 44.484375 0 
L 44.484375 32.71875 
Q 44.484375 40.625 41.703125 44.40625 
Q 38.921875 48.1875 33.109375 48.1875 
Q 26.21875 48.1875 22.15625 43.53125 
Q 18.109375 38.875 18.109375 30.90625 
L 18.109375 0 
L 9.078125 0 
L 9.078125 54.6875 
L 18.109375 54.6875 
L 18.109375 46.1875 
Q 21.1875 51.21875 25.484375 53.609375 
Q 29.78125 56 35.6875 56 
Q 41.65625 56 45.828125 52.96875 
Q 50 49.953125 52 44.1875 
z
" id="DejaVuSans-109"/>
       <path d="M 31 75.875 
Q 24.46875 64.65625 21.28125 53.65625 
Q 18.109375 42.671875 18.109375 31.390625 
Q 18.109375 20.125 21.3125 9.0625 
Q 24.515625 -2 31 -13.1875 
L 23.1875 -13.1875 
Q 15.875 -1.703125 12.234375 9.375 
Q 8.59375 20.453125 8.59375 31.390625 
Q 8.59375 42.28125 12.203125 53.3125 
Q 15.828125 64.359375 23.1875 75.875 
z
" id="DejaVuSans-40"/>
       <path d="M 44.28125 53.078125 
L 44.28125 44.578125 
Q 40.484375 46.53125 36.375 47.5 
Q 32.28125 48.484375 27.875 48.484375 
Q 21.1875 48.484375 17.84375 46.4375 
Q 14.5 44.390625 14.5 40.28125 
Q 14.5 37.15625 16.890625 35.375 
Q 19.28125 33.59375 26.515625 31.984375 
L 29.59375 31.296875 
Q 39.15625 29.25 43.1875 25.515625 
Q 47.21875 21.78125 47.21875 15.09375 
Q 47.21875 7.46875 41.1875 3.015625 
Q 35.15625 -1.421875 24.609375 -1.421875 
Q 20.21875 -1.421875 15.453125 -0.5625 
Q 10.6875 0.296875 5.421875 2 
L 5.421875 11.28125 
Q 10.40625 8.6875 15.234375 7.390625 
Q 20.0625 6.109375 24.8125 6.109375 
Q 31.15625 6.109375 34.5625 8.28125 
Q 37.984375 10.453125 37.984375 14.40625 
Q 37.984375 18.0625 35.515625 20.015625 
Q 33.0625 21.96875 24.703125 23.78125 
L 21.578125 24.515625 
Q 13.234375 26.265625 9.515625 29.90625 
Q 5.8125 33.546875 5.8125 39.890625 
Q 5.8125 47.609375 11.28125 51.796875 
Q 16.75 56 26.8125 56 
Q 31.78125 56 36.171875 55.265625 
Q 40.578125 54.546875 44.28125 53.078125 
z
" id="DejaVuSans-115"/>
       <path d="M 8.015625 75.875 
L 15.828125 75.875 
Q 23.140625 64.359375 26.78125 53.3125 
Q 30.421875 42.28125 30.421875 31.390625 
Q 30.421875 20.453125 26.78125 9.375 
Q 23.140625 -1.703125 15.828125 -13.1875 
L 8.015625 -13.1875 
Q 14.5 -2 17.703125 9.0625 
Q 20.90625 20.125 20.90625 31.390625 
Q 20.90625 42.671875 17.703125 53.65625 
Q 14.5 64.65625 8.015625 75.875 
z
" id="DejaVuSans-41"/>
      </defs>
      <use xlink:href="#DejaVuSans-69"/>
      <use x="63.183594" xlink:href="#DejaVuSans-120"/>
      <use x="119.238281" xlink:href="#DejaVuSans-101"/>
      <use x="180.761719" xlink:href="#DejaVuSans-99"/>
      <use x="235.742188" xlink:href="#DejaVuSans-117"/>
      <use x="299.121094" xlink:href="#DejaVuSans-116"/>
      <use x="338.330078" xlink:href="#DejaVuSans-105"/>
      <use x="366.113281" xlink:href="#DejaVuSans-111"/>
      <use x="427.294922" xlink:href="#DejaVuSans-110"/>
      <use x="490.673828" xlink:href="#DejaVuSans-32"/>
      <use x="522.460938" xlink:href="#DejaVuSans-116"/>
      <use x="561.669922" xlink:href="#DejaVuSans-105"/>
      <use x="589.453125" xlink:href="#DejaVuSans-109"/>
      <use x="686.865234" xlink:href="#DejaVuSans-101"/>
      <use x="748.388672" xlink:href="#DejaVuSans-32"/>
      <use x="780.175781" xlink:href="#DejaVuSans-40"/>
      <use x="819.189453" xlink:href="#DejaVuSans-115"/>
      <use x="871.289062" xlink:href="#DejaVuSans-41"/>
     </g>
    </g>
   </g>
   <g id="matplotlib.axis_2">
    <g id="ytick_1">
     <g id="line2d_16">
      <defs>
       <path d="M 0 0 
L -2 0 
" id="m3d32282bc7" style="stroke:#000000;stroke-width:0.6;"/>
      </defs>
      <g>
       <use style="stroke:#000000;stroke-width:0.6;" x="57.6" xlink:href="#m3d32282bc7" y="295.488"/>
      </g>
     </g>
     <g id="text_4">
      <!-- $\mathdefault{2\times10^{1}}$ -->
      <g transform="translate(16 299.287219)scale(0.1 -0.1)">
       <defs>
        <path d="M 70.125 53.71875 
L 47.796875 31.296875 
L 70.125 8.984375 
L 64.3125 3.078125 
L 41.890625 25.484375 
L 19.484375 3.078125 
L 13.71875 8.984375 
L 35.984375 31.296875 
L 13.71875 53.71875 
L 19.484375 59.625 
L 41.890625 37.203125 
L 64.3125 59.625 
z
" id="DejaVuSans-215"/>
       </defs>
       <use transform="translate(0 0.684375)" xlink:href="#DejaVuSans-50"/>
       <use transform="translate(83.105469 0.684375)" xlink:href="#DejaVuSans-215"/>
       <use transform="translate(186.376953 0.684375)" xlink:href="#DejaVuSans-49"/>
       <use transform="translate(250 0.684375)" xlink:href="#DejaVuSans-48"/>
       <use transform="translate(314.580078 38.965625)scale(0.7)" xlink:href="#DejaVuSans-49"/>
      </g>
     </g>
    </g>
    <g id="ytick_2">
     <g id="line2d_17">
      <g>
       <use style="stroke:#000000;stroke-width:0.6;" x="57.6" xlink:href="#m3d32282bc7" y="209.999148"/>
      </g>
     </g>
     <g id="text_5">
      <!-- $\mathdefault{3\times10^{1}}$ -->
      <g transform="translate(16 213.798366)scale(0.1 -0.1)">
       <defs>
        <path d="M 40.578125 39.3125 
Q 47.65625 37.796875 51.625 33 
Q 55.609375 28.21875 55.609375 21.1875 
Q 55.609375 10.40625 48.1875 4.484375 
Q 40.765625 -1.421875 27.09375 -1.421875 
Q 22.515625 -1.421875 17.65625 -0.515625 
Q 12.796875 0.390625 7.625 2.203125 
L 7.625 11.71875 
Q 11.71875 9.328125 16.59375 8.109375 
Q 21.484375 6.890625 26.8125 6.890625 
Q 36.078125 6.890625 40.9375 10.546875 
Q 45.796875 14.203125 45.796875 21.1875 
Q 45.796875 27.640625 41.28125 31.265625 
Q 36.765625 34.90625 28.71875 34.90625 
L 20.21875 34.90625 
L 20.21875 43.015625 
L 29.109375 43.015625 
Q 36.375 43.015625 40.234375 45.921875 
Q 44.09375 48.828125 44.09375 54.296875 
Q 44.09375 59.90625 40.109375 62.90625 
Q 36.140625 65.921875 28.71875 65.921875 
Q 24.65625 65.921875 20.015625 65.03125 
Q 15.375 64.15625 9.8125 62.3125 
L 9.8125 71.09375 
Q 15.4375 72.65625 20.34375 73.4375 
Q 25.25 74.21875 29.59375 74.21875 
Q 40.828125 74.21875 47.359375 69.109375 
Q 53.90625 64.015625 53.90625 55.328125 
Q 53.90625 49.265625 50.4375 45.09375 
Q 46.96875 40.921875 40.578125 39.3125 
z
" id="DejaVuSans-51"/>
       </defs>
       <use transform="translate(0 0.684375)" xlink:href="#DejaVuSans-51"/>
       <use transform="translate(83.105469 0.684375)" xlink:href="#DejaVuSans-215"/>
       <use transform="translate(186.376953 0.684375)" xlink:href="#DejaVuSans-49"/>
       <use transform="translate(250 0.684375)" xlink:href="#DejaVuSans-48"/>
       <use transform="translate(314.580078 38.965625)scale(0.7)" xlink:href="#DejaVuSans-49"/>
      </g>
     </g>
    </g>
    <g id="ytick_3">
     <g id="line2d_18">
      <g>
       <use style="stroke:#000000;stroke-width:0.6;" x="57.6" xlink:href="#m3d32282bc7" y="149.343842"/>
      </g>
     </g>
     <g id="text_6">
      <!-- $\mathdefault{4\times10^{1}}$ -->
      <g transform="translate(16 153.14306)scale(0.1 -0.1)">
       <defs>
        <path d="M 37.796875 64.3125 
L 12.890625 25.390625 
L 37.796875 25.390625 
z
M 35.203125 72.90625 
L 47.609375 72.90625 
L 47.609375 25.390625 
L 58.015625 25.390625 
L 58.015625 17.1875 
L 47.609375 17.1875 
L 47.609375 0 
L 37.796875 0 
L 37.796875 17.1875 
L 4.890625 17.1875 
L 4.890625 26.703125 
z
" id="DejaVuSans-52"/>
       </defs>
       <use transform="translate(0 0.684375)" xlink:href="#DejaVuSans-52"/>
       <use transform="translate(83.105469 0.684375)" xlink:href="#DejaVuSans-215"/>
       <use transform="translate(186.376953 0.684375)" xlink:href="#DejaVuSans-49"/>
       <use transform="translate(250 0.684375)" xlink:href="#DejaVuSans-48"/>
       <use transform="translate(314.580078 38.965625)scale(0.7)" xlink:href="#DejaVuSans-49"/>
      </g>
     </g>
    </g>
    <g id="ytick_4">
     <g id="line2d_19">
      <g>
       <use style="stroke:#000000;stroke-width:0.6;" x="57.6" xlink:href="#m3d32282bc7" y="102.295931"/>
      </g>
     </g>
    </g>
    <g id="ytick_5">
     <g id="line2d_20">
      <g>
       <use style="stroke:#000000;stroke-width:0.6;" x="57.6" xlink:href="#m3d32282bc7" y="63.854989"/>
      </g>
     </g>
     <g id="text_7">
      <!-- $\mathdefault{6\times10^{1}}$ -->
      <g transform="translate(16 67.654208)scale(0.1 -0.1)">
       <defs>
        <path d="M 33.015625 40.375 
Q 26.375 40.375 22.484375 35.828125 
Q 18.609375 31.296875 18.609375 23.390625 
Q 18.609375 15.53125 22.484375 10.953125 
Q 26.375 6.390625 33.015625 6.390625 
Q 39.65625 6.390625 43.53125 10.953125 
Q 47.40625 15.53125 47.40625 23.390625 
Q 47.40625 31.296875 43.53125 35.828125 
Q 39.65625 40.375 33.015625 40.375 
z
M 52.59375 71.296875 
L 52.59375 62.3125 
Q 48.875 64.0625 45.09375 64.984375 
Q 41.3125 65.921875 37.59375 65.921875 
Q 27.828125 65.921875 22.671875 59.328125 
Q 17.53125 52.734375 16.796875 39.40625 
Q 19.671875 43.65625 24.015625 45.921875 
Q 28.375 48.1875 33.59375 48.1875 
Q 44.578125 48.1875 50.953125 41.515625 
Q 57.328125 34.859375 57.328125 23.390625 
Q 57.328125 12.15625 50.6875 5.359375 
Q 44.046875 -1.421875 33.015625 -1.421875 
Q 20.359375 -1.421875 13.671875 8.265625 
Q 6.984375 17.96875 6.984375 36.375 
Q 6.984375 53.65625 15.1875 63.9375 
Q 23.390625 74.21875 37.203125 74.21875 
Q 40.921875 74.21875 44.703125 73.484375 
Q 48.484375 72.75 52.59375 71.296875 
z
" id="DejaVuSans-54"/>
       </defs>
       <use transform="translate(0 0.684375)" xlink:href="#DejaVuSans-54"/>
       <use transform="translate(83.105469 0.684375)" xlink:href="#DejaVuSans-215"/>
       <use transform="translate(186.376953 0.684375)" xlink:href="#DejaVuSans-49"/>
       <use transform="translate(250 0.684375)" xlink:href="#DejaVuSans-48"/>
       <use transform="translate(314.580078 38.965625)scale(0.7)" xlink:href="#DejaVuSans-49"/>
      </g>
     </g>
    </g>
    <g id="text_8">
     <!-- Number of edge species -->
     <g transform="translate(9.920312 235.377219)rotate(-90)scale(0.1 -0.1)">
      <defs>
       <path d="M 9.8125 72.90625 
L 23.09375 72.90625 
L 55.421875 11.921875 
L 55.421875 72.90625 
L 64.984375 72.90625 
L 64.984375 0 
L 51.703125 0 
L 19.390625 60.984375 
L 19.390625 0 
L 9.8125 0 
z
" id="DejaVuSans-78"/>
       <path d="M 48.6875 27.296875 
Q 48.6875 37.203125 44.609375 42.84375 
Q 40.53125 48.484375 33.40625 48.484375 
Q 26.265625 48.484375 22.1875 42.84375 
Q 18.109375 37.203125 18.109375 27.296875 
Q 18.109375 17.390625 22.1875 11.75 
Q 26.265625 6.109375 33.40625 6.109375 
Q 40.53125 6.109375 44.609375 11.75 
Q 48.6875 17.390625 48.6875 27.296875 
z
M 18.109375 46.390625 
Q 20.953125 51.265625 25.265625 53.625 
Q 29.59375 56 35.59375 56 
Q 45.5625 56 51.78125 48.09375 
Q 58.015625 40.1875 58.015625 27.296875 
Q 58.015625 14.40625 51.78125 6.484375 
Q 45.5625 -1.421875 35.59375 -1.421875 
Q 29.59375 -1.421875 25.265625 0.953125 
Q 20.953125 3.328125 18.109375 8.203125 
L 18.109375 0 
L 9.078125 0 
L 9.078125 75.984375 
L 18.109375 75.984375 
z
" id="DejaVuSans-98"/>
       <path d="M 41.109375 46.296875 
Q 39.59375 47.171875 37.8125 47.578125 
Q 36.03125 48 33.890625 48 
Q 26.265625 48 22.1875 43.046875 
Q 18.109375 38.09375 18.109375 28.8125 
L 18.109375 0 
L 9.078125 0 
L 9.078125 54.6875 
L 18.109375 54.6875 
L 18.109375 46.1875 
Q 20.953125 51.171875 25.484375 53.578125 
Q 30.03125 56 36.53125 56 
Q 37.453125 56 38.578125 55.875 
Q 39.703125 55.765625 41.0625 55.515625 
z
" id="DejaVuSans-114"/>
       <path d="M 37.109375 75.984375 
L 37.109375 68.5 
L 28.515625 68.5 
Q 23.6875 68.5 21.796875 66.546875 
Q 19.921875 64.59375 19.921875 59.515625 
L 19.921875 54.6875 
L 34.71875 54.6875 
L 34.71875 47.703125 
L 19.921875 47.703125 
L 19.921875 0 
L 10.890625 0 
L 10.890625 47.703125 
L 2.296875 47.703125 
L 2.296875 54.6875 
L 10.890625 54.6875 
L 10.890625 58.5 
Q 10.890625 67.625 15.140625 71.796875 
Q 19.390625 75.984375 28.609375 75.984375 
z
" id="DejaVuSans-102"/>
       <path d="M 45.40625 46.390625 
L 45.40625 75.984375 
L 54.390625 75.984375 
L 54.390625 0 
L 45.40625 0 
L 45.40625 8.203125 
Q 42.578125 3.328125 38.25 0.953125 
Q 33.9375 -1.421875 27.875 -1.421875 
Q 17.96875 -1.421875 11.734375 6.484375 
Q 5.515625 14.40625 5.515625 27.296875 
Q 5.515625 40.1875 11.734375 48.09375 
Q 17.96875 56 27.875 56 
Q 33.9375 56 38.25 53.625 
Q 42.578125 51.265625 45.40625 46.390625 
z
M 14.796875 27.296875 
Q 14.796875 17.390625 18.875 11.75 
Q 22.953125 6.109375 30.078125 6.109375 
Q 37.203125 6.109375 41.296875 11.75 
Q 45.40625 17.390625 45.40625 27.296875 
Q 45.40625 37.203125 41.296875 42.84375 
Q 37.203125 48.484375 30.078125 48.484375 
Q 22.953125 48.484375 18.875 42.84375 
Q 14.796875 37.203125 14.796875 27.296875 
z
" id="DejaVuSans-100"/>
       <path d="M 45.40625 27.984375 
Q 45.40625 37.75 41.375 43.109375 
Q 37.359375 48.484375 30.078125 48.484375 
Q 22.859375 48.484375 18.828125 43.109375 
Q 14.796875 37.75 14.796875 27.984375 
Q 14.796875 18.265625 18.828125 12.890625 
Q 22.859375 7.515625 30.078125 7.515625 
Q 37.359375 7.515625 41.375 12.890625 
Q 45.40625 18.265625 45.40625 27.984375 
z
M 54.390625 6.78125 
Q 54.390625 -7.171875 48.1875 -13.984375 
Q 42 -20.796875 29.203125 -20.796875 
Q 24.46875 -20.796875 20.265625 -20.09375 
Q 16.0625 -19.390625 12.109375 -17.921875 
L 12.109375 -9.1875 
Q 16.0625 -11.328125 19.921875 -12.34375 
Q 23.78125 -13.375 27.78125 -13.375 
Q 36.625 -13.375 41.015625 -8.765625 
Q 45.40625 -4.15625 45.40625 5.171875 
L 45.40625 9.625 
Q 42.625 4.78125 38.28125 2.390625 
Q 33.9375 0 27.875 0 
Q 17.828125 0 11.671875 7.65625 
Q 5.515625 15.328125 5.515625 27.984375 
Q 5.515625 40.671875 11.671875 48.328125 
Q 17.828125 56 27.875 56 
Q 33.9375 56 38.28125 53.609375 
Q 42.625 51.21875 45.40625 46.390625 
L 45.40625 54.6875 
L 54.390625 54.6875 
z
" id="DejaVuSans-103"/>
       <path d="M 18.109375 8.203125 
L 18.109375 -20.796875 
L 9.078125 -20.796875 
L 9.078125 54.6875 
L 18.109375 54.6875 
L 18.109375 46.390625 
Q 20.953125 51.265625 25.265625 53.625 
Q 29.59375 56 35.59375 56 
Q 45.5625 56 51.78125 48.09375 
Q 58.015625 40.1875 58.015625 27.296875 
Q 58.015625 14.40625 51.78125 6.484375 
Q 45.5625 -1.421875 35.59375 -1.421875 
Q 29.59375 -1.421875 25.265625 0.953125 
Q 20.953125 3.328125 18.109375 8.203125 
z
M 48.6875 27.296875 
Q 48.6875 37.203125 44.609375 42.84375 
Q 40.53125 48.484375 33.40625 48.484375 
Q 26.265625 48.484375 22.1875 42.84375 
Q 18.109375 37.203125 18.109375 27.296875 
Q 18.109375 17.390625 22.1875 11.75 
Q 26.265625 6.109375 33.40625 6.109375 
Q 40.53125 6.109375 44.609375 11.75 
Q 48.6875 17.390625 48.6875 27.296875 
z
" id="DejaVuSans-112"/>
      </defs>
      <use xlink:href="#DejaVuSans-78"/>
      <use x="74.804688" xlink:href="#DejaVuSans-117"/>
      <use x="138.183594" xlink:href="#DejaVuSans-109"/>
      <use x="235.595703" xlink:href="#DejaVuSans-98"/>
      <use x="299.072266" xlink:href="#DejaVuSans-101"/>
      <use x="360.595703" xlink:href="#DejaVuSans-114"/>
      <use x="401.708984" xlink:href="#DejaVuSans-32"/>
      <use x="433.496094" xlink:href="#DejaVuSans-111"/>
      <use x="494.677734" xlink:href="#DejaVuSans-102"/>
      <use x="529.882812" xlink:href="#DejaVuSans-32"/>
      <use x="561.669922" xlink:href="#DejaVuSans-101"/>
      <use x="623.193359" xlink:href="#DejaVuSans-100"/>
      <use x="686.669922" xlink:href="#DejaVuSans-103"/>
      <use x="750.146484" xlink:href="#DejaVuSans-101"/>
      <use x="811.669922" xlink:href="#DejaVuSans-32"/>
      <use x="843.457031" xlink:href="#DejaVuSans-115"/>
      <use x="895.556641" xlink:href="#DejaVuSans-112"/>
      <use x="959.033203" xlink:href="#DejaVuSans-101"/>
      <use x="1020.556641" xlink:href="#DejaVuSans-99"/>
      <use x="1075.537109" xlink:href="#DejaVuSans-105"/>
      <use x="1103.320312" xlink:href="#DejaVuSans-101"/>
      <use x="1164.84375" xlink:href="#DejaVuSans-115"/>
     </g>
    </g>
   </g>
   <g id="line2d_21">
    <path clip-path="url(#p58fc834c55)" d="M 73.832727 248.440089 
L 89.980328 257.047058 
L 105.198082 266.020389 
L 117.262947 275.392663 
L 129.91719 285.201011 
L 138.683447 295.488 
L 147.062885 248.440089 
L 154.554756 257.047058 
L 163.151388 203.085694 
L 170.696199 196.391752 
L 175.776588 203.085694 
L 181.547357 165.781366 
L 188.428706 119.876231 
L 193.273452 124.510295 
L 198.82896 102.295931 
L 205.056148 106.555499 
L 209.869643 110.9029 
L 214.521559 115.341831 
L 218.956549 119.876231 
L 223.758831 115.341831 
L 228.731947 119.876231 
L 233.604172 124.510295 
L 238.164183 129.248505 
L 242.683377 102.295931 
L 246.845299 106.555499 
L 251.342663 102.295931 
L 256.650717 102.295931 
L 260.867471 82.200594 
L 264.285076 86.069353 
L 267.418577 86.069353 
L 271.04939 78.401546 
L 275.555223 74.669742 
L 280.076891 71.002841 
L 283.431987 74.669742 
L 286.961417 78.401546 
L 290.986591 78.401546 
L 295.008747 67.398626 
L 299.046937 63.854989 
L 302.155229 56.941535 
L 305.131013 60.369927 
L 308.256226 53.568 
L 311.164827 56.941535 
L 314.635073 60.369927 
L 317.71842 63.854989 
L 321.54031 60.369927 
L 325.895931 56.941535 
L 328.878839 60.369927 
L 332.20278 63.854989 
L 335.376133 67.398626 
L 338.71635 63.854989 
L 342.924415 60.369927 
L 345.673247 63.854989 
L 348.214203 67.398626 
L 351.37419 67.398626 
L 356.165844 71.002841 
L 359.574747 74.669742 
L 362.485093 78.401546 
L 367.347964 74.669742 
L 371.404978 78.401546 
L 375.006313 82.200594 
L 378.744434 86.069353 
L 381.272556 90.01043 
L 384.377863 94.026579 
L 386.755056 98.120716 
L 389.815279 102.295931 
L 392.768992 106.555499 
L 395.729157 110.9029 
L 398.487273 115.341831 
" style="fill:none;stroke:#0000ff;stroke-linecap:square;stroke-width:1.5;"/>
    <defs>
     <path d="M 0 3 
C 0.795609 3 1.55874 2.683901 2.12132 2.12132 
C 2.683901 1.55874 3 0.795609 3 0 
C 3 -0.795609 2.683901 -1.55874 2.12132 -2.12132 
C 1.55874 -2.683901 0.795609 -3 0 -3 
C -0.795609 -3 -1.55874 -2.683901 -2.12132 -2.12132 
C -2.683901 -1.55874 -3 -0.795609 -3 0 
C -3 0.795609 -2.683901 1.55874 -2.12132 2.12132 
C -1.55874 2.683901 -0.795609 3 0 3 
z
" id="m2865f325db" style="stroke:#0000ff;"/>
    </defs>
    <g clip-path="url(#p58fc834c55)">
     <use style="fill:#0000ff;stroke:#0000ff;" x="73.832727" xlink:href="#m2865f325db" y="248.440089"/>
     <use style="fill:#0000ff;stroke:#0000ff;" x="89.980328" xlink:href="#m2865f325db" y="257.047058"/>
     <use style="fill:#0000ff;stroke:#0000ff;" x="105.198082" xlink:href="#m2865f325db" y="266.020389"/>
     <use style="fill:#0000ff;stroke:#0000ff;" x="117.262947" xlink:href="#m2865f325db" y="275.392663"/>
     <use style="fill:#0000ff;stroke:#0000ff;" x="129.91719" xlink:href="#m2865f325db" y="285.201011"/>
     <use style="fill:#0000ff;stroke:#0000ff;" x="138.683447" xlink:href="#m2865f325db" y="295.488"/>
     <use style="fill:#0000ff;stroke:#0000ff;" x="147.062885" xlink:href="#m2865f325db" y="248.440089"/>
     <use style="fill:#0000ff;stroke:#0000ff;" x="154.554756" xlink:href="#m2865f325db" y="257.047058"/>
     <use style="fill:#0000ff;stroke:#0000ff;" x="163.151388" xlink:href="#m2865f325db" y="203.085694"/>
     <use style="fill:#0000ff;stroke:#0000ff;" x="170.696199" xlink:href="#m2865f325db" y="196.391752"/>
     <use style="fill:#0000ff;stroke:#0000ff;" x="175.776588" xlink:href="#m2865f325db" y="203.085694"/>
     <use style="fill:#0000ff;stroke:#0000ff;" x="181.547357" xlink:href="#m2865f325db" y="165.781366"/>
     <use style="fill:#0000ff;stroke:#0000ff;" x="188.428706" xlink:href="#m2865f325db" y="119.876231"/>
     <use style="fill:#0000ff;stroke:#0000ff;" x="193.273452" xlink:href="#m2865f325db" y="124.510295"/>
     <use style="fill:#0000ff;stroke:#0000ff;" x="198.82896" xlink:href="#m2865f325db" y="102.295931"/>
     <use style="fill:#0000ff;stroke:#0000ff;" x="205.056148" xlink:href="#m2865f325db" y="106.555499"/>
     <use style="fill:#0000ff;stroke:#0000ff;" x="209.869643" xlink:href="#m2865f325db" y="110.9029"/>
     <use style="fill:#0000ff;stroke:#0000ff;" x="214.521559" xlink:href="#m2865f325db" y="115.341831"/>
     <use style="fill:#0000ff;stroke:#0000ff;" x="218.956549" xlink:href="#m2865f325db" y="119.876231"/>
     <use style="fill:#0000ff;stroke:#0000ff;" x="223.758831" xlink:href="#m2865f325db" y="115.341831"/>
     <use style="fill:#0000ff;stroke:#0000ff;" x="228.731947" xlink:href="#m2865f325db" y="119.876231"/>
     <use style="fill:#0000ff;stroke:#0000ff;" x="233.604172" xlink:href="#m2865f325db" y="124.510295"/>
     <use style="fill:#0000ff;stroke:#0000ff;" x="238.164183" xlink:href="#m2865f325db" y="129.248505"/>
     <use style="fill:#0000ff;stroke:#0000ff;" x="242.683377" xlink:href="#m2865f325db" y="102.295931"/>
     <use style="fill:#0000ff;stroke:#0000ff;" x="246.845299" xlink:href="#m2865f325db" y="106.555499"/>
     <use style="fill:#0000ff;stroke:#0000ff;" x="251.342663" xlink:href="#m2865f325db" y="102.295931"/>
     <use style="fill:#0000ff;stroke:#0000ff;" x="256.650717" xlink:href="#m2865f325db" y="102.295931"/>
     <use style="fill:#0000ff;stroke:#0000ff;" x="260.867471" xlink:href="#m2865f325db" y="82.200594"/>
     <use style="fill:#0000ff;stroke:#0000ff;" x="264.285076" xlink:href="#m2865f325db" y="86.069353"/>
     <use style="fill:#0000ff;stroke:#0000ff;" x="267.418577" xlink:href="#m2865f325db" y="86.069353"/>
     <use style="fill:#0000ff;stroke:#0000ff;" x="271.04939" xlink:href="#m2865f325db" y="78.401546"/>
     <use style="fill:#0000ff;stroke:#0000ff;" x="275.555223" xlink:href="#m2865f325db" y="74.669742"/>
     <use style="fill:#0000ff;stroke:#0000ff;" x="280.076891" xlink:href="#m2865f325db" y="71.002841"/>
     <use style="fill:#0000ff;stroke:#0000ff;" x="283.431987" xlink:href="#m2865f325db" y="74.669742"/>
     <use style="fill:#0000ff;stroke:#0000ff;" x="286.961417" xlink:href="#m2865f325db" y="78.401546"/>
     <use style="fill:#0000ff;stroke:#0000ff;" x="290.986591" xlink:href="#m2865f325db" y="78.401546"/>
     <use style="fill:#0000ff;stroke:#0000ff;" x="295.008747" xlink:href="#m2865f325db" y="67.398626"/>
     <use style="fill:#0000ff;stroke:#0000ff;" x="299.046937" xlink:href="#m2865f325db" y="63.854989"/>
     <use style="fill:#0000ff;stroke:#0000ff;" x="302.155229" xlink:href="#m2865f325db" y="56.941535"/>
     <use style="fill:#0000ff;stroke:#0000ff;" x="305.131013" xlink:href="#m2865f325db" y="60.369927"/>
     <use style="fill:#0000ff;stroke:#0000ff;" x="308.256226" xlink:href="#m2865f325db" y="53.568"/>
     <use style="fill:#0000ff;stroke:#0000ff;" x="311.164827" xlink:href="#m2865f325db" y="56.941535"/>
     <use style="fill:#0000ff;stroke:#0000ff;" x="314.635073" xlink:href="#m2865f325db" y="60.369927"/>
     <use style="fill:#0000ff;stroke:#0000ff;" x="317.71842" xlink:href="#m2865f325db" y="63.854989"/>
     <use style="fill:#0000ff;stroke:#0000ff;" x="321.54031" xlink:href="#m2865f325db" y="60.369927"/>
     <use style="fill:#0000ff;stroke:#0000ff;" x="325.895931" xlink:href="#m2865f325db" y="56.941535"/>
     <use style="fill:#0000ff;stroke:#0000ff;" x="328.878839" xlink:href="#m2865f325db" y="60.369927"/>
     <use style="fill:#0000ff;stroke:#0000ff;" x="332.20278" xlink:href="#m2865f325db" y="63.854989"/>
     <use style="fill:#0000ff;stroke:#0000ff;" x="335.376133" xlink:href="#m2865f325db" y="67.398626"/>
     <use style="fill:#0000ff;stroke:#0000ff;" x="338.71635" xlink:href="#m2865f325db" y="63.854989"/>
     <use style="fill:#0000ff;stroke:#0000ff;" x="342.924415" xlink:href="#m2865f325db" y="60.369927"/>
     <use style="fill:#0000ff;stroke:#0000ff;" x="345.673247" xlink:href="#m2865f325db" y="63.854989"/>
     <use style="fill:#0000ff;stroke:#0000ff;" x="348.214203" xlink:href="#m2865f325db" y="67.398626"/>
     <use style="fill:#0000ff;stroke:#0000ff;" x="351.37419" xlink:href="#m2865f325db" y="67.398626"/>
     <use style="fill:#0000ff;stroke:#0000ff;" x="356.165844" xlink:href="#m2865f325db" y="71.002841"/>
     <use style="fill:#0000ff;stroke:#0000ff;" x="359.574747" xlink:href="#m2865f325db" y="74.669742"/>
     <use style="fill:#0000ff;stroke:#0000ff;" x="362.485093" xlink:href="#m2865f325db" y="78.401546"/>
     <use style="fill:#0000ff;stroke:#0000ff;" x="367.347964" xlink:href="#m2865f325db" y="74.669742"/>
     <use style="fill:#0000ff;stroke:#0000ff;" x="371.404978" xlink:href="#m2865f325db" y="78.401546"/>
     <use style="fill:#0000ff;stroke:#0000ff;" x="375.006313" xlink:href="#m2865f325db" y="82.200594"/>
     <use style="fill:#0000ff;stroke:#0000ff;" x="378.744434" xlink:href="#m2865f325db" y="86.069353"/>
     <use style="fill:#0000ff;stroke:#0000ff;" x="381.272556" xlink:href="#m2865f325db" y="90.01043"/>
     <use style="fill:#0000ff;stroke:#0000ff;" x="384.377863" xlink:href="#m2865f325db" y="94.026579"/>
     <use style="fill:#0000ff;stroke:#0000ff;" x="386.755056" xlink:href="#m2865f325db" y="98.120716"/>
     <use style="fill:#0000ff;stroke:#0000ff;" x="389.815279" xlink:href="#m2865f325db" y="102.295931"/>
     <use style="fill:#0000ff;stroke:#0000ff;" x="392.768992" xlink:href="#m2865f325db" y="106.555499"/>
     <use style="fill:#0000ff;stroke:#0000ff;" x="395.729157" xlink:href="#m2865f325db" y="110.9029"/>
     <use style="fill:#0000ff;stroke:#0000ff;" x="398.487273" xlink:href="#m2865f325db" y="115.341831"/>
    </g>
   </g>
   <g id="patch_3">
    <path d="M 57.6 307.584 
L 57.6 41.472 
" style="fill:none;stroke:#000000;stroke-linecap:square;stroke-linejoin:miter;stroke-width:0.8;"/>
   </g>
   <g id="patch_4">
    <path d="M 414.72 307.584 
L 414.72 41.472 
" style="fill:none;stroke:#000000;stroke-linecap:square;stroke-linejoin:miter;stroke-width:0.8;"/>
   </g>
   <g id="patch_5">
    <path d="M 57.6 307.584 
L 414.72 307.584 
" style="fill:none;stroke:#000000;stroke-linecap:square;stroke-linejoin:miter;stroke-width:0.8;"/>
   </g>
   <g id="patch_6">
    <path d="M 57.6 41.472 
L 414.72 41.472 
" style="fill:none;stroke:#000000;stroke-linecap:square;stroke-linejoin:miter;stroke-width:0.8;"/>
   </g>
  </g>
  <g id="axes_2">
   <g id="matplotlib.axis_3">
    <g id="ytick_6">
     <g id="line2d_22">
      <defs>
       <path d="M 0 0 
L 3.5 0 
" id="mf0a065fefd" style="stroke:#000000;stroke-width:0.8;"/>
      </defs>
      <g>
       <use style="stroke:#000000;stroke-width:0.8;" x="414.72" xlink:href="#mf0a065fefd" y="191.393462"/>
      </g>
     </g>
     <g id="text_9">
      <!-- $\mathdefault{10^{2}}$ -->
      <g transform="translate(421.72 195.192681)scale(0.1 -0.1)">
       <use transform="translate(0 0.765625)" xlink:href="#DejaVuSans-49"/>
       <use transform="translate(63.623047 0.765625)" xlink:href="#DejaVuSans-48"/>
       <use transform="translate(128.203125 39.046875)scale(0.7)" xlink:href="#DejaVuSans-50"/>
      </g>
     </g>
    </g>
    <g id="ytick_7">
     <g id="line2d_23">
      <defs>
       <path d="M 0 0 
L 2 0 
" id="me9c878be0d" style="stroke:#000000;stroke-width:0.6;"/>
      </defs>
      <g>
       <use style="stroke:#000000;stroke-width:0.6;" x="414.72" xlink:href="#me9c878be0d" y="292.637172"/>
      </g>
     </g>
    </g>
    <g id="ytick_8">
     <g id="line2d_24">
      <g>
       <use style="stroke:#000000;stroke-width:0.6;" x="414.72" xlink:href="#me9c878be0d" y="268.445596"/>
      </g>
     </g>
    </g>
    <g id="ytick_9">
     <g id="line2d_25">
      <g>
       <use style="stroke:#000000;stroke-width:0.6;" x="414.72" xlink:href="#me9c878be0d" y="249.681151"/>
      </g>
     </g>
    </g>
    <g id="ytick_10">
     <g id="line2d_26">
      <g>
       <use style="stroke:#000000;stroke-width:0.6;" x="414.72" xlink:href="#me9c878be0d" y="234.349484"/>
      </g>
     </g>
    </g>
    <g id="ytick_11">
     <g id="line2d_27">
      <g>
       <use style="stroke:#000000;stroke-width:0.6;" x="414.72" xlink:href="#me9c878be0d" y="221.386743"/>
      </g>
     </g>
    </g>
    <g id="ytick_12">
     <g id="line2d_28">
      <g>
       <use style="stroke:#000000;stroke-width:0.6;" x="414.72" xlink:href="#me9c878be0d" y="210.157907"/>
      </g>
     </g>
    </g>
    <g id="ytick_13">
     <g id="line2d_29">
      <g>
       <use style="stroke:#000000;stroke-width:0.6;" x="414.72" xlink:href="#me9c878be0d" y="200.253371"/>
      </g>
     </g>
    </g>
    <g id="ytick_14">
     <g id="line2d_30">
      <g>
       <use style="stroke:#000000;stroke-width:0.6;" x="414.72" xlink:href="#me9c878be0d" y="133.105773"/>
      </g>
     </g>
    </g>
    <g id="ytick_15">
     <g id="line2d_31">
      <g>
       <use style="stroke:#000000;stroke-width:0.6;" x="414.72" xlink:href="#me9c878be0d" y="99.009661"/>
      </g>
     </g>
    </g>
    <g id="ytick_16">
     <g id="line2d_32">
      <g>
       <use style="stroke:#000000;stroke-width:0.6;" x="414.72" xlink:href="#me9c878be0d" y="74.818085"/>
      </g>
     </g>
    </g>
    <g id="ytick_17">
     <g id="line2d_33">
      <g>
       <use style="stroke:#000000;stroke-width:0.6;" x="414.72" xlink:href="#me9c878be0d" y="56.05364"/>
      </g>
     </g>
    </g>
    <g id="text_10">
     <!-- Number of edge reactions -->
     <g transform="translate(450.918438 239.717062)rotate(-90)scale(0.1 -0.1)">
      <defs>
       <path d="M 34.28125 27.484375 
Q 23.390625 27.484375 19.1875 25 
Q 14.984375 22.515625 14.984375 16.5 
Q 14.984375 11.71875 18.140625 8.90625 
Q 21.296875 6.109375 26.703125 6.109375 
Q 34.1875 6.109375 38.703125 11.40625 
Q 43.21875 16.703125 43.21875 25.484375 
L 43.21875 27.484375 
z
M 52.203125 31.203125 
L 52.203125 0 
L 43.21875 0 
L 43.21875 8.296875 
Q 40.140625 3.328125 35.546875 0.953125 
Q 30.953125 -1.421875 24.3125 -1.421875 
Q 15.921875 -1.421875 10.953125 3.296875 
Q 6 8.015625 6 15.921875 
Q 6 25.140625 12.171875 29.828125 
Q 18.359375 34.515625 30.609375 34.515625 
L 43.21875 34.515625 
L 43.21875 35.40625 
Q 43.21875 41.609375 39.140625 45 
Q 35.0625 48.390625 27.6875 48.390625 
Q 23 48.390625 18.546875 47.265625 
Q 14.109375 46.140625 10.015625 43.890625 
L 10.015625 52.203125 
Q 14.9375 54.109375 19.578125 55.046875 
Q 24.21875 56 28.609375 56 
Q 40.484375 56 46.34375 49.84375 
Q 52.203125 43.703125 52.203125 31.203125 
z
" id="DejaVuSans-97"/>
      </defs>
      <use xlink:href="#DejaVuSans-78"/>
      <use x="74.804688" xlink:href="#DejaVuSans-117"/>
      <use x="138.183594" xlink:href="#DejaVuSans-109"/>
      <use x="235.595703" xlink:href="#DejaVuSans-98"/>
      <use x="299.072266" xlink:href="#DejaVuSans-101"/>
      <use x="360.595703" xlink:href="#DejaVuSans-114"/>
      <use x="401.708984" xlink:href="#DejaVuSans-32"/>
      <use x="433.496094" xlink:href="#DejaVuSans-111"/>
      <use x="494.677734" xlink:href="#DejaVuSans-102"/>
      <use x="529.882812" xlink:href="#DejaVuSans-32"/>
      <use x="561.669922" xlink:href="#DejaVuSans-101"/>
      <use x="623.193359" xlink:href="#DejaVuSans-100"/>
      <use x="686.669922" xlink:href="#DejaVuSans-103"/>
      <use x="750.146484" xlink:href="#DejaVuSans-101"/>
      <use x="811.669922" xlink:href="#DejaVuSans-32"/>
      <use x="843.457031" xlink:href="#DejaVuSans-114"/>
      <use x="882.320312" xlink:href="#DejaVuSans-101"/>
      <use x="943.84375" xlink:href="#DejaVuSans-97"/>
      <use x="1005.123047" xlink:href="#DejaVuSans-99"/>
      <use x="1060.103516" xlink:href="#DejaVuSans-116"/>
      <use x="1099.3125" xlink:href="#DejaVuSans-105"/>
      <use x="1127.095703" xlink:href="#DejaVuSans-111"/>
      <use x="1188.277344" xlink:href="#DejaVuSans-110"/>
      <use x="1251.65625" xlink:href="#DejaVuSans-115"/>
     </g>
    </g>
   </g>
   <g id="line2d_34">
    <path clip-path="url(#p58fc834c55)" d="M 73.832727 282.112034 
L 89.980328 284.62241 
L 105.198082 287.21004 
L 117.262947 287.21004 
L 129.91719 295.488 
L 138.683447 292.637172 
L 147.062885 253.113928 
L 154.554756 248.015921 
L 163.151388 219.017816 
L 170.696199 210.157907 
L 175.776588 211.215674 
L 181.547357 194.826239 
L 188.428706 179.640691 
L 193.273452 180.375118 
L 198.82896 169.330895 
L 205.056148 169.980252 
L 209.869643 169.980252 
L 214.521559 170.634663 
L 218.956549 171.294206 
L 223.758831 166.157259 
L 228.731947 165.536656 
L 233.604172 148.269426 
L 238.164183 145.301188 
L 242.683377 128.205862 
L 246.845299 128.205862 
L 251.342663 124.709643 
L 256.650717 122.828326 
L 260.867471 110.720398 
L 264.285076 111.043206 
L 267.418577 112.019132 
L 271.04939 102.15096 
L 275.555223 96.25232 
L 280.076891 88.237558 
L 283.431987 88.484522 
L 286.961417 87.991316 
L 290.986591 88.732214 
L 295.008747 80.694904 
L 299.046937 78.032158 
L 302.155229 76.089011 
L 305.131013 76.302712 
L 308.256226 68.736542 
L 311.164827 68.932331 
L 314.635073 70.515274 
L 317.71842 70.91571 
L 321.54031 68.736542 
L 325.895931 59.486417 
L 328.878839 59.66179 
L 332.20278 59.83753 
L 335.376133 60.013637 
L 338.71635 61.256827 
L 342.924415 60.190114 
L 345.673247 60.366963 
L 348.214203 60.366963 
L 351.37419 66.803322 
L 356.165844 67.186427 
L 359.574747 68.541207 
L 362.485093 68.736542 
L 367.347964 60.544184 
L 371.404978 60.721779 
L 375.006313 62.700491 
L 378.744434 64.913549 
L 381.272556 65.100627 
L 384.377863 65.288121 
L 386.755056 65.476035 
L 389.815279 65.66437 
L 392.768992 55.383586 
L 395.729157 55.383586 
L 398.487273 53.568 
" style="fill:none;stroke:#ff0000;stroke-linecap:square;stroke-width:1.5;"/>
    <defs>
     <path d="M 0 3 
C 0.795609 3 1.55874 2.683901 2.12132 2.12132 
C 2.683901 1.55874 3 0.795609 3 0 
C 3 -0.795609 2.683901 -1.55874 2.12132 -2.12132 
C 1.55874 -2.683901 0.795609 -3 0 -3 
C -0.795609 -3 -1.55874 -2.683901 -2.12132 -2.12132 
C -2.683901 -1.55874 -3 -0.795609 -3 0 
C -3 0.795609 -2.683901 1.55874 -2.12132 2.12132 
C -1.55874 2.683901 -0.795609 3 0 3 
z
" id="m67efa39183" style="stroke:#ff0000;"/>
    </defs>
    <g clip-path="url(#p58fc834c55)">
     <use style="fill:#ff0000;stroke:#ff0000;" x="73.832727" xlink:href="#m67efa39183" y="282.112034"/>
     <use style="fill:#ff0000;stroke:#ff0000;" x="89.980328" xlink:href="#m67efa39183" y="284.62241"/>
     <use style="fill:#ff0000;stroke:#ff0000;" x="105.198082" xlink:href="#m67efa39183" y="287.21004"/>
     <use style="fill:#ff0000;stroke:#ff0000;" x="117.262947" xlink:href="#m67efa39183" y="287.21004"/>
     <use style="fill:#ff0000;stroke:#ff0000;" x="129.91719" xlink:href="#m67efa39183" y="295.488"/>
     <use style="fill:#ff0000;stroke:#ff0000;" x="138.683447" xlink:href="#m67efa39183" y="292.637172"/>
     <use style="fill:#ff0000;stroke:#ff0000;" x="147.062885" xlink:href="#m67efa39183" y="253.113928"/>
     <use style="fill:#ff0000;stroke:#ff0000;" x="154.554756" xlink:href="#m67efa39183" y="248.015921"/>
     <use style="fill:#ff0000;stroke:#ff0000;" x="163.151388" xlink:href="#m67efa39183" y="219.017816"/>
     <use style="fill:#ff0000;stroke:#ff0000;" x="170.696199" xlink:href="#m67efa39183" y="210.157907"/>
     <use style="fill:#ff0000;stroke:#ff0000;" x="175.776588" xlink:href="#m67efa39183" y="211.215674"/>
     <use style="fill:#ff0000;stroke:#ff0000;" x="181.547357" xlink:href="#m67efa39183" y="194.826239"/>
     <use style="fill:#ff0000;stroke:#ff0000;" x="188.428706" xlink:href="#m67efa39183" y="179.640691"/>
     <use style="fill:#ff0000;stroke:#ff0000;" x="193.273452" xlink:href="#m67efa39183" y="180.375118"/>
     <use style="fill:#ff0000;stroke:#ff0000;" x="198.82896" xlink:href="#m67efa39183" y="169.330895"/>
     <use style="fill:#ff0000;stroke:#ff0000;" x="205.056148" xlink:href="#m67efa39183" y="169.980252"/>
     <use style="fill:#ff0000;stroke:#ff0000;" x="209.869643" xlink:href="#m67efa39183" y="169.980252"/>
     <use style="fill:#ff0000;stroke:#ff0000;" x="214.521559" xlink:href="#m67efa39183" y="170.634663"/>
     <use style="fill:#ff0000;stroke:#ff0000;" x="218.956549" xlink:href="#m67efa39183" y="171.294206"/>
     <use style="fill:#ff0000;stroke:#ff0000;" x="223.758831" xlink:href="#m67efa39183" y="166.157259"/>
     <use style="fill:#ff0000;stroke:#ff0000;" x="228.731947" xlink:href="#m67efa39183" y="165.536656"/>
     <use style="fill:#ff0000;stroke:#ff0000;" x="233.604172" xlink:href="#m67efa39183" y="148.269426"/>
     <use style="fill:#ff0000;stroke:#ff0000;" x="238.164183" xlink:href="#m67efa39183" y="145.301188"/>
     <use style="fill:#ff0000;stroke:#ff0000;" x="242.683377" xlink:href="#m67efa39183" y="128.205862"/>
     <use style="fill:#ff0000;stroke:#ff0000;" x="246.845299" xlink:href="#m67efa39183" y="128.205862"/>
     <use style="fill:#ff0000;stroke:#ff0000;" x="251.342663" xlink:href="#m67efa39183" y="124.709643"/>
     <use style="fill:#ff0000;stroke:#ff0000;" x="256.650717" xlink:href="#m67efa39183" y="122.828326"/>
     <use style="fill:#ff0000;stroke:#ff0000;" x="260.867471" xlink:href="#m67efa39183" y="110.720398"/>
     <use style="fill:#ff0000;stroke:#ff0000;" x="264.285076" xlink:href="#m67efa39183" y="111.043206"/>
     <use style="fill:#ff0000;stroke:#ff0000;" x="267.418577" xlink:href="#m67efa39183" y="112.019132"/>
     <use style="fill:#ff0000;stroke:#ff0000;" x="271.04939" xlink:href="#m67efa39183" y="102.15096"/>
     <use style="fill:#ff0000;stroke:#ff0000;" x="275.555223" xlink:href="#m67efa39183" y="96.25232"/>
     <use style="fill:#ff0000;stroke:#ff0000;" x="280.076891" xlink:href="#m67efa39183" y="88.237558"/>
     <use style="fill:#ff0000;stroke:#ff0000;" x="283.431987" xlink:href="#m67efa39183" y="88.484522"/>
     <use style="fill:#ff0000;stroke:#ff0000;" x="286.961417" xlink:href="#m67efa39183" y="87.991316"/>
     <use style="fill:#ff0000;stroke:#ff0000;" x="290.986591" xlink:href="#m67efa39183" y="88.732214"/>
     <use style="fill:#ff0000;stroke:#ff0000;" x="295.008747" xlink:href="#m67efa39183" y="80.694904"/>
     <use style="fill:#ff0000;stroke:#ff0000;" x="299.046937" xlink:href="#m67efa39183" y="78.032158"/>
     <use style="fill:#ff0000;stroke:#ff0000;" x="302.155229" xlink:href="#m67efa39183" y="76.089011"/>
     <use style="fill:#ff0000;stroke:#ff0000;" x="305.131013" xlink:href="#m67efa39183" y="76.302712"/>
     <use style="fill:#ff0000;stroke:#ff0000;" x="308.256226" xlink:href="#m67efa39183" y="68.736542"/>
     <use style="fill:#ff0000;stroke:#ff0000;" x="311.164827" xlink:href="#m67efa39183" y="68.932331"/>
     <use style="fill:#ff0000;stroke:#ff0000;" x="314.635073" xlink:href="#m67efa39183" y="70.515274"/>
     <use style="fill:#ff0000;stroke:#ff0000;" x="317.71842" xlink:href="#m67efa39183" y="70.91571"/>
     <use style="fill:#ff0000;stroke:#ff0000;" x="321.54031" xlink:href="#m67efa39183" y="68.736542"/>
     <use style="fill:#ff0000;stroke:#ff0000;" x="325.895931" xlink:href="#m67efa39183" y="59.486417"/>
     <use style="fill:#ff0000;stroke:#ff0000;" x="328.878839" xlink:href="#m67efa39183" y="59.66179"/>
     <use style="fill:#ff0000;stroke:#ff0000;" x="332.20278" xlink:href="#m67efa39183" y="59.83753"/>
     <use style="fill:#ff0000;stroke:#ff0000;" x="335.376133" xlink:href="#m67efa39183" y="60.013637"/>
     <use style="fill:#ff0000;stroke:#ff0000;" x="338.71635" xlink:href="#m67efa39183" y="61.256827"/>
     <use style="fill:#ff0000;stroke:#ff0000;" x="342.924415" xlink:href="#m67efa39183" y="60.190114"/>
     <use style="fill:#ff0000;stroke:#ff0000;" x="345.673247" xlink:href="#m67efa39183" y="60.366963"/>
     <use style="fill:#ff0000;stroke:#ff0000;" x="348.214203" xlink:href="#m67efa39183" y="60.366963"/>
     <use style="fill:#ff0000;stroke:#ff0000;" x="351.37419" xlink:href="#m67efa39183" y="66.803322"/>
     <use style="fill:#ff0000;stroke:#ff0000;" x="356.165844" xlink:href="#m67efa39183" y="67.186427"/>
     <use style="fill:#ff0000;stroke:#ff0000;" x="359.574747" xlink:href="#m67efa39183" y="68.541207"/>
     <use style="fill:#ff0000;stroke:#ff0000;" x="362.485093" xlink:href="#m67efa39183" y="68.736542"/>
     <use style="fill:#ff0000;stroke:#ff0000;" x="367.347964" xlink:href="#m67efa39183" y="60.544184"/>
     <use style="fill:#ff0000;stroke:#ff0000;" x="371.404978" xlink:href="#m67efa39183" y="60.721779"/>
     <use style="fill:#ff0000;stroke:#ff0000;" x="375.006313" xlink:href="#m67efa39183" y="62.700491"/>
     <use style="fill:#ff0000;stroke:#ff0000;" x="378.744434" xlink:href="#m67efa39183" y="64.913549"/>
     <use style="fill:#ff0000;stroke:#ff0000;" x="381.272556" xlink:href="#m67efa39183" y="65.100627"/>
     <use style="fill:#ff0000;stroke:#ff0000;" x="384.377863" xlink:href="#m67efa39183" y="65.288121"/>
     <use style="fill:#ff0000;stroke:#ff0000;" x="386.755056" xlink:href="#m67efa39183" y="65.476035"/>
     <use style="fill:#ff0000;stroke:#ff0000;" x="389.815279" xlink:href="#m67efa39183" y="65.66437"/>
     <use style="fill:#ff0000;stroke:#ff0000;" x="392.768992" xlink:href="#m67efa39183" y="55.383586"/>
     <use style="fill:#ff0000;stroke:#ff0000;" x="395.729157" xlink:href="#m67efa39183" y="55.383586"/>
     <use style="fill:#ff0000;stroke:#ff0000;" x="398.487273" xlink:href="#m67efa39183" y="53.568"/>
    </g>
   </g>
   <g id="patch_7">
    <path d="M 57.6 307.584 
L 57.6 41.472 
" style="fill:none;stroke:#000000;stroke-linecap:square;stroke-linejoin:miter;stroke-width:0.8;"/>
   </g>
   <g id="patch_8">
    <path d="M 414.72 307.584 
L 414.72 41.472 
" style="fill:none;stroke:#000000;stroke-linecap:square;stroke-linejoin:miter;stroke-width:0.8;"/>
   </g>
   <g id="patch_9">
    <path d="M 57.6 307.584 
L 414.72 307.584 
" style="fill:none;stroke:#000000;stroke-linecap:square;stroke-linejoin:miter;stroke-width:0.8;"/>
   </g>
   <g id="patch_10">
    <path d="M 57.6 41.472 
L 414.72 41.472 
" style="fill:none;stroke:#000000;stroke-linecap:square;stroke-linejoin:miter;stroke-width:0.8;"/>
   </g>
  </g>
 </g>
 <defs>
  <clipPath id="p58fc834c55">
   <rect height="266.112" width="357.12" x="57.6" y="41.472"/>
  </clipPath>
 </defs>
</svg>
